<svg clip-rule="evenodd" fill-rule="evenodd" stroke-linejoin="round" stroke-miterlimit="2" viewBox="0 0 591 591" xmlns="http://www.w3.org/2000/svg" xmlns:xlink="http://www.w3.org/1999/xlink"><linearGradient id="a" gradientTransform="matrix(1 0 0 -1 0 .000008)" gradientUnits="userSpaceOnUse" x1="0" x2="1" y1="0" y2="0"><stop offset="0" stop-color="#008bd2"/><stop offset="1" stop-color="#0d2050"/></linearGradient><g fill-rule="nonzero"><path d="m0 .5v-1h1v.8c0 .11-.09.2-.2.2z" fill="url(#a)" transform="matrix(590.55047244 0 0 -590.55047244 -.00093378 295.28012977)"/><g fill="#fff"><path d="m0 .338c0-5.694 3.499-8.88 9.122-8.88 2.412 0 4.077.555 5.26 1.352v3.667h-2.317c-.506-.434-1.472-.989-2.775-.989-2.099 0-3.426 1.328-3.426 4.609 0 3.595 1.134 4.85 3.185 4.85 1.544 0 2.534-.555 3.185-1.183h2.22v3.404c-1.279.94-3.113 1.712-5.839 1.712-5.333 0-8.615-3.016-8.615-8.542" transform="matrix(4.16667 0 0 4.16667 44.74493535 325.10515363)"/><path d="m0 16.891v-16.891h3.547c1.52 0 1.834.41 1.834 2.654v14.237z" transform="matrix(4.16667 0 0 4.16667 110.29082112 290.62179271)"/><path d="m0-2.582h2.944c-.072-1.592-.531-2.075-1.424-2.075-.748 0-1.351.362-1.52 2.075m.024 2.461c.218 1.594 1.014 2.027 2.509 2.027 1.425 0 2.414-.362 3.089-.772h1.714v2.92c-1.255.676-2.848 1.255-5.647 1.255-4.778 0-7.046-2.486-7.046-6.516 0-4.077 2.655-6.684 6.877-6.684 4.247 0 6.347 2.149 6.347 6.588 0 .603-.049 1.013-.049 1.182z" transform="matrix(4.16667 0 0 4.16667 158.74919322 339.78433204)"/><path d="m0 6.54v-2.003c-.314-.049-.7-.097-.989-.097-.821 0-1.279.386-1.279 1.303 0 .869.531 1.183 1.158 1.183.386 0 .796-.169 1.11-.386m.266 2.003c-.893.917-2.052 1.303-3.572 1.303-2.099 0-3.957-1.207-3.957-3.765 0-2.703 1.954-3.909 4.947-3.909.892 0 1.641.049 2.316.169v-.458c0-1.038-.531-1.425-1.954-1.425-1.135 0-2.1.315-2.679.652h-1.713v-3.426c1.158-.483 3.161-.99 5.598-.99 4.174 0 6.105 1.376 6.105 4.802v8.181h-3.523c-.917 0-1.352-.435-1.568-1.134" transform="matrix(4.16667 0 0 4.16667 222.68674437 320.68015009)"/><path d="m0 12.982v-12.741h3.813c.796 0 1.254.265 1.447 1.786 1.062-1.062 2.511-2.027 4.537-2.027 1.978 0 3.499.869 3.499 3.692v9.29h-5.357v-7.866c0-.917-.434-1.111-1.424-1.111-.41 0-.82.073-1.134.145v8.832z" transform="matrix(4.16667 0 0 4.16667 250.73260014 306.90930574)"/><path d="m0-13.246c0-1.375 1.086-2.269 2.654-2.269 1.569 0 2.655.894 2.655 2.269s-1.086 2.243-2.655 2.243c-1.568 0-2.654-.868-2.654-2.243m-.024 15.515v-12.741h3.546c1.521 0 1.81.434 1.81 2.534v10.207z" transform="matrix(4.16667 0 0 4.16667 312.16181595 351.54267478)"/><path d="m0 12.982v-12.741h3.813c.796 0 1.254.265 1.448 1.786 1.061-1.062 2.51-2.027 4.537-2.027 1.977 0 3.498.869 3.498 3.692v9.29h-5.357v-7.866c0-.917-.434-1.111-1.423-1.111-.411 0-.821.073-1.134.145v8.832z" transform="matrix(4.16667 0 0 4.16667 340.50767196 306.90930574)"/><path d="m0 .337v-4.584c-.362-.169-.724-.242-1.134-.242-1.014 0-1.882.29-1.882 2.486 0 2.364.675 2.653 1.81 2.653.458 0 .868-.119 1.206-.313m5.356 2.943c0 3.668-2.967 5.431-7.673 5.431-2.557 0-4.125-.314-5.454-.869v-3.45h1.69c.7.361 1.737.674 3.065.674 2.075 0 3.016-.554 3.016-1.786v-.481c-.748.627-1.93.965-3.306.965-2.823 0-5.139-1.327-5.139-5.888 0-4.826 2.799-6.25 5.308-6.25 1.569 0 2.606.579 3.499 1.69.314-.917.845-1.448 1.906-1.448h3.088z" transform="matrix(4.16667 0 0 4.16667 434.61191391 341.79683365)"/><path d="m0-16.891h12.306v3.86h-6.587v2.703h4.512v3.621h-4.512v2.943h6.804v3.764h-12.523z" transform="matrix(4.16667 0 0 4.16667 47.25743736 453.15525607)"/><path d="m0 10.522 3.233-5.43-3.016-5.091v-1.11h5.381l1.786 3.378 1.762-3.378h4.367v1.11l-2.775 4.826 3.137 5.695v1.109h-5.357l-1.931-3.812-1.954 3.812h-4.633z" transform="matrix(4.16667 0 0 4.16667 102.54914826 404.68855063)"/><path d="m0 .123c0-4.223 2.848-6.661 7.384-6.661 1.713 0 3.282.411 4.247.917v3.403h-1.834c-.41-.314-1.037-.628-1.979-.628-1.447 0-2.364.893-2.364 3.017 0 2.026.82 2.968 2.292 2.968 1.062 0 1.665-.363 2.148-.748h1.761v3.136c-.844.532-2.413 1.134-4.609 1.134-4.391 0-7.046-2.172-7.046-6.538" transform="matrix(4.16667 0 0 4.16667 158.54502639 426.30106792)"/><path d="m0-2.582h2.944c-.072-1.592-.531-2.074-1.423-2.074-.749 0-1.352.361-1.521 2.074m.024 2.462c.218 1.593 1.014 2.027 2.51 2.027 1.424 0 2.413-.362 3.088-.773h1.714v2.92c-1.255.676-2.848 1.255-5.647 1.255-4.777 0-7.046-2.485-7.046-6.515 0-4.077 2.655-6.685 6.878-6.685 4.246 0 6.346 2.149 6.346 6.588 0 .603-.049 1.014-.049 1.183z" transform="matrix(4.16667 0 0 4.16667 231.23258454 431.93857243)"/><path d="m0 16.891v-16.891h3.547c1.52 0 1.834.41 1.834 2.655v14.236z" transform="matrix(4.16667 0 0 4.16667 267.7242804 382.7760331)"/><path d="m0 16.891v-16.891h3.547c1.519 0 1.834.41 1.834 2.655v14.236z" transform="matrix(4.16667 0 0 4.16667 296.57847015 382.7760331)"/><path d="m0-2.582h2.943c-.072-1.592-.53-2.074-1.423-2.074-.749 0-1.351.361-1.52 2.074m.023 2.462c.218 1.593 1.014 2.027 2.51 2.027 1.424 0 2.413-.362 3.089-.773h1.714v2.92c-1.256.676-2.848 1.255-5.648 1.255-4.777 0-7.045-2.485-7.045-6.515 0-4.077 2.654-6.685 6.877-6.685 4.247 0 6.346 2.149 6.346 6.588 0 .603-.048 1.014-.048 1.183z" transform="matrix(4.16667 0 0 4.16667 345.03684225 431.93857243)"/><path d="m0 12.982v-12.74h3.813c.796 0 1.254.264 1.448 1.785 1.061-1.062 2.51-2.027 4.537-2.027 1.978 0 3.498.869 3.498 3.692v9.29h-5.357v-7.866c0-.917-.434-1.111-1.423-1.111-.411 0-.822.074-1.134.146v8.831z" transform="matrix(4.16667 0 0 4.16667 381.32437128 399.06354613)"/><path d="m0 .123c0-4.223 2.849-6.661 7.384-6.661 1.714 0 3.282.411 4.247.917v3.403h-1.834c-.41-.314-1.037-.628-1.978-.628-1.448 0-2.365.893-2.365 3.017 0 2.026.82 2.968 2.292 2.968 1.062 0 1.665-.363 2.148-.748h1.762v3.136c-.845.532-2.414 1.134-4.61 1.134-4.391 0-7.046-2.172-7.046-6.538" transform="matrix(4.16667 0 0 4.16667 440.03691825 426.30106792)"/><path d="m0-2.582h2.944c-.072-1.592-.531-2.074-1.423-2.074-.749 0-1.352.361-1.521 2.074m.024 2.462c.217 1.593 1.014 2.027 2.51 2.027 1.424 0 2.413-.362 3.089-.773h1.713v2.92c-1.255.676-2.848 1.255-5.647 1.255-4.778 0-7.045-2.485-7.045-6.515 0-4.077 2.654-6.685 6.877-6.685 4.246 0 6.346 2.149 6.346 6.588 0 .603-.048 1.014-.048 1.183z" transform="matrix(4.16667 0 0 4.16667 512.7244764 431.93857243)"/></g><path d="m0 16.934v-15.552l-2.665 1.55h-.558v-.848l3.659-2.107h.872v16.957zm-3.996 0h-10.562v-1.09l5.112-5.063c2.446-2.447 4.093-4.313 4.093-6.419 0-2.132-1.259-3.416-3.681-3.416-2.06 0-3.295.823-4.192 1.744h-.629v-.921c1.042-.969 2.713-1.89 4.893-1.89 3.197 0 4.893 1.697 4.893 4.483 0 2.47-2.035 4.676-4.457 7.073l-4.505 4.409h9.035zm-12.427-8.455c0-5.111-2.301-7.558-5.499-7.558-3.222 0-5.523 2.447-5.523 7.558 0 5.088 2.301 7.511 5.523 7.511 3.198 0 5.499-2.423 5.499-7.511m-12.33-.024c0-5.741 3.125-8.576 6.831-8.576 3.707 0 6.832 2.835 6.832 8.576 0 5.815-3.125 8.577-6.832 8.577-3.706 0-6.831-2.762-6.831-8.577m-1.429 8.479h-10.561v-1.09l5.111-5.063c2.446-2.447 4.095-4.313 4.095-6.419 0-2.132-1.261-3.416-3.684-3.416-2.058 0-3.294.823-4.19 1.744h-.63v-.921c1.042-.969 2.713-1.89 4.894-1.89 3.197 0 4.893 1.697 4.893 4.483 0 2.47-2.035 4.676-4.457 7.073l-4.506 4.409h9.035zm-25.506-1.09v-.993h.485c.604.558 1.72 1.235 3.536 1.235 2.325 0 3.44-.968 3.44-2.713 0-1.477-.824-2.083-3.391-2.495-2.423-.388-3.949-1.236-3.949-3.368 0-2.18 1.719-3.342 4.24-3.342 1.84 0 2.955.484 3.657.945v.993h-.484c-.678-.557-1.527-.993-3.15-.993-2.059 0-3.125.775-3.125 2.3 0 1.455.848 2.011 3.295 2.423 2.641.412 4.094 1.212 4.094 3.441 0 2.325-1.43 3.755-4.578 3.755-2.156 0-3.344-.655-4.07-1.188m-3.391-2.325v-6.687c-.993-1.065-2.156-1.719-4.022-1.719-2.131 0-4.36 1.163-4.36 5.571 0 4.191 1.986 5.402 3.876 5.402 2.06 0 3.416-1.089 4.506-2.567m0 1.235c-1.017 1.284-2.641 2.278-4.627 2.278-2.544 0-4.99-1.6-4.99-6.299 0-4.894 2.81-6.565 5.402-6.565 1.986 0 3.27.606 4.215 1.575v-5.766h.412c.703 0 .823.145.823 1.162v15.795h-.63c-.508 0-.581-.242-.605-1.404zm-14.825-8.26c.969-1.164 2.35-2.278 4.143-2.278.315 0 .532.049.581.072v.994s-.315-.024-.533-.024c-1.841 0-3.173 1.187-4.191 2.373v9.303h-1.211v-12.621h.557c.533 0 .654.146.654 1.381zm-5.328 7.557v-3.1c-.97-.218-2.036-.388-3.247-.388-2.229 0-3.9.8-3.9 2.738 0 2.011 1.308 2.81 3.004 2.81 2.035 0 3.149-.872 4.143-2.06m0 1.163c-1.066 1.115-2.229 1.841-4.312 1.841-2.35 0-4.07-1.284-4.07-3.657 0-2.544 2.107-3.707 5.063-3.707 1.211 0 2.277.121 3.319.389v-2.279c0-1.962-1.261-2.664-3.101-2.664-1.865 0-3.125.484-3.925 1.113h-.509v-.992c1.018-.557 2.423-1.09 4.482-1.09 2.568 0 4.264.945 4.264 3.561v9.205h-.339c-.703 0-.872-.218-.872-1.235zm-25.072-10.44v-.461h1.09l3.174 10.78h.048l3.344-10.78h1.017l3.27 10.78h.049l3.173-10.78h.993v.461l-3.658 12.16h-1.066l-3.294-10.684h-.048l-3.319 10.684h-1.115zm-10.101 5.789h6.614l-3.271-9.156h-.048zm-3.343 5.839 5.96-16.425h1.526l5.887 16.425v.532h-1.139l-1.914-5.305h-7.34l-1.889 5.305h-1.091z" fill="#fdc419" transform="matrix(4.16667 0 0 4.16667 537.85782984 472.76360509)"/></g></svg>