<svg clip-rule="evenodd" fill-rule="evenodd" stroke-linejoin="round" stroke-miterlimit="2" viewBox="0 0 2121 517" xmlns="http://www.w3.org/2000/svg" xmlns:xlink="http://www.w3.org/1999/xlink"><linearGradient id="a" gradientTransform="matrix(85.2218 -85.2218 85.2218 85.2218 13.3909 88.6585)" gradientUnits="userSpaceOnUse" x1="0" x2="1" y1="0" y2="0"><stop offset="0" stop-color="#fbca25"/><stop offset=".2" stop-color="#ffefab"/><stop offset=".3" stop-color="#faefba"/><stop offset=".6" stop-color="#c3942f"/><stop offset=".9" stop-color="#f3df97"/><stop offset="1" stop-color="#fffbcc"/></linearGradient><g transform="scale(4.16667)"><path d="m99.193 12.122h-86.383c-.223.389-.447.777-.661 1.164h87.705c-.215-.387-.439-.776-.661-1.164zm8.865 27.032h-104.111c-.034.386-.084.78-.112 1.163h104.334c-.029-.383-.079-.777-.111-1.163zm-41.532-6.378h.838c.346 0 .809-.521.809-.838v-11.321c0-.318-.463-.808-.809-.808h-.838v-3.697h17.212v6.555h-3.898l-.577-2.57h-4.333v3.87h4.65v4.101h-4.65v4.39h4.448l.549-3.061h4.072v6.93h-17.473zm-22.383 0h.838c.347 0 .809-.521.809-.838v-11.321c0-.318-.462-.808-.809-.808h-.838v-3.697h10.138v3.697h-1.734v4.562h4.765v-4.562h-1.732v-3.697h10.137v3.697h-.838c-.347 0-.808.49-.808.808v11.321c0 .317.461.838.808.838h.838v3.551h-10.137v-3.551h1.732v-4.968h-4.765v4.968h1.734v3.551h-10.138zm-11.898 3.551h-4.303v-6.382h4.389l.578 2.513c.433.144.953.202 1.733.202 1.531 0 2.455-.52 2.455-1.791 0-1.386-1.329-1.646-3.466-2.223-2.946-.78-5.603-1.993-5.603-6.354 0-4.592 3.177-6.498 7.509-6.498 1.819 0 2.859.144 3.696.318h3.697v5.862h-4.332l-.577-2.165c-.376-.116-.867-.203-1.502-.203-1.589 0-2.455.52-2.455 1.762 0 1.357 1.3 1.589 2.772 1.992 4.852 1.3 6.701 2.629 6.701 6.498 0 4.39-2.455 6.788-7.885 6.788-1.386 0-2.397-.116-3.407-.319zm-28.518 8.937h104.549c.031 4.048-.187 8.102-.769 12.11-.566 3.858-1.47 7.656-2.798 11.326-3.894 10.764-10.299 19.718-19.065 27.052-1.946 1.626-3.996 3.159-6.074 4.612-2.444 1.711-4.964 3.326-7.551 4.816-2.232 1.287-4.529 2.487-6.889 3.528-2.106.93-4.321 1.763-6.566 2.295-1.533.363-3.473.401-5-.005-2.196-.584-4.361-1.425-6.435-2.35-2.334-1.04-4.615-2.218-6.839-3.472-2.661-1.499-5.263-3.119-7.786-4.839-2.103-1.434-4.193-2.954-6.144-4.585-8.767-7.334-15.172-16.288-19.067-27.052-1.326-3.67-2.232-7.468-2.795-11.326-.585-4.008-.802-8.062-.771-12.11zm103.127 24.98c-4.021 11.117-10.856 20.303-19.879 27.851-6.27 5.243-19.244 13.509-28.415 15.717-1.546.372-3.481.403-5.009-.01-9.044-2.452-22.451-10.629-28.523-15.707-9.023-7.548-15.858-16.734-19.879-27.851-3.583-9.908-4.788-21.397-3.209-34.538 1.247-10.359 5.888-21.276 14.061-32.897 13.275 4.342 26.55 4.323 39.825-.062h.351c13.276 4.385 26.55 4.404 39.824.062 8.174 11.621 12.816 22.538 14.062 32.897 1.581 13.141.375 24.63-3.209 34.538zm4.462-34.689c-1.464-12.165-7.316-23.567-14.283-33.47l-.537-.764-.886.29c-13.017 4.259-26.033 4.235-39.038-.06l-.193-.065h-.755l-.193.065c-13.005 4.295-26.021 4.319-39.038.06l-.886-.29-.537.764c-6.965 9.903-12.818 21.305-14.28 33.47-1.42 11.813-.797 23.86 3.275 35.12 4.101 11.342 11.082 20.714 20.255 28.386 6.303 5.271 19.871 13.517 29.166 15.989 1.627.433 3.707.399 5.356.008 9.418-2.233 22.545-10.565 29.041-15.997 9.172-7.672 16.153-17.044 20.256-28.386 4.073-11.26 4.695-23.307 3.277-35.12z" fill="url(#a)"/><g fill-rule="nonzero"><path d="m132.654 27.04h1.473c.535 0 1.248-.803 1.248-1.293v-18.471h-2.498l-.669 5.755h-6.203v-11.733h29.18v11.733h-6.157l-.715-5.755h-2.497v18.471c0 .49.713 1.293 1.249 1.293h1.472v5.489h-15.883z" fill="#fff"/><path d="m172.585 17.895c0-1.741-.803-2.097-2.855-2.097-.402 0-1.116.045-1.785.133v11.109h2.588v5.489h-14.545v-5.489h1.116c.445 0 1.07-.712 1.07-1.114v-17.846c0-.447-.625-1.071-1.07-1.071h-1.25v-5.711h10.662c.894 0 1.429.758 1.429 1.962v8.834c2.007-2.052 4.729-3.568 8.342-3.568 3.123 0 6.069 1.293 6.069 5.621v11.779c0 .445.624 1.114 1.07 1.114h.715v5.489h-11.556z" fill="#fff"/><path d="m194.269 18.251h5.621c-.223-3.034-.982-4.148-2.677-4.148-1.739 0-2.633 1.114-2.944 4.148zm-.045 4.596c.313 2.989 1.472 4.284 4.149 4.284 2.41 0 3.614-.848 4.506-2.009h5.13v5.667c-2.141 1.204-5.264 2.141-10.662 2.141-9.192 0-12.894-4.595-12.894-12.046 0-7.54 4.863-12.358 12.76-12.358 7.986 0 11.735 3.747 11.735 12.001 0 1.115-.091 2.008-.091 2.32z" fill="#fff"/><path d="m222.51 32.529h-6.647v-9.86h6.781l.892 3.881c.669.223 1.472.313 2.678.313 2.364 0 3.792-.803 3.792-2.767 0-2.141-2.052-2.542-5.354-3.436-4.55-1.204-8.655-3.078-8.655-9.815 0-7.093 4.908-10.039 11.599-10.039 2.812 0 4.418.224 5.711.492h5.71v9.056h-6.691l-.893-3.345c-.58-.179-1.338-.313-2.32-.313-2.454 0-3.792.803-3.792 2.722 0 2.097 2.007 2.454 4.284 3.078 7.495 2.009 10.351 4.059 10.351 10.039 0 6.782-3.794 10.484-12.181 10.484-2.141 0-3.704-.178-5.265-.49z" fill="#fff"/><path d="m254.186 26.595v-3.524c-.579-.091-1.293-.179-1.873-.179-1.561 0-2.409.58-2.409 2.32 0 1.695.937 2.141 2.141 2.141.848 0 1.472-.268 2.141-.758zm-13.429-.491c0-5.131 3.613-7.362 9.147-7.362 1.74 0 2.989.09 4.282.312v-1.426c0-1.651-.891-2.411-3.166-2.411-2.411 0-3.66.848-4.597 1.608h-4.06v-6.649c2.499-.892 6.203-1.65 11.02-1.65 7.407 0 10.574 2.452 10.574 7.986v9.414c0 .445.625 1.114 1.072 1.114h.758v4.641c-1.383.759-3.257 1.249-5.578 1.249-3.035 0-4.594-1.025-5.354-2.81-1.694 1.918-3.926 2.721-6.781 2.721-3.926 0-7.317-2.186-7.317-6.737z" fill="#fff"/><path d="m266.233 8.971h2.321v-1.025c0-5.31 3.077-7.274 8.7-7.274 2.229 0 3.613.313 4.774.67v5.086h-1.206c-1.829 0-2.498.313-2.498 1.874v.669h3.525v5.845h-3.525v11.11c0 .445.624 1.114 1.071 1.114h1.517v5.489h-14.545v-5.489h1.116c.445 0 1.071-.669 1.071-1.114v-11.11h-2.321z" fill="#fff"/><path d="m291.619 18.251h5.621c-.223-3.034-.982-4.148-2.677-4.148-1.739 0-2.632 1.114-2.944 4.148zm-.045 4.596c.313 2.989 1.472 4.284 4.149 4.284 2.41 0 3.615-.848 4.506-2.009h5.131v5.667c-2.142 1.204-5.265 2.141-10.663 2.141-9.192 0-12.893-4.595-12.893-12.046 0-7.54 4.862-12.358 12.759-12.358 7.986 0 11.735 3.747 11.735 12.001 0 1.115-.09 2.008-.09 2.32z" fill="#fff"/><path d="m306.701 8.971h2.32v-6.112h9.771v6.112h3.926v5.845h-3.926v9.593c0 2.007.669 2.631 2.81 2.631h1.204v5.31c-1.159.312-2.944.669-5.175.669-5.176 0-8.61-1.472-8.61-6.959v-11.244h-2.32z" fill="#fff"/><path d="m326.286 34.894c2.186-.535 4.327-1.429 6.112-2.856l-7.183-16.195c-.224-.492-.804-1.027-1.294-1.027h-.624v-5.845h13.608v5.845h-2.366l3.123 7.808h.179l2.32-5.799c.445-1.027.134-2.009-1.027-2.009h-.401v-5.845h11.243v5.845h-.669c-.491 0-1.248.714-1.561 1.383l-6.069 12.76c-2.854 5.89-5.264 8.656-8.029 10.798h-7.362z" fill="#fff"/><path d="m374.247 26.06-6.47-6.559c-.49.669-.891 1.606-.891 2.855 0 2.543 1.605 4.239 4.506 4.239 1.026 0 1.962-.179 2.855-.535zm-17.177-2.544c0-4.507 2.944-7.228 6.559-8.7-.982-1.518-1.429-3.123-1.429-5.219 0-5.221 3.525-8.791 10.308-8.791 1.427 0 3.479.268 4.148.492h6.961v9.056h-6.604l-.713-2.9c-.268-.089-.581-.178-1.206-.178-1.828 0-2.543.804-2.543 2.321s.893 2.453 2.365 3.926l5.22 5.352c.491-1.515.893-3.211 1.115-5.085h7.496v3.971c-1.025 2.321-2.141 4.55-3.391 6.514l1.874 1.874c.714.624 1.027.891 1.651.891h.313v5.489h-8.879l-1.651-1.651c-2.364 1.294-5.22 2.007-8.834 2.007-8.521 0-12.76-3.702-12.76-9.369z" fill="#fff"/><path d="m125.917 68.47h1.294c.536 0 1.248-.803 1.248-1.294v-17.49c0-.49-.712-1.248-1.248-1.248h-1.294v-5.711h15.66v5.711h-2.676v7.049h7.36v-7.049h-2.677v-5.711h15.661v5.711h-1.295c-.535 0-1.248.758-1.248 1.248v17.49c0 .491.713 1.294 1.248 1.294h1.295v5.488h-15.661v-5.488h2.677v-7.674h-7.36v7.674h2.676v5.488h-15.66z" fill="#fff"/><path d="m169.33 59.681h5.62c-.222-3.035-.981-4.149-2.676-4.149-1.74 0-2.633 1.114-2.944 4.149zm-.045 4.595c.312 2.989 1.472 4.284 4.148 4.284 2.411 0 3.615-.848 4.507-2.009h5.13v5.667c-2.141 1.205-5.264 2.141-10.662 2.141-9.192 0-12.894-4.595-12.894-12.045 0-7.541 4.863-12.359 12.76-12.359 7.986 0 11.734 3.747 11.734 12.001 0 1.115-.09 2.009-.09 2.32z" fill="#fff"/><path d="m197.928 68.025v-3.525c-.579-.09-1.294-.179-1.874-.179-1.561 0-2.409.58-2.409 2.32 0 1.695.937 2.141 2.141 2.141.848 0 1.472-.267 2.142-.757zm-13.429-.492c0-5.131 3.613-7.362 9.146-7.362 1.74 0 2.989.09 4.283.313v-1.427c0-1.651-.892-2.411-3.167-2.411-2.41 0-3.66.848-4.597 1.608h-4.06v-6.649c2.5-.892 6.203-1.65 11.021-1.65 7.407 0 10.573 2.453 10.573 7.986v9.414c0 .445.626 1.115 1.072 1.115h.758v4.64c-1.383.759-3.257 1.249-5.577 1.249-3.034 0-4.595-1.025-5.354-2.81-1.695 1.919-3.926 2.722-6.782 2.722-3.926 0-7.316-2.187-7.316-6.738z" fill="#fff"/><path d="m210.063 68.47h1.295c.445 0 1.071-.67 1.071-1.115v-17.803c0-.445-.626-1.114-1.071-1.114h-1.383v-5.711h10.796c.893 0 1.428.758 1.428 1.962v22.666c0 .445.624 1.115 1.071 1.115h1.338v5.488h-14.545z" fill="#fff"/><path d="m224.386 50.4h2.32v-6.112h9.77v6.112h3.926v5.845h-3.926v9.593c0 2.008.67 2.632 2.811 2.632h1.204v5.309c-1.159.313-2.944.669-5.175.669-5.176 0-8.61-1.472-8.61-6.959v-11.244h-2.32z" fill="#fff"/><path d="m257.712 59.324c0-1.741-.803-2.097-2.855-2.097-.402 0-1.116.045-1.785.134v11.109h2.588v5.488h-14.545v-5.488h1.116c.445 0 1.07-.713 1.07-1.115v-17.846c0-.447-.625-1.071-1.07-1.071h-1.25v-5.711h10.663c.893 0 1.428.758 1.428 1.962v8.834c2.007-2.052 4.729-3.568 8.342-3.568 3.123 0 6.069 1.293 6.069 5.621v11.779c0 .445.624 1.115 1.071 1.115h.714v5.488h-11.556z" fill="#fff"/><path d="m276.138 68.47h1.295c.535 0 1.247-.803 1.247-1.294v-17.49c0-.49-.712-1.248-1.247-1.248h-1.295v-5.711h26.59v10.127h-6.022l-.893-3.971h-6.691v5.978h7.183v6.337h-7.183v6.781h6.87l.848-4.729h6.291v10.708h-26.993z" fill="#fff"/><path d="m303.979 68.47h.268c.624 0 1.293-.67 1.785-1.16l4.103-5.087-4.237-4.951c-.492-.535-.938-1.027-1.428-1.027h-.624v-5.845h13.919v5.534h-1.74l2.722 3.078 1.16-1.472c.579-.715.357-1.606-.58-1.606h-.134v-5.534h10.796v5.845h-.267c-.579 0-1.248.625-1.695 1.161l-4.15 4.951 4.329 5.087c.49.535.98 1.026 1.472 1.026h.445v5.488h-13.83v-5.221h1.784l-2.81-3.166-1.115 1.383c-.715.98-.313 1.783.58 1.783h.134v5.221h-10.887z" fill="#fff"/><path d="m330.168 62.269c0-7.764 4.997-12.314 13.429-12.314 3.659 0 6.559.49 8.387 1.205v7.094h-5.175c-.669-1.34-1.293-2.098-3.033-2.098-2.41 0-3.658 1.785-3.658 6.201 0 4.461 1.159 6.203 3.792 6.203 1.873 0 3.078-.893 3.881-1.964h4.239v5.532c-1.919 1.249-4.82 2.231-8.567 2.231-8.922 0-13.295-4.372-13.295-12.09z" fill="#fff"/><path d="m362.56 59.681h5.62c-.222-3.035-.982-4.149-2.676-4.149-1.74 0-2.633 1.114-2.944 4.149zm-.046 4.595c.313 2.989 1.473 4.284 4.149 4.284 2.41 0 3.615-.848 4.507-2.009h5.13v5.667c-2.141 1.205-5.264 2.141-10.662 2.141-9.192 0-12.894-4.595-12.894-12.045 0-7.541 4.863-12.359 12.76-12.359 7.986 0 11.734 3.747 11.734 12.001 0 1.115-.09 2.009-.09 2.32z" fill="#fff"/><path d="m377.728 68.47h1.295c.445 0 1.071-.67 1.071-1.115v-17.803c0-.445-.626-1.114-1.071-1.114h-1.383v-5.711h10.796c.893 0 1.428.758 1.428 1.962v22.666c0 .445.624 1.115 1.071 1.115h1.338v5.488h-14.545z" fill="#fff"/><path d="m392.899 68.47h1.294c.445 0 1.071-.67 1.071-1.115v-17.803c0-.445-.626-1.114-1.071-1.114h-1.383v-5.711h10.796c.893 0 1.429.758 1.429 1.962v22.666c0 .445.624 1.115 1.07 1.115h1.338v5.488h-14.544z" fill="#fff"/><path d="m417.483 59.681h5.621c-.223-3.035-.982-4.149-2.677-4.149-1.739 0-2.633 1.114-2.944 4.149zm-.045 4.595c.313 2.989 1.472 4.284 4.149 4.284 2.41 0 3.614-.848 4.506-2.009h5.13v5.667c-2.141 1.205-5.264 2.141-10.662 2.141-9.192 0-12.894-4.595-12.894-12.045 0-7.541 4.863-12.359 12.76-12.359 7.986 0 11.735 3.747 11.735 12.001 0 1.115-.09 2.009-.09 2.32z" fill="#fff"/><path d="m432.831 68.47h1.116c.445 0 1.114-.713 1.114-1.115v-9.994c0-.447-.669-1.116-1.114-1.116h-1.25v-5.845h10.217c.892 0 1.516.669 1.74 3.257 2.052-2.141 4.774-3.702 8.476-3.702 3.123 0 6.069 1.293 6.069 5.621v11.779c0 .445.669 1.115 1.115 1.115h.713v5.488h-11.555v-14.634c0-1.741-.847-2.097-2.856-2.097-.401 0-1.114.045-1.828.134v11.109h2.631v5.488h-14.588z" fill="#fff"/><path d="m461.295 62.269c0-7.764 4.996-12.314 13.429-12.314 3.658 0 6.559.49 8.387 1.205v7.094h-5.175c-.67-1.34-1.294-2.098-3.033-2.098-2.411 0-3.659 1.785-3.659 6.201 0 4.461 1.16 6.203 3.792 6.203 1.874 0 3.079-.893 3.881-1.964h4.239v5.532c-1.919 1.249-4.819 2.231-8.566 2.231-8.923 0-13.295-4.372-13.295-12.09z" fill="#fff"/><path d="m493.686 59.681h5.621c-.223-3.035-.982-4.149-2.677-4.149-1.739 0-2.633 1.114-2.944 4.149zm-.045 4.595c.313 2.989 1.472 4.284 4.149 4.284 2.41 0 3.614-.848 4.506-2.009h5.13v5.667c-2.141 1.205-5.264 2.141-10.662 2.141-9.192 0-12.894-4.595-12.894-12.045 0-7.541 4.863-12.359 12.76-12.359 7.986 0 11.735 3.747 11.735 12.001 0 1.115-.091 2.009-.091 2.32z" fill="#fff"/><path d="m150.459 114.006h-4.774v1.606h10.395v-1.606h-1.294c-.892 0-1.829-.847-2.186-1.829l-9.637-27.796h-8.388v1.651h2.454c.982 0 1.472.669 1.116 1.651l-8.834 24.628c-.357.981-1.205 1.695-2.231 1.695h-1.205v1.606h9.905v-1.606h-2.499c-1.74 0-2.052-1.115-1.383-2.944l2.008-5.667h13.563zm-9.771-27.572h.223l5.934 17.177h-12.27z" fill="#ffc20d"/><path d="m162.728 115.612h2.454l6.068-19.586h.045l5.978 19.586h2.454l5.934-20.032c.312-1.071 1.115-1.562 1.963-1.562h.937v-1.695h-8.209v1.695h1.784c1.205 0 1.696.848 1.339 2.097l-4.685 16.107h-.089l-6.068-19.899h-2.231l-6.068 19.899h-.089l-5.354-18.204h3.57v-1.695h-8.611v1.695h1.07c.848 0 1.562.625 1.874 1.651z" fill="#ffc20d"/><path d="m197.038 115.836c3.435 0 5.845-1.428 7.629-3.659v.491c0 2.186 1.339 3.123 3.569 3.123.937 0 1.74-.268 2.008-.402v-1.472s-.624.134-1.16.134c-1.249 0-1.829-.58-1.829-1.963v-13.519c0-4.997-3.212-6.469-7.942-6.469-3.881 0-6.648.937-8.477 1.963v2.186h1.294c1.339-1.204 3.525-2.32 6.96-2.32 3.302 0 5.577 1.116 5.577 4.863v4.194c-1.829-.491-3.792-.714-6.068-.714-5.398 0-9.28 2.097-9.28 6.782 0 4.64 3.123 6.782 7.719 6.782zm.357-1.785c-3.48 0-5.577-1.472-5.577-4.997 0-3.614 2.811-5.086 7.228-5.086 2.007 0 3.881.267 5.621.669v5.622c-1.784 2.186-3.792 3.792-7.272 3.792z" fill="#ffc20d"/><path d="m212.118 115.612h10.128v-1.606h-4.284v-15.437c2.32-2.588 4.373-4.149 7.808-4.149.402 0 1.026.045 1.026.045v-2.142c-.133-.045-.535-.134-1.115-.134-3.525 0-5.934 2.365-7.719 4.685v-2.945c0-1.294-.267-1.606-.803-1.606h-5.264v1.695h2.186c.669 0 1.294.714 1.294 1.339v17.355c0 .67-.625 1.294-1.294 1.294h-1.963z" fill="#ffc20d"/><path d="m237.683 115.791c3.971 0 6.826-2.097 8.566-4.506v2.855c.045.982.223 1.472.67 1.472h5.22v-1.606h-2.008c-.625 0-1.294-.669-1.294-1.338v-27.484c0-.49-.178-.803-.625-.803h-5.889v1.651h3.926v9.414c-1.517-1.785-4.06-3.346-7.852-3.346-4.953 0-10.485 3.034-10.485 12.135 0 8.968 4.952 11.556 9.771 11.556zm.312-1.74c-3.435 0-7.451-1.874-7.451-9.905s4.417-10.083 8.254-10.083c3.614 0 5.533 1.16 7.451 3.168v12.224c-1.918 2.499-4.461 4.596-8.254 4.596z" fill="#ffc20d"/><path d="m262.177 115.791c5.979 0 8.789-2.543 8.789-7.005 0-4.149-2.766-5.488-7.674-6.291-4.193-.713-6.023-1.472-6.023-4.372 0-2.632 1.874-4.238 5.711-4.238 2.186 0 3.168.133 4.149.535.937.401 1.16 1.071 1.384 2.9h1.695v-4.105c-1.428-.58-3.436-1.115-7.183-1.115-5.176 0-8.076 2.32-8.076 6.335 0 4.283 2.722 5.443 7.228 6.202 4.239.714 6.38 1.606 6.38 4.462 0 3.301-2.275 4.997-6.425 4.997-2.32 0-3.435-.268-4.55-.67-.893-.357-1.205-1.16-1.384-3.301h-1.74v4.372c1.473.58 3.57 1.294 7.719 1.294z" fill="#ffc20d"/><path d="m280.96 115.612h19.542v-7.272h-1.963l-.357 5.131h-14.813c.089-4.551 3.971-7.451 8.254-10.128 4.997-3.123 9.325-5.577 9.325-11.02 0-5.176-3.212-8.165-9.682-8.165-3.391 0-6.291.625-8.878 1.696v5.354h1.784c.223-2.41.58-3.436 1.383-3.971 1.205-.848 3.079-1.25 5.667-1.25 4.818 0 6.915 2.365 6.915 6.381 0 4.372-3.748 6.558-7.986 9.369-4.462 2.945-9.191 6.202-9.191 12.135z" fill="#ffc20d"/><path d="m316.92 115.836c6.871 0 12.716-5.265 12.716-15.839s-5.845-15.839-12.716-15.839-12.76 5.265-12.76 15.839 5.889 15.839 12.76 15.839zm0-1.874c-5.8 0-9.905-4.373-9.905-13.92 0-9.548 4.105-14.01 9.905-14.01 5.756 0 9.86 4.462 9.86 14.01 0 9.547-4.104 13.92-9.86 13.92z" fill="#ffc20d"/><path d="m331.241 115.612h19.542v-7.272h-1.963l-.357 5.131h-14.813c.09-4.551 3.971-7.451 8.254-10.128 4.997-3.123 9.325-5.577 9.325-11.02 0-5.176-3.212-8.165-9.682-8.165-3.39 0-6.29.625-8.878 1.696v5.354h1.785c.223-2.41.58-3.436 1.383-3.971 1.204-.848 3.078-1.25 5.666-1.25 4.818 0 6.915 2.365 6.915 6.381 0 4.372-3.747 6.558-7.986 9.369-4.462 2.945-9.191 6.202-9.191 12.135z" fill="#ffc20d"/><path d="m353.995 115.612h19.542v-7.272h-1.963l-.357 5.131h-14.813c.09-4.551 3.971-7.451 8.254-10.128 4.997-3.123 9.325-5.577 9.325-11.02 0-5.176-3.212-8.165-9.682-8.165-3.39 0-6.29.625-8.878 1.696v5.354h1.784c.224-2.41.58-3.436 1.384-3.971 1.204-.848 3.078-1.25 5.666-1.25 4.818 0 6.915 2.365 6.915 6.381 0 4.372-3.747 6.558-7.986 9.369-4.462 2.945-9.191 6.202-9.191 12.135z" fill="#ffc20d"/><path d="m31.173 91.316c0-3.155 2.513-4.885 4.885-6.45 2.253-1.494 4.245-2.656 4.245-4.98 0-2.135-1.115-3.391-3.676-3.391-1.375 0-2.372.213-3.012.663-.426.285-.616.83-.735 2.111h-.948v-2.846c1.375-.569 2.916-.901 4.719-.901 3.438 0 5.146 1.589 5.146 4.34 0 2.893-2.301 4.197-4.957 5.857-2.276 1.423-4.339 2.965-4.386 5.383h7.872l.19-2.727h1.044v3.866h-10.387z" fill="#231f20"/><path d="m55.531 83.965c0-5.076-2.182-7.447-5.241-7.447-3.083 0-5.265 2.371-5.265 7.447 0 5.074 2.182 7.399 5.265 7.399 3.059 0 5.241-2.325 5.241-7.399zm-12.024-.024c0-5.621 3.131-8.419 6.783-8.419 3.651 0 6.758 2.798 6.758 8.419 0 5.62-3.107 8.418-6.758 8.418-3.652 0-6.783-2.798-6.783-8.418z" fill="#231f20"/><path d="m57.905 91.316c0-3.155 2.514-4.885 4.885-6.45 2.253-1.494 4.245-2.656 4.245-4.98 0-2.135-1.114-3.391-3.676-3.391-1.375 0-2.371.213-3.012.663-.426.285-.616.83-.735 2.111h-.948v-2.846c1.376-.569 2.917-.901 4.719-.901 3.439 0 5.146 1.589 5.146 4.34 0 2.893-2.3 4.197-4.956 5.857-2.277 1.423-4.34 2.965-4.388 5.383h7.874l.19-2.727h1.043v3.866h-10.387z" fill="#231f20"/><path d="m70.002 91.316c0-3.155 2.514-4.885 4.885-6.45 2.253-1.494 4.245-2.656 4.245-4.98 0-2.135-1.114-3.391-3.676-3.391-1.375 0-2.37.213-3.011.663-.427.285-.616.83-.735 2.111h-.949v-2.846c1.376-.569 2.917-.901 4.719-.901 3.439 0 5.146 1.589 5.146 4.34 0 2.893-2.3 4.197-4.956 5.857-2.277 1.423-4.34 2.965-4.387 5.383h7.873l.19-2.727h1.043v3.866h-10.387z" fill="#231f20"/><path d="m21.338 61.296h4.557l-2.136-6.67h-.048zm-5.673 5.221h.546c.452 0 .737-.285.903-.736l4.034-11.131c.143-.427-.048-.736-.428-.736h-1.257v-2.041h7.073l4.651 13.979c.119.38.475.665.808.665h.593v1.97h-7.167v-1.97h2.159l-1.02-3.157h-5.957l-.357 1.02c-.474 1.329-.355 2.137.76 2.137h.973v1.97h-6.314z" fill="#231f20"/><path d="m40.808 60.394-2.469 8.093h-2.966l-2.8-9.707c-.143-.381-.428-.665-.76-.665h-.451v-2.089h5.506v2.089h-1.093l1.639 6.218h.047l2.421-8.307h2.658l2.421 8.307h.047l1.258-4.65c.308-1.093.19-1.568-.782-1.568h-.357v-2.089h5.197v2.089h-.402c-.38 0-.76.215-.903.736l-2.824 9.636h-2.967l-2.373-8.093z" fill="#231f20"/><path d="m57.763 65.709v-2.657c-.545-.097-1.162-.143-1.827-.143-1.4 0-2.254.57-2.254 1.829 0 1.255.735 1.849 1.899 1.849.877 0 1.589-.33 2.182-.878zm-7.451-.83c0-2.611 2.041-3.798 4.912-3.798 1.045 0 1.757.094 2.539.286v-1.306c0-1.258-.687-1.852-2.159-1.852-1.495 0-2.254.571-2.872 1.116h-1.59v-2.539c1.163-.523 2.73-.95 5.15-.95 3.228 0 4.937 1.044 4.937 3.892v6.196c0 .284.308.593.594.593h.664v1.661c-.475.285-1.187.475-2.088.475-1.448 0-2.185-.571-2.492-1.568-.926 1.14-2.089 1.545-3.608 1.545-2.326 0-3.987-1.282-3.987-3.751z" fill="#231f20"/><path d="m62.921 66.517h.831c.285 0 .594-.332.594-.593v-7.167c0-.261-.309-.642-.594-.642h-.925v-2.089h4.248c.403 0 .664.358.711 1.805.831-1.02 1.804-1.923 3.442-1.923.261 0 .522.046.76.118v2.564h-.594c-1.804 0-2.896.379-3.584.76v7.167h1.733v1.97h-6.622z" fill="#231f20"/><path d="m80.94 65.591v-6.834c-.617-.286-1.472-.548-2.302-.548-1.638 0-3.11.949-3.11 4.107 0 3.417 1.401 4.271 2.825 4.271 1.092 0 1.898-.402 2.587-.996zm-8.923-3.181c0-4.7 2.943-6.574 5.363-6.574 1.733 0 2.753.642 3.56 1.614v-3.536h-1.614v-2.041h4.485c.404 0 .595.31.595.807v13.196c0 .26.308.641.593.641h.854v1.97h-4.224c-.357 0-.57-.523-.642-1.402-.807.926-2.064 1.59-3.797 1.59-2.492 0-5.173-1.492-5.173-6.265z" fill="#231f20"/><path d="m86.359 67.964v-2.799h1.994c.284.877 1.4 1.422 2.492 1.422 1.328 0 2.135-.569 2.135-1.471 0-.926-.546-1.304-2.539-1.59-2.683-.378-3.94-1.304-3.94-3.749 0-2.469 1.899-3.892 5.079-3.892 1.946 0 3.275.212 4.272.544v2.755h-1.922c-.404-.737-1.164-1.212-2.469-1.212-1.281 0-1.993.524-1.993 1.306 0 .759.451 1.21 2.563 1.519 3.014.45 4.248 1.281 4.248 3.798 0 2.445-1.637 4.035-5.411 4.035-2.254 0-3.488-.333-4.509-.666z" fill="#231f20"/></g></g></svg>