<?xml version="1.0" encoding="UTF-8" standalone="no"?>
<!DOCTYPE svg PUBLIC "-//W3C//DTD SVG 1.1//EN" "http://www.w3.org/Graphics/SVG/1.1/DTD/svg11.dtd">
<svg width="100%" height="100%" viewBox="0 0 1403 238" version="1.1" xmlns="http://www.w3.org/2000/svg" xmlns:xlink="http://www.w3.org/1999/xlink" xml:space="preserve" xmlns:serif="http://www.serif.com/" style="fill-rule:evenodd;clip-rule:evenodd;stroke-linejoin:round;stroke-miterlimit:2;">
    <g transform="matrix(2.63139,0,0,2.63139,-39.0023,-2.5e-05)">
        <g transform="matrix(0.820069,0,0,0.820069,15.9314,0.0511003)">
            <path d="M44.27,0.284L0,25.749L0,59.037L13.621,66.877L13.621,41.411L34.054,53.167L47.678,45.331L20.376,29.667L44.27,15.956L57.894,8.121L44.27,0.284Z" style="fill:rgb(210,34,41);fill-rule:nonzero;"/>
        </g>
        <g transform="matrix(0.820069,0,0,0.820069,15.9314,0.0511003)">
            <path d="M51.08,19.873L74.914,33.58L88.54,25.746L64.702,12.037L51.08,19.873ZM74.918,33.583L74.918,74.71L51.081,88.42L51.081,51.206L37.459,59.039L37.459,88.416L13.593,74.728L0,66.872L0,82.539L44.27,108L88.542,82.543L88.54,25.746L74.918,33.583Z" style="fill:white;fill-rule:nonzero;"/>
        </g>
        <g transform="matrix(1,0,0,1,0,4.1803)">
            <path d="M524.884,44.432L524.884,46.689L534.806,46.689L534.806,75.813L537.19,75.813L537.19,46.689L547.111,46.689L547.111,44.432L524.884,44.432ZM518.838,44.432L518.838,72.024L518.284,72.024L503.297,44.432L499.507,44.432L499.507,75.813L501.934,75.813L501.934,48.222L502.829,48.222L517.815,75.813L521.265,75.813L521.265,44.432L518.838,44.432ZM474.173,44.432L474.173,75.813L494.143,75.813L494.143,73.557L476.599,73.557L476.599,60.358L491.971,60.358L491.971,58.143L476.599,58.143L476.599,46.689L494.143,46.689L494.143,44.432L474.173,44.432ZM467.871,44.432L457.779,73.515L456.842,73.515L446.751,44.432L444.282,44.432L455.31,75.813L459.312,75.813L470.383,44.432L467.871,44.432ZM422.183,44.432L422.183,75.813L442.152,75.813L442.152,73.557L424.61,73.557L424.61,60.358L439.982,60.358L439.982,58.143L424.61,58.143L424.61,46.689L442.152,46.689L442.152,44.432L422.183,44.432ZM379.688,44.432L379.688,75.813L407.067,75.813L407.067,67.425L391.824,67.425L391.824,63.508L405.279,63.508L405.279,56.738L391.824,56.738L391.824,52.821L407.067,52.821L407.067,44.432L379.688,44.432ZM353.204,44.432L348.478,48.478L348.478,59.804L353.204,63.806L365.211,63.849L365.211,67.595L349.798,67.595L349.798,75.813L372.28,75.813L377.006,71.769L377.006,60.059L372.28,56.056L360.23,56.014L360.23,52.565L375.473,52.565L375.473,44.432L353.204,44.432ZM333.66,44.432L333.66,69.299L327.997,69.299L327.997,44.432L315.862,44.432L315.862,71.769L320.589,75.813L341.069,75.813L345.796,71.769L345.796,44.432L333.66,44.432ZM287.206,44.432L282.479,48.478L282.479,71.769L287.206,75.813L308.197,75.813L312.924,71.769L312.924,48.478L308.197,44.432L287.206,44.432ZM294.615,50.947L300.789,50.947L300.789,69.299L294.615,69.299L294.615,50.947ZM267.406,44.432L267.406,55.461L261.359,55.461L261.359,44.432L249.224,44.432L249.224,75.813L261.359,75.813L261.359,63.806L267.406,63.806L267.406,75.813L279.541,75.813L279.541,44.432L267.406,44.432ZM218.695,44.432L218.695,75.813L246.074,75.813L246.074,67.425L230.83,67.425L230.83,63.508L244.285,63.508L244.285,56.738L230.83,56.738L230.83,52.821L246.074,52.821L246.074,44.432L218.695,44.432ZM185.61,44.432L185.61,75.813L197.746,75.813L197.746,66.106L201.834,66.106L205.027,75.813L216.949,75.813L212.819,64.402L215.544,62.103L215.544,48.478L210.817,44.432L185.61,44.432ZM197.746,50.947L203.877,50.947L203.877,59.591L197.746,59.591L197.746,50.947ZM155.975,44.432L149.034,75.813L161.723,75.813L162.447,71.173L170.452,71.173L171.176,75.813L183.864,75.813L176.967,44.432L155.975,44.432ZM165.555,51.628L167.344,51.628L169.217,63.465L163.682,63.465L165.555,51.628ZM137.963,44.432L136.303,67.894L134.514,67.894L132.854,44.432L122.89,44.432L121.23,67.894L119.484,67.894L117.823,44.432L105.603,44.432L105.603,55.545L111.99,75.813L124.977,75.813L127.915,68.532L130.768,75.813L143.797,75.813L150.141,55.545L150.141,44.432L137.963,44.432Z" style="fill:white;fill-rule:nonzero;"/>
        </g>
        <g transform="matrix(1,0,0,1,0,4.1803)">
            <path d="M117.738,38.243L117.738,15.25L126.04,15.25L126.04,6.862L97.299,6.862L97.299,15.25L105.603,15.25L105.603,38.243L117.738,38.243ZM153.292,38.243L158.018,34.198L158.018,10.907L153.292,6.862L132.299,6.862L127.574,10.907L127.574,34.198L132.299,38.243L153.292,38.243ZM139.708,13.376L145.883,13.376L145.883,31.728L139.708,31.728L139.708,13.376ZM171.857,38.243L171.857,21.977L176.284,36.284L180.926,36.284L185.27,22.063L185.27,38.243L196.169,38.243L196.169,6.862L184.461,6.862L178.585,22.148L172.708,6.862L160.957,6.862L160.957,38.243L171.857,38.243ZM224.826,38.243L229.552,34.198L229.552,10.907L224.826,6.862L203.833,6.862L199.108,10.907L199.108,34.198L203.833,38.243L224.826,38.243ZM211.242,13.376L217.417,13.376L217.417,31.728L211.242,31.728L211.242,13.376ZM244.625,38.243L244.625,28.535L248.712,28.535L251.906,38.243L263.828,38.243L259.698,26.832L262.423,24.532L262.423,10.907L257.696,6.862L232.49,6.862L232.49,38.243L244.625,38.243ZM244.625,13.376L250.757,13.376L250.757,22.02L244.625,22.02L244.625,13.376ZM277.71,38.243L277.71,28.535L281.797,28.535L284.991,38.243L296.913,38.243L292.783,26.832L295.508,24.532L295.508,10.907L290.781,6.862L265.574,6.862L265.574,38.243L277.71,38.243ZM277.71,13.376L283.841,13.376L283.841,22.02L277.71,22.02L277.71,13.376ZM323.909,38.243L328.634,34.198L328.634,10.907L323.909,6.862L302.917,6.862L298.19,10.907L298.19,34.198L302.917,38.243L323.909,38.243ZM310.326,13.376L316.499,13.376L316.499,31.728L310.326,31.728L310.326,13.376ZM350.947,38.243L353.884,30.962L356.737,38.243L369.767,38.243L376.111,17.975L376.111,6.862L363.934,6.862L362.272,30.323L360.484,30.323L358.823,6.862L348.861,6.862L347.199,30.323L345.453,30.323L343.793,6.862L331.573,6.862L331.573,17.975L337.96,38.243L350.947,38.243ZM385.861,19.848L391.695,6.862L381.348,6.862L379.219,19.848L385.861,19.848ZM417.924,38.243L422.65,34.198L422.65,22.488L417.924,18.486L405.874,18.443L405.874,14.994L421.117,14.994L421.117,6.862L398.848,6.862L394.122,10.907L394.122,22.233L398.848,26.235L410.855,26.278L410.855,30.025L395.441,30.025L395.441,38.243L417.924,38.243Z" style="fill:rgb(210,34,41);fill-rule:nonzero;"/>
        </g>
    </g>
</svg>
