<svg width="24" height="18" xmlns="http://www.w3.org/2000/svg">

 <g>
  <title>background</title>
  <rect fill="none" id="canvas_background" height="20" width="26" y="-1" x="-1"/>
 </g>
 <g>
  <title>Layer 1</title>
  <path fill="#ffffff" id="svg_1" d="m21.988245,0.339763l-20.084576,0c-0.792224,0 -1.434619,0.641633 -1.434619,1.43462l0,14.346187c0,0.792986 0.642395,1.43462 1.434619,1.43462l20.084576,0c0.792313,0 1.434708,-0.641634 1.434708,-1.43462l0,-14.346187c0,-0.792988 -0.642395,-1.43462 -1.434708,-1.43462zm-2.869148,2.869238l-7.173096,5.738476l-7.173094,-5.738476l14.346189,0zm1.434622,11.476952l-17.21543,0l0,-10.042331l8.607713,7.173094l8.607718,-7.173094l0,10.042331z"/>
 </g>
</svg>