<svg width="24" height="24" xmlns="http://www.w3.org/2000/svg">

 <g>
  <title>background</title>
  <rect fill="none" id="canvas_background" height="26" width="26" y="-1" x="-1"/>
 </g>
 <g>
  <title>Layer 1</title>
  <path fill="#c92c33" id="svg_1" d="m0.749979,11.688538l0.004309,0l0,-0.004144l-0.004309,0.004144zm22.612274,-0.43916c0,-0.127606 -0.054688,-0.242119 -0.141525,-0.32183l-10.534543,-10.539015c-0.078054,-0.08286 -0.187596,-0.135228 -0.309731,-0.138543l0,0.015743c-0.122137,0.002983 -0.231677,0.055516 -0.309731,0.138377l-10.534541,10.538352c-0.086672,0.07938 -0.141526,0.194555 -0.141526,0.321498c0,0.243113 0.196876,0.43916 0.43916,0.43916l2.496916,0l0,2.076315l0,9.550328l5.813155,0l0,-6.706724c0,-0.246428 0.199361,-0.446783 0.445457,-0.446783l3.574763,0c0.246924,0 0.446947,0.200356 0.446947,0.446783l0,6.708048l5.817633,0l0,-9.55049l0,-2.088745l0,-0.003314l2.496916,0c0.244106,0 0.440651,-0.196381 0.440651,-0.43916m0.640842,0.454406l-0.004473,-0.004144l0,0.004144l0.004473,0z"/>
 </g>
</svg>