<svg width="30" height="28" xmlns="http://www.w3.org/2000/svg">

 <g>
  <title>background</title>
  <rect fill="none" id="canvas_background" height="30" width="32" y="-1" x="-1"/>
 </g>
 <g>
  <title>Layer 1</title>
  <path fill="#ffffff" id="svg_2" d="m23.806932,27.91317l0,-11.169918c0,0 -0.330803,-2.988024 -3.221714,-2.988024c-2.88913,0 -3.417665,2.840574 -3.417665,2.840574l0,11.317368l-5.954412,0l0.097112,-18.451159l5.760249,0l-0.046774,2.319233c0,0 1.20101,-3.031174 5.726082,-3.031174c4.523331,0 6.572872,2.599694 6.954014,7.461026c0,4.863119 0,11.702074 0,11.702074l-5.896891,0zm-19.896614,-21.072364c-2.045961,0 -3.707158,-1.463464 -3.707158,-3.272052s1.661197,-3.27568 3.707158,-3.27568s3.707156,1.467032 3.707156,3.27568s-1.661253,3.272052 -3.707156,3.272052zm3.674767,21.093938l-7.32077,0l0,-18.42596l7.32077,-0.046774l0,18.472733z"/>
 </g>
</svg>