<?xml version="1.0" encoding="UTF-8" standalone="no"?>
<!DOCTYPE svg PUBLIC "-//W3C//DTD SVG 1.1//EN" "http://www.w3.org/Graphics/SVG/1.1/DTD/svg11.dtd">
<svg width="100%" height="100%" viewBox="0 0 1600 800" version="1.1" xmlns="http://www.w3.org/2000/svg" xmlns:xlink="http://www.w3.org/1999/xlink" xml:space="preserve" xmlns:serif="http://www.serif.com/" style="fill-rule:evenodd;clip-rule:evenodd;stroke-linejoin:round;stroke-miterlimit:2;">
    <g transform="matrix(0.896926,0,0,0.896926,163.937,-25.0721)">
        <g transform="matrix(-0.652006,-4.11534,-4.11534,0.652006,671.943,174.342)">
            <path d="M-157.519,-106.537L-129.179,-106.537L-90.987,134.528L-118.633,138.908L-157.519,-106.537" style="fill:rgb(36,32,32);fill-rule:nonzero;"/>
        </g>
        <g transform="matrix(-0.65202,-4.11533,-4.11533,0.65202,1281.2,671.103)">
            <path d="M-17.921,12.686L10.419,12.686L10.834,15.305L-17.506,15.305L-17.921,12.686" style="fill:rgb(36,32,32);fill-rule:nonzero;"/>
        </g>
        <g transform="matrix(4.16667,0,0,4.16667,1222.3,194.717)">
            <path d="M0,106.027L-16.799,0L-19.451,0L-2.652,106.027L0,106.027ZM-6.624,106.027L-250.718,106.027L-250.718,0L-23.423,0L-6.624,106.027" style="fill:rgb(237,28,50);"/>
        </g>
        <g transform="matrix(4.16667,0,0,4.16667,232.931,578.575)">
            <path d="M0,-78.893L52.76,-78.893L52.76,-57.487L28.366,-57.487L28.366,-48.329L50.441,-48.329L50.441,-28.137L28.366,-28.137L28.366,0L0,0L0,-78.893" style="fill:white;fill-rule:nonzero;"/>
        </g>
        <g transform="matrix(4.16667,0,0,4.16667,471.152,371.229)">
            <path d="M0,20.964C7.616,26.15 13.797,29.129 19.758,29.129C23.84,29.129 26.049,27.585 26.049,25.047C26.049,21.406 22.074,20.964 15.563,19.529C2.097,16.661 -4.746,9.268 -4.746,-2.208C-4.746,-18.758 8.168,-30.895 28.256,-30.895C37.306,-30.895 45.806,-28.578 54.855,-23.723L46.247,-3.09C40.727,-7.172 34.988,-9.269 30.022,-9.269C26.049,-9.269 23.84,-7.835 23.84,-5.517C23.84,-1.655 29.139,-1.104 38.522,0.993C49.006,3.31 56.07,11.144 56.07,22.178C56.07,39.06 42.605,51.859 21.965,51.859C11.589,51.859 1.104,48.88 -9.051,43.032L0,20.964" style="fill:white;fill-rule:nonzero;"/>
        </g>
        <g transform="matrix(4.16667,0,0,4.16667,1000.49,379.963)">
            <path d="M0,16.441C-0.331,13.241 -0.662,8.386 -1.214,1.987C-2.098,7.724 -3.423,12.8 -4.747,17.324L-13.797,47.667L-30.684,47.667L-39.736,17.324C-41.06,12.8 -42.384,7.724 -43.267,1.987C-43.709,7.393 -44.04,12.248 -44.481,16.441L-47.903,47.667L-75.718,47.667L-62.252,-31.226L-33.003,-31.226L-27.374,-11.695C-25.828,-6.4 -23.4,0.993 -22.186,11.366L-21.745,11.366C-20.309,0.883 -17.882,-6.731 -16.336,-12.027L-10.486,-31.226L18.763,-31.226L31.235,47.667L3.421,47.667L0,16.441" style="fill:white;fill-rule:nonzero;"/>
        </g>
        <g transform="matrix(4.16667,0,0,4.16667,238.585,723.89)">
            <path d="M0,-13.956L0,-7.8L5.024,-7.8L5.024,-6.64L0,-6.64L0,1.16L-1.377,1.16L-1.377,-15.116L5.411,-15.116L5.411,-13.956L0,-13.956" style="fill:white;fill-rule:nonzero;"/>
        </g>
        <g transform="matrix(4.16667,0,0,4.16667,-88.1104,-2224.36)">
            <rect x="88.089" y="692.464" width="1.377" height="16.275" style="fill:white;"/>
        </g>
        <g transform="matrix(4.16667,0,0,4.16667,321.994,723.89)">
            <path d="M0,-13.98C-0.749,-13.98 -1.57,-13.956 -2.27,-13.933L-2.27,-7.92L0.073,-7.92C2.657,-7.92 3.623,-9.224 3.623,-11.012C3.623,-12.846 2.923,-13.98 0,-13.98ZM4.131,1.159L0.121,-6.785L-2.27,-6.785L-2.27,1.159L-3.647,1.159L-3.647,-15.092C-2.391,-15.14 -1.063,-15.14 0.073,-15.14C3.744,-15.14 5.048,-13.594 5.048,-11.107C5.048,-8.934 3.769,-7.34 1.497,-7.002L5.724,1.159L4.131,1.159" style="fill:white;fill-rule:nonzero;"/>
        </g>
        <g transform="matrix(4.16667,0,0,4.16667,363.035,660.908)">
            <path d="M0,16.275L0,0L7.125,0L7.125,1.159L1.377,1.159L1.377,7.292L6.594,7.292L6.594,8.451L1.377,8.451L1.377,15.115L7.198,15.115L7.198,16.275L0,16.275" style="fill:white;fill-rule:nonzero;"/>
        </g>
        <g transform="matrix(4.16667,0,0,4.16667,451.277,660.504)">
            <path d="M0,16.468C-1.208,16.468 -2.657,16.129 -3.937,15.381L-3.478,14.342C-2.391,14.898 -1.304,15.285 -0.024,15.285C2.15,15.285 3.285,14.15 3.285,12.315C3.285,8.161 -4.106,8.693 -4.106,3.96C-4.106,1.666 -2.512,0 0.314,0C1.619,0 3.02,0.386 4.059,0.989L3.575,1.955C2.705,1.545 1.449,1.159 0.338,1.159C-1.715,1.159 -2.754,2.27 -2.754,3.815C-2.754,7.727 4.662,7.147 4.662,12.146C4.662,14.826 2.923,16.468 0,16.468" style="fill:white;fill-rule:nonzero;"/>
        </g>
        <g transform="matrix(4.16667,0,0,4.16667,505.406,722.584)">
            <path d="M0,-13.33L-0.024,-13.33L-2.85,-3.43L2.875,-3.43L0,-13.33ZM4.251,1.473L3.164,-2.295L-3.164,-2.295L-4.227,1.473L-5.627,1.473L-0.821,-14.803L0.942,-14.803L5.725,1.473L4.251,1.473" style="fill:white;fill-rule:nonzero;"/>
        </g>
        <g transform="matrix(4.16667,0,0,4.16667,550.677,723.89)">
            <path d="M0,-13.956L0,-7.8L5.024,-7.8L5.024,-6.64L0,-6.64L0,1.16L-1.377,1.16L-1.377,-15.116L5.411,-15.116L5.411,-13.956L0,-13.956" style="fill:white;fill-rule:nonzero;"/>
        </g>
        <g transform="matrix(4.16667,0,0,4.16667,591.019,660.908)">
            <path d="M0,16.275L0,0L7.126,0L7.126,1.159L1.377,1.159L1.377,7.292L6.595,7.292L6.595,8.451L1.377,8.451L1.377,15.115L7.199,15.115L7.199,16.275L0,16.275" style="fill:white;fill-rule:nonzero;"/>
        </g>
        <g transform="matrix(4.16667,0,0,4.16667,654.11,723.792)">
            <path d="M0,-13.91L0,1.183L-1.353,1.183L-1.353,-13.91L-5.508,-13.91L-5.508,-15.093L4.178,-15.093L4.178,-13.91L0,-13.91" style="fill:white;fill-rule:nonzero;"/>
        </g>
        <g transform="matrix(4.16667,0,0,4.16667,703.31,690.085)">
            <path d="M0,2.27L0,9.273L-1.328,9.273L-1.328,2.27L-6.015,-7.003L-4.445,-7.003L-2.343,-2.704L-0.629,0.869L0.893,-2.367L3.14,-7.003L4.661,-7.003L0,2.27" style="fill:white;fill-rule:nonzero;"/>
        </g>
        <g transform="matrix(4.16667,0,0,4.16667,818.827,660.908)">
            <path d="M0,16.275L-1.015,1.231L-1.039,1.231L-5.749,16.275L-6.715,16.275L-11.425,1.231L-11.449,1.231L-12.463,16.275L-13.768,16.275L-12.609,0L-10.411,0L-6.208,13.522L-6.184,13.522L-1.98,0L0.217,0L1.353,16.275L0,16.275" style="fill:white;fill-rule:nonzero;"/>
        </g>
        <g transform="matrix(4.16667,0,0,4.16667,861.269,722.584)">
            <path d="M0,-13.33L-0.024,-13.33L-2.85,-3.43L2.875,-3.43L0,-13.33ZM4.251,1.473L3.165,-2.295L-3.164,-2.295L-4.227,1.473L-5.627,1.473L-0.821,-14.803L0.943,-14.803L5.725,1.473L4.251,1.473" style="fill:white;fill-rule:nonzero;"/>
        </g>
        <g transform="matrix(4.16667,0,0,4.16667,916.002,723.792)">
            <path d="M0,-13.91L0,1.183L-1.352,1.183L-1.352,-13.91L-5.507,-13.91L-5.507,-15.093L4.179,-15.093L4.179,-13.91L0,-13.91" style="fill:white;fill-rule:nonzero;"/>
        </g>
        <g transform="matrix(4.16667,0,0,4.16667,962.89,723.792)">
            <path d="M0,-13.91L0,1.183L-1.353,1.183L-1.353,-13.91L-5.508,-13.91L-5.508,-15.093L4.177,-15.093L4.177,-13.91L0,-13.91" style="fill:white;fill-rule:nonzero;"/>
        </g>
        <g transform="matrix(4.16667,0,0,4.16667,994.573,660.908)">
            <path d="M0,16.275L0,0L7.126,0L7.126,1.159L1.377,1.159L1.377,7.292L6.595,7.292L6.595,8.451L1.377,8.451L1.377,15.115L7.198,15.115L7.198,16.275L0,16.275" style="fill:white;fill-rule:nonzero;"/>
        </g>
        <g transform="matrix(4.16667,0,0,4.16667,1057.66,723.89)">
            <path d="M0,-13.98C-0.749,-13.98 -1.571,-13.956 -2.271,-13.933L-2.271,-7.92L0.072,-7.92C2.657,-7.92 3.623,-9.224 3.623,-11.012C3.623,-12.846 2.923,-13.98 0,-13.98ZM4.131,1.159L0.121,-6.785L-2.271,-6.785L-2.271,1.159L-3.647,1.159L-3.647,-15.092C-2.392,-15.14 -1.063,-15.14 0.072,-15.14C3.744,-15.14 5.047,-13.594 5.047,-11.107C5.047,-8.934 3.768,-7.34 1.498,-7.002L5.725,1.159L4.131,1.159" style="fill:white;fill-rule:nonzero;"/>
        </g>
        <g transform="matrix(4.16667,0,0,4.16667,1112.49,660.504)">
            <path d="M0,16.468C-1.208,16.468 -2.657,16.129 -3.937,15.381L-3.478,14.342C-2.391,14.898 -1.304,15.285 -0.024,15.285C2.151,15.285 3.285,14.15 3.285,12.315C3.285,8.161 -4.106,8.693 -4.106,3.96C-4.106,1.666 -2.512,0 0.314,0C1.618,0 3.02,0.386 4.058,0.989L3.575,1.955C2.705,1.545 1.449,1.159 0.339,1.159C-1.715,1.159 -2.754,2.27 -2.754,3.815C-2.754,7.727 4.662,7.147 4.662,12.146C4.662,14.826 2.923,16.468 0,16.468" style="fill:white;fill-rule:nonzero;"/>
        </g>
    </g>
</svg>
