<?xml version="1.0" encoding="UTF-8" standalone="no"?>
<!DOCTYPE svg PUBLIC "-//W3C//DTD SVG 1.1//EN" "http://www.w3.org/Graphics/SVG/1.1/DTD/svg11.dtd">
<svg width="100%" height="100%" viewBox="0 0 1600 800" version="1.1" xmlns="http://www.w3.org/2000/svg" xmlns:xlink="http://www.w3.org/1999/xlink" xml:space="preserve" xmlns:serif="http://www.serif.com/" style="fill-rule:evenodd;clip-rule:evenodd;stroke-linejoin:round;stroke-miterlimit:2;">
    <g id="ipe">
        <g transform="matrix(902.733,0,0,-902.733,345.778,397.454)">
            <path d="M0.666,0.249L1,0.249L1,0.113L0.848,0.113L0.848,0.065L1,0.065L1,-0.064L0.848,-0.064L0.848,-0.113L1,-0.113L1,-0.196L0.947,-0.249L0.666,-0.249L0.666,0.249ZM0.401,0.026L0.419,0.026C0.451,0.026 0.485,0.032 0.485,0.072C0.485,0.111 0.448,0.113 0.418,0.113L0.401,0.113L0.401,0.026ZM0.227,0.249L0.456,0.249C0.572,0.249 0.658,0.189 0.658,0.066C0.658,-0.036 0.594,-0.099 0.493,-0.099L0.401,-0.099L0.401,-0.196L0.349,-0.249L0.227,-0.249L0.227,0.249ZM0,0.249L0.181,0.249L0.181,-0.197L0.128,-0.249L0.001,-0.249L0,0.249Z" style="fill:url(#_Linear1);fill-rule:nonzero;"/>
        </g>
        <g transform="matrix(4.5497,0,0,4.5497,782.099,489.372)">
            <path d="M0,6.575C-3.965,1.346 -5.243,-2.241 -6.453,-2.241C-8.202,-2.241 -11.362,0.524 -11.362,5.305C-11.362,9.415 -9.209,14.494 -5.243,18.752C-0.941,23.31 3.698,25.627 8.203,25.627C11.43,25.627 14.053,24.729 16.609,22.637C9.953,17.407 4.372,12.327 0,6.575ZM2.758,30.257C-9.613,30.257 -17.412,22.188 -17.412,12.103C-17.412,4.932 -13.379,-2.016 -6.924,-4.707C-7.932,-7.172 -8.403,-9.413 -8.403,-11.803C-8.403,-18.676 -3.831,-23.682 2.354,-23.682C7.331,-23.682 10.355,-21.066 12.373,-21.066C13.314,-21.066 13.986,-21.964 14.591,-21.964C14.928,-21.964 15.332,-21.515 15.332,-20.992C15.332,-20.096 15.196,-19.348 15.196,-18.676C15.196,-12.998 16.07,-10.011 16.07,-8.965C16.07,-8.142 15.736,-7.768 14.995,-7.768C13.582,-7.768 14.257,-9.336 12.842,-12.625C10.692,-17.704 6.657,-20.844 2.825,-20.844C0.136,-20.844 -2.016,-18.602 -2.016,-15.986C-2.016,-8.965 5.716,2.765 21.851,16.362C23.667,14.121 24.272,11.805 24.272,8.593C24.272,4.633 23.264,2.69 21.047,2.169C18.29,1.57 16.677,1.869 16.677,0.374C16.677,-0.447 17.348,-0.896 18.624,-0.896C20.979,-0.896 23.13,-0.521 25.08,-0.521C26.898,-0.521 28.577,-0.822 30.123,-0.822C30.997,-0.822 31.265,-0.671 31.265,0.3C31.265,2.169 28.981,0.824 28.507,4.185C28.039,7.621 28.104,12.401 24.005,18.155C28.375,22.263 31.198,24.729 33.687,24.729C34.899,24.729 35.838,24.131 36.643,24.131C37.317,24.131 37.653,24.58 37.653,25.177C37.653,26.97 33.819,30.107 29.248,30.107C26.021,30.107 23.13,27.866 18.961,24.505C14.524,28.167 8.608,30.257 2.758,30.257" style="fill:rgb(167,168,172);fill-rule:nonzero;"/>
        </g>
        <g transform="matrix(4.5497,0,0,4.5497,87.8418,-2783.86)">
            <rect x="63.589" y="741.026" width="22.203" height="2.65" style="fill:white;"/>
        </g>
        <g transform="matrix(4.5497,0,0,4.5497,407.162,543.938)">
            <path d="M0,4.771L7.45,4.373L15.607,4.373L15.607,7.023L-6.596,7.023L-6.596,4.478L10.277,-0.186L10.218,-0.238L1.325,0.398L-6.596,0.398L-6.596,-2.253L15.607,-2.253L15.607,0.212L-1.502,4.876L-1.443,4.929L0,4.771" style="fill:white;fill-rule:nonzero;"/>
        </g>
        <g transform="matrix(4.5497,0,0,4.5497,388.536,490.166)">
            <path d="M0,4.346L17.197,4.346C17.344,-0.027 12.751,0.158 8.982,0.158C5.566,0.158 -0.294,-0.133 0,4.346ZM-2.503,4.028C-2.503,0.901 -2.267,-2.651 8.982,-2.651C19.229,-2.651 19.7,0.423 19.7,5.167L19.7,6.996L-2.503,6.996L-2.503,4.028" style="fill:white;fill-rule:nonzero;"/>
        </g>
        <g transform="matrix(4.5497,0,0,4.5497,377.153,439.044)">
            <path d="M0,3.895L16.285,3.895C19.141,3.895 19.73,3.127 19.73,2.04C19.73,0.212 18.434,0.053 16.608,0.026L0,0.026L0,-2.624L15.755,-2.624C18.67,-2.624 22.498,-2.651 22.498,1.961C22.498,6.174 19.317,6.545 15.313,6.545L0,6.545L0,3.895" style="fill:white;fill-rule:nonzero;"/>
        </g>
        <g transform="matrix(4.5497,0,0,4.5497,392.69,416.131)">
            <path d="M0,-6.282C-0.559,-5.592 -0.942,-4.93 -0.942,-4.029C-0.942,-2.571 0.383,-1.67 1.914,-1.67C2.886,-1.67 3.563,-1.882 4.329,-2.412L6.773,-4.427C8.805,-6.228 10.278,-7.262 13.281,-7.262C16.402,-7.262 19.082,-5.513 19.082,-2.571C19.082,-1.538 18.758,-0.478 18.021,0.344L15.047,0.344C15.696,-0.452 16.196,-1.246 16.196,-2.279C16.196,-3.923 14.753,-4.612 13.104,-4.612C8.687,-4.612 7.803,0.98 1.973,0.98C-1.148,0.98 -3.71,-0.504 -3.71,-3.499C-3.71,-4.506 -3.534,-5.46 -2.974,-6.308L0,-6.282" style="fill:white;fill-rule:nonzero;"/>
        </g>
        <g transform="matrix(4.5497,0,0,4.5497,377.153,383.697)">
            <path d="M0,-8.773L2.562,-8.773L2.562,-5.778L22.203,-5.778L22.203,-3.127L2.562,-3.127L2.562,0L0,0L0,-8.773" style="fill:white;fill-rule:nonzero;"/>
        </g>
        <g transform="matrix(4.5497,0,0,4.5497,405.957,322.923)">
            <path d="M0,-1.589C-2.12,-1.589 -3.887,-1.351 -3.828,0.663L-3.828,1.087L3.505,1.087C3.652,-0.901 2.238,-1.589 0,-1.589ZM-6.331,3.737L-6.331,0.557C-6.331,-1.377 -6.213,-4.399 -0.648,-4.399C1.443,-4.399 4.623,-3.842 5.065,-1.643L15.872,-5.326L15.872,-2.57L5.006,1.034L5.006,1.087L15.872,1.087L15.872,3.737L-6.331,3.737" style="fill:white;fill-rule:nonzero;"/>
        </g>
        <g transform="matrix(4.5497,0,0,4.5497,87.8418,-3397.58)">
            <rect x="63.589" y="808.472" width="22.203" height="2.65" style="fill:white;"/>
        </g>
        <g transform="matrix(4.5497,0,0,4.5497,433.423,256.13)">
            <path d="M0,-2.041L-8.069,-1.033L-8.069,-0.981L3.209,0.609L3.209,-2.571L0,-2.041ZM-12.368,-2.094L9.835,-6.387L9.835,-3.71L5.506,-2.968L5.506,1.007L9.835,1.749L9.835,4.346L-12.368,-0L-12.368,-2.094" style="fill:white;fill-rule:nonzero;"/>
        </g>
        <g transform="matrix(4.5497,0,0,4.5497,377.153,201.87)">
            <path d="M0,1.802L19.642,1.802L19.642,-2.65L22.203,-2.65L22.203,4.452L0,4.452L0,1.802" style="fill:white;fill-rule:nonzero;"/>
        </g>
        <g transform="matrix(4.5497,0,0,4.5497,589.737,573.066)">
            <path d="M0,3.136L7.362,3.136C7.539,0.811 6.155,0.162 3.681,0.162C1.679,0.162 0,0.703 0,2.758L0,3.136ZM19.7,5.841L-2.503,5.841L-2.503,2.596C-2.503,0.271 -2.267,-2.704 3.446,-2.704C7.951,-2.704 10.042,-1.081 9.865,3.136L19.7,3.136L19.7,5.841" style="fill:white;fill-rule:nonzero;"/>
        </g>
        <g transform="matrix(4.5497,0,0,4.5497,578.35,533.326)">
            <path d="M0,1.84L19.641,1.84L19.641,-2.703L22.203,-2.703L22.203,4.543L0,4.543L0,1.84" style="fill:white;fill-rule:nonzero;"/>
        </g>
        <g transform="matrix(4.5497,0,0,4.5497,634.62,502.208)">
            <path d="M0,-2.082L-8.069,-1.055L-8.069,-1.001L3.209,0.622L3.209,-2.623L0,-2.082ZM-12.368,-2.136L9.835,-6.517L9.835,-3.787L5.506,-3.029L5.506,1.028L9.835,1.784L9.835,4.435L-12.368,0L-12.368,-2.136" style="fill:white;fill-rule:nonzero;"/>
        </g>
        <g transform="matrix(4.5497,0,0,4.5497,608.359,433.926)">
            <path d="M0,4.869L7.45,4.463L15.607,4.463L15.607,7.166L-6.596,7.166L-6.596,4.571L10.277,-0.189L10.218,-0.243L1.325,0.406L-6.596,0.406L-6.596,-2.298L15.607,-2.298L15.607,0.217L-1.502,4.976L-1.443,5.03L0,4.869" style="fill:white;fill-rule:nonzero;"/>
        </g>
        <g transform="matrix(4.5497,0,0,4.5497,578.35,418.55)">
            <path d="M0,-8.951L2.562,-8.951L2.562,-5.895L22.203,-5.895L22.203,-3.191L2.562,-3.191L2.562,0L0,0L0,-8.951" style="fill:white;fill-rule:nonzero;"/>
        </g>
        <g transform="matrix(4.5497,0,0,4.5497,634.62,326.171)">
            <path d="M0,-2.081L-8.069,-1.054L-8.069,-1L3.209,0.623L3.209,-2.623L0,-2.081ZM-12.368,-2.136L9.835,-6.517L9.835,-3.785L5.506,-3.028L5.506,1.028L9.835,1.785L9.835,4.435L-12.368,0L-12.368,-2.136" style="fill:white;fill-rule:nonzero;"/>
        </g>
        <g transform="matrix(4.5497,0,0,4.5497,608.359,257.893)">
            <path d="M0,4.867L7.45,4.462L15.607,4.462L15.607,7.165L-6.596,7.165L-6.596,4.57L10.277,-0.189L10.218,-0.244L1.325,0.405L-6.596,0.405L-6.596,-2.299L15.607,-2.299L15.607,0.216L-1.502,4.975L-1.443,5.03L0,4.867" style="fill:white;fill-rule:nonzero;"/>
        </g>
        <g transform="matrix(4.5497,0,0,4.5497,589.737,202.039)">
            <path d="M0,4.434L17.197,4.434C17.345,-0.027 12.751,0.162 8.982,0.162C5.566,0.162 -0.294,-0.135 0,4.434ZM-2.503,4.11C-2.503,0.919 -2.267,-2.704 8.982,-2.704C19.23,-2.704 19.7,0.433 19.7,5.273L19.7,7.139L-2.503,7.139L-2.503,4.11" style="fill:white;fill-rule:nonzero;"/>
        </g>
        <g transform="matrix(4.5497,0,0,4.5497,978.323,599.646)">
            <path d="M0,-7.247L2.561,-7.247L2.561,-2.694L9.54,-2.694L9.54,-6.762L12.103,-6.762L12.103,-2.694L19.64,-2.694L19.64,-7.247L22.202,-7.247L22.202,0L0,0L0,-7.247" style="fill:white;fill-rule:nonzero;"/>
        </g>
        <g transform="matrix(4.5497,0,0,4.5497,1028.83,524.625)">
            <path d="M0,5.472C4.71,5.472 8.628,5.174 8.628,3.046C8.628,2.561 8.48,2.21 8.158,1.942L5.478,3.639L4.063,1.995L5.654,0.971L5.654,0.918C3.859,0.756 1.943,0.622 0,0.622C-4.71,0.622 -8.628,0.918 -8.628,3.046C-8.628,5.174 -4.71,5.472 0,5.472ZM12.809,-1.103L10.483,0.325C11.16,1.079 11.396,1.968 11.396,3.046C11.396,8.272 4.005,8.326 0,8.326C-4.004,8.326 -11.396,8.272 -11.396,3.046C-11.396,-2.181 -4.004,-2.234 0,-2.234C2.532,-2.234 6.183,-2.126 8.687,-1.021L11.454,-2.854L12.809,-1.103" style="fill:white;fill-rule:nonzero;"/>
        </g>
        <g transform="matrix(4.5497,0,0,4.5497,978.323,474.257)">
            <path d="M0,3.96L16.284,3.96C19.14,3.96 19.729,3.18 19.729,2.074C19.729,0.216 18.433,0.054 16.607,0.028L0,0.028L0,-2.667L15.753,-2.667C18.667,-2.667 22.496,-2.694 22.496,1.994C22.496,6.277 19.317,6.654 15.313,6.654L0,6.654L0,3.96" style="fill:white;fill-rule:nonzero;"/>
        </g>
        <g transform="matrix(4.5497,0,0,4.5497,87.8418,-3082.63)">
            <rect x="195.723" y="773.838" width="22.202" height="2.694" style="fill:white;"/>
        </g>
        <g transform="matrix(4.5497,0,0,4.5497,989.711,399.742)">
            <path d="M0,3.124L7.36,3.124C7.537,0.808 6.153,0.161 3.68,0.161C1.678,0.161 0,0.7 0,2.748L0,3.124ZM19.699,5.818L-2.503,5.818L-2.503,2.587C-2.503,0.27 -2.269,-2.694 3.444,-2.694C7.95,-2.694 10.04,-1.077 9.863,3.124L19.699,3.124L19.699,5.818" style="fill:white;fill-rule:nonzero;"/>
        </g>
        <g transform="matrix(4.5497,0,0,4.5497,978.323,341.522)">
            <path d="M0,5.846L16.018,2.964L16.018,2.909L15.106,2.829L9.776,2.021L0,0.27L0,-2.102L22.202,-3.987L22.202,-1.347L13.927,-0.862L9.804,-0.701L6.889,-0.646L6.889,-0.592L10.07,-0.135L22.202,1.967L22.202,3.826L6.889,6.438L6.889,6.492L22.202,7.274L22.202,9.833L0,8.162L0,5.846" style="fill:white;fill-rule:nonzero;"/>
        </g>
        <g transform="matrix(4.5497,0,0,4.5497,978.323,316.029)">
            <path d="M0,-7.247L2.561,-7.247L2.561,-2.694L9.54,-2.694L9.54,-6.762L12.103,-6.762L12.103,-2.694L19.64,-2.694L19.64,-7.247L22.202,-7.247L22.202,0L0,0L0,-7.247" style="fill:white;fill-rule:nonzero;"/>
        </g>
        <g transform="matrix(4.5497,0,0,4.5497,1008.33,244.081)">
            <path d="M0,4.85L7.452,4.445L15.608,4.445L15.608,7.14L-6.595,7.14L-6.595,4.553L10.278,-0.188L10.219,-0.242L1.325,0.405L-6.595,0.405L-6.595,-2.29L15.608,-2.29L15.608,0.216L-1.501,4.957L-1.442,5.011L0,4.85" style="fill:white;fill-rule:nonzero;"/>
        </g>
        <g transform="matrix(4.5497,0,0,4.5497,978.323,229.744)">
            <path d="M0,-8.917L2.561,-8.917L2.561,-5.873L22.202,-5.873L22.202,-3.179L2.561,-3.179L2.561,0L0,0L0,-8.917" style="fill:white;fill-rule:nonzero;"/>
        </g>
    </g>
    <defs>
        <linearGradient id="_Linear1" x1="0" y1="0" x2="1" y2="0" gradientUnits="userSpaceOnUse" gradientTransform="matrix(1,0,0,-1,0,4.922e-06)"><stop offset="0" style="stop-color:rgb(138,23,26);stop-opacity:1"/><stop offset="1" style="stop-color:rgb(237,33,39);stop-opacity:1"/></linearGradient>
    </defs>
</svg>
