<?xml version="1.0" encoding="UTF-8" standalone="no"?>
<!DOCTYPE svg PUBLIC "-//W3C//DTD SVG 1.1//EN" "http://www.w3.org/Graphics/SVG/1.1/DTD/svg11.dtd">
<svg width="100%" height="100%" viewBox="0 0 1600 800" version="1.1" xmlns="http://www.w3.org/2000/svg" xmlns:xlink="http://www.w3.org/1999/xlink" xml:space="preserve" xmlns:serif="http://www.serif.com/" style="fill-rule:evenodd;clip-rule:evenodd;stroke-linejoin:round;stroke-miterlimit:2;">
    <g id="sm" transform="matrix(0.909936,0,0,0.909684,72.0515,36.1262)">
        <g transform="matrix(2.65342,0,0,2.65342,118.427,533.246)">
            <path d="M0,9.622L0,-0.018L3.077,-0.018L3.077,-2.279L-6.324,-2.279L-6.324,-0.018L-3.264,-0.018L-3.264,9.622L0,9.622ZM6.953,-0.681C6.953,-2.04 6.766,-2.279 5.831,-2.279L3.893,-2.279L3.893,9.622L6.953,9.622L6.953,3.161C7.378,3.025 7.871,2.873 8.432,2.873C9.163,2.873 9.486,3.076 9.486,3.858L9.486,9.622L12.546,9.622L12.546,3.059C12.546,1.07 11.458,0.526 10.115,0.526C8.84,0.526 7.735,1.053 6.953,1.699L6.953,-0.681ZM22.066,5.813C22.066,5.712 22.1,5.388 22.1,5.031C22.1,2.006 20.672,0.526 17.884,0.526C15.181,0.526 13.311,2.328 13.311,5.201C13.311,8.023 14.926,9.758 18.037,9.758C19.907,9.758 20.961,9.315 21.743,8.874L21.743,7.054L20.791,7.054C20.264,7.428 19.516,7.717 18.513,7.717C17.272,7.717 16.558,7.326 16.405,5.813L22.066,5.813ZM17.884,2.396C18.7,2.396 19.159,2.839 19.21,4.216L16.422,4.216C16.592,2.754 17.187,2.396 17.884,2.396M29.24,-2.279L25.959,-2.279L25.959,9.622L29.24,9.622L29.24,-2.279ZM32.843,0.663L30.718,0.663L30.718,9.622L33.778,9.622L33.778,3.161C34.203,3.025 34.696,2.873 35.257,2.873C35.988,2.873 36.311,3.076 36.311,3.858L36.311,9.622L39.371,9.622L39.371,3.059C39.371,1.07 38.283,0.526 36.94,0.526C35.631,0.526 34.509,1.088 33.71,1.751C33.591,0.849 33.319,0.663 32.843,0.663M47.14,9.622L49.299,9.622L49.299,-0.681C49.299,-2.024 49.129,-2.279 48.177,-2.279L46.239,-2.279L46.239,1.377C45.695,0.849 45.049,0.526 43.91,0.526C42.125,0.526 40.187,1.733 40.187,5.269C40.187,8.346 41.734,9.774 43.757,9.774C44.981,9.774 45.797,9.281 46.341,8.686C46.477,9.434 46.732,9.622 47.14,9.622M44.828,7.752C43.808,7.752 43.281,7.071 43.281,5.201C43.281,3.229 44.131,2.804 45.032,2.804C45.525,2.804 45.916,2.906 46.239,3.11L46.239,7.208C45.78,7.582 45.389,7.752 44.828,7.752M58.87,5.813C58.87,5.712 58.904,5.388 58.904,5.031C58.904,2.006 57.476,0.526 54.688,0.526C51.985,0.526 50.115,2.328 50.115,5.201C50.115,8.023 51.73,9.758 54.841,9.758C56.711,9.758 57.765,9.315 58.547,8.874L58.547,7.054L57.595,7.054C57.068,7.428 56.32,7.717 55.317,7.717C54.076,7.717 53.362,7.326 53.209,5.813L58.87,5.813ZM54.688,2.396C55.504,2.396 55.963,2.839 56.014,4.216L53.226,4.216C53.396,2.754 53.991,2.396 54.688,2.396M64.973,9.536C66.962,9.536 68.832,8.312 68.832,4.895C68.832,1.632 67.149,0.526 65.449,0.526C64.225,0.526 63.358,1.003 62.695,1.632C62.576,0.833 62.304,0.663 61.845,0.663L59.72,0.663L59.72,12.376L62.78,12.376L62.78,8.907C63.307,9.315 64.004,9.536 64.973,9.536M64.072,2.804C64.99,2.804 65.738,3.247 65.738,5.168C65.738,7.139 64.956,7.564 64.021,7.564C63.511,7.564 63.12,7.445 62.78,7.208L62.78,3.093C63.188,2.924 63.698,2.804 64.072,2.804M77.978,5.813C77.978,5.712 78.012,5.388 78.012,5.031C78.012,2.006 76.584,0.526 73.796,0.526C71.093,0.526 69.223,2.328 69.223,5.201C69.223,8.023 70.838,9.758 73.949,9.758C75.819,9.758 76.873,9.315 77.655,8.874L77.655,7.054L76.703,7.054C76.176,7.428 75.428,7.717 74.425,7.717C73.184,7.717 72.47,7.326 72.317,5.813L77.978,5.813ZM73.796,2.396C74.612,2.396 75.071,2.839 75.122,4.216L72.334,4.216C72.504,2.754 73.099,2.396 73.796,2.396M80.953,0.663L78.828,0.663L78.828,9.622L81.888,9.622L81.888,3.161C82.313,3.025 82.806,2.873 83.367,2.873C84.098,2.873 84.421,3.076 84.421,3.858L84.421,9.622L87.481,9.622L87.481,3.059C87.481,1.07 86.393,0.526 85.05,0.526C83.741,0.526 82.619,1.088 81.82,1.751C81.701,0.849 81.429,0.663 80.953,0.663M95.25,9.622L97.409,9.622L97.409,-0.681C97.409,-2.024 97.238,-2.279 96.287,-2.279L94.349,-2.279L94.349,1.377C93.805,0.849 93.159,0.526 92.02,0.526C90.235,0.526 88.297,1.733 88.297,5.269C88.297,8.346 89.844,9.774 91.867,9.774C93.091,9.774 93.907,9.281 94.451,8.686C94.587,9.434 94.841,9.622 95.25,9.622M92.938,7.752C91.918,7.752 91.391,7.071 91.391,5.201C91.391,3.229 92.241,2.804 93.142,2.804C93.634,2.804 94.026,2.906 94.349,3.11L94.349,7.208C93.89,7.582 93.499,7.752 92.938,7.752M106.98,5.813C106.98,5.712 107.014,5.388 107.014,5.031C107.014,2.006 105.586,0.526 102.798,0.526C100.095,0.526 98.225,2.328 98.225,5.201C98.225,8.023 99.84,9.758 102.951,9.758C104.82,9.758 105.875,9.315 106.657,8.874L106.657,7.054L105.705,7.054C105.178,7.428 104.43,7.717 103.427,7.717C102.186,7.717 101.472,7.326 101.319,5.813L106.98,5.813ZM102.798,2.396C103.613,2.396 104.073,2.839 104.124,4.216L101.336,4.216C101.506,2.754 102.101,2.396 102.798,2.396M109.954,0.663L107.829,0.663L107.829,9.622L110.889,9.622L110.889,3.161C111.314,3.025 111.807,2.873 112.368,2.873C113.099,2.873 113.422,3.076 113.422,3.858L113.422,9.622L116.482,9.622L116.482,3.059C116.482,1.07 115.394,0.526 114.05,0.526C112.742,0.526 111.62,1.088 110.82,1.751C110.702,0.849 110.43,0.663 109.954,0.663M117.111,2.634L118.08,2.634L118.08,7.174C118.08,9.129 119.253,9.774 121.089,9.774C121.854,9.774 122.432,9.655 122.84,9.536L122.84,7.768L122.245,7.768C121.445,7.768 121.14,7.513 121.14,6.715L121.14,2.634L122.806,2.634L122.806,0.663L121.14,0.663L121.14,-1.616L118.08,-1.616L118.08,0.663L117.111,0.663L117.111,2.634ZM129.742,9.622L133.244,9.622L137.018,-1.514L137.018,-2.279L134.28,-2.279L131.714,5.882L131.68,5.882L129.147,-2.279L125.967,-2.279L125.967,-1.514L129.742,9.622ZM140.996,9.758C143.682,9.758 145.756,8.041 145.756,5.184C145.756,2.311 143.682,0.526 140.996,0.526C138.293,0.526 136.218,2.311 136.218,5.184C136.218,8.041 138.293,9.758 140.996,9.758M140.996,7.752C139.993,7.752 139.313,6.986 139.313,5.218C139.313,3.433 139.993,2.617 140.996,2.617C141.982,2.617 142.662,3.433 142.662,5.218C142.662,6.986 141.982,7.752 140.996,7.752M149.632,9.622L149.632,2.38C149.632,0.968 149.479,0.663 148.561,0.663L146.589,0.663L146.589,9.622L149.632,9.622ZM148.119,0.118C149.037,0.118 149.7,-0.477 149.7,-1.31C149.7,-2.143 149.037,-2.754 148.119,-2.754C147.217,-2.754 146.538,-2.143 146.538,-1.31C146.538,-0.477 147.217,0.118 148.119,0.118M155.258,9.758C156.721,9.758 157.741,9.315 158.319,8.941L158.319,7.02L157.299,7.02C156.924,7.343 156.432,7.649 155.514,7.649C154.341,7.649 153.592,6.901 153.592,5.201C153.592,3.502 154.409,2.685 155.582,2.685C156.313,2.685 156.857,2.958 157.18,3.247L158.285,3.247L158.285,1.155C157.69,0.833 156.755,0.526 155.445,0.526C152.522,0.526 150.482,2.26 150.482,5.168C150.482,8.126 152.267,9.758 155.258,9.758M167.447,5.813C167.447,5.712 167.482,5.388 167.482,5.031C167.482,2.006 166.054,0.526 163.266,0.526C160.563,0.526 158.693,2.328 158.693,5.201C158.693,8.023 160.308,9.758 163.419,9.758C165.289,9.758 166.342,9.315 167.125,8.874L167.125,7.054L166.173,7.054C165.646,7.428 164.898,7.717 163.895,7.717C162.654,7.717 161.94,7.326 161.787,5.813L167.447,5.813ZM163.266,2.396C164.082,2.396 164.541,2.839 164.591,4.216L161.804,4.216C161.974,2.754 162.569,2.396 163.266,2.396M170.542,2.634L171.511,2.634L171.511,9.622L174.57,9.622L174.57,2.634L176.101,2.634L176.101,0.663L174.57,0.663L174.57,0.237C174.57,-0.392 174.928,-0.528 175.608,-0.528L176.203,-0.528L176.203,-2.228C175.829,-2.364 175.353,-2.483 174.57,-2.483C172.633,-2.483 171.511,-1.718 171.511,0.118L171.511,0.663L170.542,0.663L170.542,2.634ZM180.945,9.758C183.632,9.758 185.706,8.041 185.706,5.184C185.706,2.311 183.632,0.526 180.945,0.526C178.243,0.526 176.169,2.311 176.169,5.184C176.169,8.041 178.243,9.758 180.945,9.758M180.945,7.752C179.943,7.752 179.263,6.986 179.263,5.218C179.263,3.433 179.943,2.617 180.945,2.617C181.932,2.617 182.612,3.433 182.612,5.218C182.612,6.986 181.932,7.752 180.945,7.752M192.115,3.11L192.523,3.11L192.523,0.663C192.353,0.629 192.166,0.594 191.979,0.594C190.891,0.594 190.109,1.138 189.514,1.886C189.412,0.866 189.123,0.663 188.647,0.663L186.522,0.663L186.522,9.622L189.582,9.622L189.582,3.535C190.075,3.332 190.959,3.11 192.115,3.11M199.543,9.774C202.654,9.774 204.286,8.397 204.286,6.017C204.286,3.791 203.283,2.889 200.478,2.243C199.186,1.937 198.523,1.716 198.523,0.934C198.523,0.17 199.101,-0.17 200.257,-0.17C201.209,-0.17 201.957,0.152 202.501,0.56L203.674,0.56L203.674,-1.633C202.824,-2.125 201.633,-2.432 200.138,-2.432C197.52,-2.432 195.667,-1.242 195.667,1.189C195.667,3.433 196.822,4.3 198.999,4.861C200.325,5.218 201.277,5.32 201.277,6.341C201.277,7.089 200.648,7.513 199.424,7.513C198.183,7.513 197.333,7.071 196.857,6.561L195.65,6.561L195.65,8.822C196.619,9.4 197.809,9.774 199.543,9.774M213.534,5.813C213.534,5.712 213.568,5.388 213.568,5.031C213.568,2.006 212.14,0.526 209.352,0.526C206.649,0.526 204.779,2.328 204.779,5.201C204.779,8.023 206.394,9.758 209.505,9.758C211.375,9.758 212.429,9.315 213.211,8.874L213.211,7.054L212.258,7.054C211.732,7.428 210.984,7.717 209.981,7.717C208.74,7.717 208.026,7.326 207.873,5.813L213.534,5.813ZM209.352,2.396C210.168,2.396 210.627,2.839 210.678,4.216L207.89,4.216C208.06,2.754 208.654,2.396 209.352,2.396M218.685,9.758C220.147,9.758 221.167,9.315 221.745,8.941L221.745,7.02L220.725,7.02C220.351,7.343 219.858,7.649 218.94,7.649C217.767,7.649 217.019,6.901 217.019,5.201C217.019,3.502 217.835,2.685 219.008,2.685C219.738,2.685 220.283,2.958 220.606,3.247L221.711,3.247L221.711,1.155C221.116,0.833 220.181,0.526 218.872,0.526C215.947,0.526 213.908,2.26 213.908,5.168C213.908,8.126 215.693,9.758 218.685,9.758M226.913,7.513C226.182,7.513 225.757,7.343 225.757,6.493L225.757,0.663L222.696,0.663L222.696,7.19C222.696,9.145 223.836,9.758 225.315,9.758C226.522,9.758 227.559,9.248 228.375,8.618C228.494,9.485 228.749,9.622 229.225,9.622L231.35,9.622L231.35,0.663L228.307,0.663L228.307,7.224C227.899,7.36 227.389,7.513 226.913,7.513M238.301,3.11L238.71,3.11L238.71,0.663C238.54,0.629 238.353,0.594 238.166,0.594C237.078,0.594 236.296,1.138 235.701,1.886C235.599,0.866 235.31,0.663 234.834,0.663L232.709,0.663L232.709,9.622L235.769,9.622L235.769,3.535C236.262,3.332 237.146,3.11 238.301,3.11M242.484,9.622L242.484,2.38C242.484,0.968 242.331,0.663 241.413,0.663L239.441,0.663L239.441,9.622L242.484,9.622ZM240.971,0.118C241.889,0.118 242.551,-0.477 242.551,-1.31C242.551,-2.143 241.889,-2.754 240.971,-2.754C240.07,-2.754 239.39,-2.143 239.39,-1.31C239.39,-0.477 240.07,0.118 240.971,0.118M243.197,2.634L244.167,2.634L244.167,7.174C244.167,9.129 245.34,9.774 247.175,9.774C247.941,9.774 248.519,9.655 248.926,9.536L248.926,7.768L248.332,7.768C247.533,7.768 247.227,7.513 247.227,6.715L247.227,2.634L248.893,2.634L248.893,0.663L247.227,0.663L247.227,-1.616L244.167,-1.616L244.167,0.663L243.197,0.663L243.197,2.634ZM251.307,12.376L254.078,12.376L258.43,1.359L258.43,0.663L255.812,0.663L254.078,5.746L254.027,5.746L252.157,0.663L249.25,0.663L249.25,1.359L252.48,9.196L251.307,11.678L251.307,12.376ZM268.154,9.622L269.82,9.622L269.82,3.621C269.82,1.41 268.511,0.526 265.842,0.526C264.243,0.526 263.036,0.883 262.203,1.24L262.203,3.298L263.121,3.298C263.632,2.958 264.362,2.702 265.246,2.702C266.352,2.702 266.76,3.059 266.76,3.841L266.76,4.453C266.249,4.351 265.723,4.283 265.043,4.283C262.969,4.283 261.524,5.184 261.524,7.071C261.524,8.84 262.781,9.74 264.362,9.74C265.468,9.74 266.301,9.468 266.93,8.771C267.1,9.366 267.44,9.622 268.154,9.622M265.57,7.956C264.906,7.956 264.431,7.633 264.431,6.867C264.431,6.119 264.941,5.797 265.757,5.797C266.097,5.797 266.453,5.831 266.76,5.882L266.76,7.463C266.437,7.734 266.029,7.956 265.57,7.956M273.185,0.663L271.06,0.663L271.06,9.622L274.119,9.622L274.119,3.161C274.545,3.025 275.037,2.873 275.599,2.873C276.329,2.873 276.653,3.076 276.653,3.858L276.653,9.622L279.713,9.622L279.713,3.059C279.713,1.07 278.624,0.526 277.281,0.526C275.973,0.526 274.851,1.088 274.052,1.751C273.933,0.849 273.66,0.663 273.185,0.663M287.482,9.622L289.641,9.622L289.641,-0.681C289.641,-2.024 289.471,-2.279 288.519,-2.279L286.58,-2.279L286.58,1.377C286.036,0.849 285.391,0.526 284.252,0.526C282.467,0.526 280.529,1.733 280.529,5.269C280.529,8.346 282.075,9.774 284.099,9.774C285.322,9.774 286.139,9.281 286.683,8.686C286.819,9.434 287.073,9.622 287.482,9.622M285.17,7.752C284.15,7.752 283.622,7.071 283.622,5.201C283.622,3.229 284.473,2.804 285.373,2.804C285.866,2.804 286.258,2.906 286.58,3.11L286.58,7.208C286.121,7.582 285.731,7.752 285.17,7.752M300.725,9.622L303.751,9.622L303.751,8.856L301.388,4.539C302.492,3.909 303.155,2.855 303.155,1.359C303.155,-1.021 301.558,-2.279 298.396,-2.279L293.925,-2.279L293.925,9.622L297.189,9.622L297.189,5.253L298.43,5.253L300.725,9.622ZM297.154,-0.069L298.192,-0.069C299.399,-0.069 299.926,0.475 299.926,1.529C299.926,2.584 299.399,3.128 298.192,3.128L297.154,3.128L297.154,-0.069ZM307.61,9.622L307.61,2.38C307.61,0.968 307.456,0.663 306.538,0.663L304.567,0.663L304.567,9.622L307.61,9.622ZM306.097,0.118C307.015,0.118 307.678,-0.477 307.678,-1.31C307.678,-2.143 307.015,-2.754 306.097,-2.754C305.196,-2.754 304.516,-2.143 304.516,-1.31C304.516,-0.477 305.196,0.118 306.097,0.118M311.775,9.74C314.512,9.74 315.77,8.601 315.77,6.697C315.77,4.794 314.767,4.165 312.676,3.909C311.536,3.773 311.146,3.587 311.146,3.213C311.146,2.788 311.469,2.566 312.319,2.566C313.22,2.566 313.883,2.839 314.29,3.11L315.26,3.11L315.26,1.138C314.494,0.781 313.661,0.544 312.234,0.544C309.989,0.544 308.46,1.512 308.46,3.467C308.46,5.338 309.53,6.001 311.435,6.238C312.676,6.408 312.982,6.561 312.982,7.038C312.982,7.497 312.472,7.683 311.655,7.683C310.687,7.683 309.939,7.343 309.581,7.02L308.545,7.02L308.545,9.026C309.276,9.4 310.211,9.74 311.775,9.74M319.629,-0.681C319.629,-2.04 319.442,-2.279 318.507,-2.279L316.569,-2.279L316.569,9.622L319.629,9.622L319.629,6.935L320.36,6.136L322.434,9.622L325.307,9.622L325.307,8.89L322.502,4.198L324.967,1.393L324.967,0.663L322.416,0.663L319.629,3.994L319.629,-0.681ZM329.047,9.622L332.31,9.622L332.31,5.439L333.297,5.439C336.544,5.439 338.278,4.198 338.278,1.597C338.278,-1.055 336.646,-2.279 333.415,-2.279L329.047,-2.279L329.047,9.622ZM332.294,-0.085L333.279,-0.085C334.655,-0.085 335.047,0.492 335.047,1.614C335.047,2.719 334.605,3.399 333.279,3.399L332.294,3.399L332.294,-0.085ZM344.686,3.11L345.094,3.11L345.094,0.663C344.924,0.629 344.737,0.594 344.55,0.594C343.462,0.594 342.68,1.138 342.085,1.886C341.983,0.866 341.694,0.663 341.218,0.663L339.093,0.663L339.093,9.622L342.153,9.622L342.153,3.535C342.646,3.332 343.529,3.11 344.686,3.11M349.939,9.758C352.624,9.758 354.698,8.041 354.698,5.184C354.698,2.311 352.624,0.526 349.939,0.526C347.236,0.526 345.161,2.311 345.161,5.184C345.161,8.041 347.236,9.758 349.939,9.758M349.939,7.752C348.936,7.752 348.256,6.986 348.256,5.218C348.256,3.433 348.936,2.617 349.939,2.617C350.925,2.617 351.605,3.433 351.605,5.218C351.605,6.986 350.925,7.752 349.939,7.752M354.903,2.634L355.871,2.634L355.871,9.622L358.932,9.622L358.932,2.634L360.462,2.634L360.462,0.663L358.932,0.663L358.932,0.237C358.932,-0.392 359.288,-0.528 359.969,-0.528L360.564,-0.528L360.564,-2.228C360.19,-2.364 359.714,-2.483 358.932,-2.483C356.993,-2.483 355.871,-1.718 355.871,0.118L355.871,0.663L354.903,0.663L354.903,2.634ZM369.284,5.813C369.284,5.712 369.319,5.388 369.319,5.031C369.319,2.006 367.891,0.526 365.103,0.526C362.4,0.526 360.529,2.328 360.529,5.201C360.529,8.023 362.145,9.758 365.256,9.758C367.126,9.758 368.18,9.315 368.962,8.874L368.962,7.054L368.01,7.054C367.483,7.428 366.735,7.717 365.732,7.717C364.49,7.717 363.777,7.326 363.623,5.813L369.284,5.813ZM365.103,2.396C365.919,2.396 366.378,2.839 366.429,4.216L363.641,4.216C363.811,2.754 364.405,2.396 365.103,2.396M373.059,9.74C375.796,9.74 377.054,8.601 377.054,6.697C377.054,4.794 376.051,4.165 373.96,3.909C372.821,3.773 372.43,3.587 372.43,3.213C372.43,2.788 372.753,2.566 373.603,2.566C374.504,2.566 375.166,2.839 375.574,3.11L376.544,3.11L376.544,1.138C375.779,0.781 374.946,0.544 373.518,0.544C371.274,0.544 369.743,1.512 369.743,3.467C369.743,5.338 370.815,6.001 372.719,6.238C373.96,6.408 374.266,6.561 374.266,7.038C374.266,7.497 373.756,7.683 372.94,7.683C371.971,7.683 371.223,7.343 370.865,7.02L369.828,7.02L369.828,9.026C370.56,9.4 371.494,9.74 373.059,9.74M380.776,9.74C383.513,9.74 384.771,8.601 384.771,6.697C384.771,4.794 383.768,4.165 381.677,3.909C380.537,3.773 380.147,3.587 380.147,3.213C380.147,2.788 380.47,2.566 381.32,2.566C382.221,2.566 382.884,2.839 383.291,3.11L384.261,3.11L384.261,1.138C383.495,0.781 382.662,0.544 381.235,0.544C378.99,0.544 377.461,1.512 377.461,3.467C377.461,5.338 378.531,6.001 380.436,6.238C381.677,6.408 381.983,6.561 381.983,7.038C381.983,7.497 381.473,7.683 380.656,7.683C379.688,7.683 378.94,7.343 378.582,7.02L377.546,7.02L377.546,9.026C378.277,9.4 379.212,9.74 380.776,9.74M388.63,9.622L388.63,2.38C388.63,0.968 388.477,0.663 387.559,0.663L385.587,0.663L385.587,9.622L388.63,9.622ZM387.116,0.118C388.034,0.118 388.697,-0.477 388.697,-1.31C388.697,-2.143 388.034,-2.754 387.116,-2.754C386.216,-2.754 385.535,-2.143 385.535,-1.31C385.535,-0.477 386.216,0.118 387.116,0.118M394.257,9.758C396.943,9.758 399.017,8.041 399.017,5.184C399.017,2.311 396.943,0.526 394.257,0.526C391.554,0.526 389.48,2.311 389.48,5.184C389.48,8.041 391.554,9.758 394.257,9.758M394.257,7.752C393.254,7.752 392.573,6.986 392.573,5.218C392.573,3.433 393.254,2.617 394.257,2.617C395.242,2.617 395.923,3.433 395.923,5.218C395.923,6.986 395.242,7.752 394.257,7.752M401.957,0.663L399.832,0.663L399.832,9.622L402.893,9.622L402.893,3.161C403.318,3.025 403.811,2.873 404.371,2.873C405.103,2.873 405.426,3.076 405.426,3.858L405.426,9.622L408.486,9.622L408.486,3.059C408.486,1.07 407.398,0.526 406.055,0.526C404.745,0.526 403.623,1.088 402.824,1.751C402.705,0.849 402.434,0.663 401.957,0.663M415.881,9.622L417.547,9.622L417.547,3.621C417.547,1.41 416.237,0.526 413.569,0.526C411.971,0.526 410.764,0.883 409.931,1.24L409.931,3.298L410.849,3.298C411.359,2.958 412.09,2.702 412.974,2.702C414.078,2.702 414.487,3.059 414.487,3.841L414.487,4.453C413.977,4.351 413.449,4.283 412.77,4.283C410.696,4.283 409.251,5.184 409.251,7.071C409.251,8.84 410.509,9.74 412.09,9.74C413.195,9.74 414.028,9.468 414.656,8.771C414.826,9.366 415.166,9.622 415.881,9.622M413.297,7.956C412.634,7.956 412.157,7.633 412.157,6.867C412.157,6.119 412.668,5.797 413.484,5.797C413.823,5.797 414.181,5.831 414.487,5.882L414.487,7.463C414.163,7.734 413.756,7.956 413.297,7.956M421.882,9.622L421.882,-0.681C421.882,-2.04 421.712,-2.279 420.76,-2.279L418.821,-2.279L418.821,9.622L421.882,9.622ZM426.047,9.74C428.783,9.74 430.041,8.601 430.041,6.697C430.041,4.794 429.038,4.165 426.947,3.909C425.809,3.773 425.418,3.587 425.418,3.213C425.418,2.788 425.74,2.566 426.591,2.566C427.491,2.566 428.154,2.839 428.563,3.11L429.531,3.11L429.531,1.138C428.767,0.781 427.934,0.544 426.506,0.544C424.262,0.544 422.732,1.512 422.732,3.467C422.732,5.338 423.803,6.001 425.706,6.238C426.947,6.408 427.254,6.561 427.254,7.038C427.254,7.497 426.743,7.683 425.928,7.683C424.959,7.683 424.211,7.343 423.854,7.02L422.817,7.02L422.817,9.026C423.548,9.4 424.483,9.74 426.047,9.74" style="fill:white;fill-rule:nonzero;"/>
        </g>
        <g transform="matrix(2.65342,0,0,2.65342,1431.23,558.671)">
            <path d="M0,-93.938L-11.164,-57.723L-11.572,-57.723L-23.416,-93.938L-52.551,-93.938L-52.551,-87.948L-27.772,-25.323L-36.895,-5.991L-36.895,0L-8.168,0L25.73,-87.948L25.73,-93.938L0,-93.938" style="fill:white;fill-rule:nonzero;"/>
        </g>
        <g transform="matrix(2.65342,0,0,2.65342,1258.38,322.795)">
            <path d="M0,13.473L11.844,13.473L11.844,-5.042L0,-5.042L0,-22.468L-30.222,-22.468L-30.222,-5.042L-37.166,-5.042L-37.166,13.473L-30.222,13.473L-30.222,35.941L0,35.941L0,13.473" style="fill:white;fill-rule:nonzero;"/>
        </g>
        <g transform="matrix(2.65342,0,0,2.65342,1148.72,309.416)">
            <path d="M0,40.983L0,14.295C0,2.451 -1.634,0 -10.211,0L-30.222,0L-30.222,40.983L0,40.983" style="fill:white;fill-rule:nonzero;"/>
        </g>
        <g transform="matrix(0,-2.65342,-2.65342,0,1108.81,227.954)">
            <path d="M-15.044,-14.908C-7.284,-14.908 -2.247,-8.782 -2.247,0.067C-2.247,8.918 -7.284,15.044 -15.044,15.044C-22.804,15.044 -27.705,8.918 -27.705,0.067C-27.705,-8.782 -22.804,-14.908 -15.044,-14.908" style="fill:rgb(0,148,216);fill-rule:nonzero;"/>
        </g>
        <g transform="matrix(2.65342,0,0,2.65342,1053.58,351.693)">
            <path d="M0,8.572L2.859,8.572L2.859,-15.933C1.634,-16.342 0.136,-16.478 -1.497,-16.478C-9.938,-16.478 -15.928,-12.258 -20.829,-4.906C-21.919,-14.3 -24.505,-15.933 -28.998,-15.933L-50.508,-15.933L-50.508,25.05L-20.149,25.05L-20.149,10.886C-15.928,9.661 -8.577,8.572 0,8.572" style="fill:white;fill-rule:nonzero;"/>
        </g>
        <g transform="matrix(2.65342,0,0,2.65342,839.743,312.669)">
            <path d="M0,70.655L21.374,70.655L21.374,-1.226L-8.849,-1.226L-8.849,49.145C-10.619,49.689 -12.933,50.098 -14.976,50.098C-20.557,50.098 -23.416,49.01 -23.416,43.563L-23.416,-1.226L-53.639,-1.226L-53.639,49.826C-53.639,66.843 -44.246,71.881 -32.538,71.881C-21.51,71.881 -14.295,66.571 -8.168,60.853C-7.079,69.43 -4.629,70.655 0,70.655" style="fill:white;fill-rule:nonzero;"/>
        </g>
        <g transform="matrix(2.65342,0,0,2.65342,611.631,305.802)">
            <path d="M0,74.469C12.388,74.469 21.237,71.064 26.003,68.069L26.003,50.372L16.065,50.372C13.341,52.55 9.938,54.592 3.947,54.592C-4.358,54.592 -8.986,49.283 -8.986,37.847C-8.986,25.867 -3.812,20.83 4.357,20.83C9.666,20.83 13.205,22.599 15.52,24.369L25.866,24.369L25.866,5.173C20.421,2.314 11.571,0 1.905,0C-23.688,0 -39.754,13.75 -39.754,37.575C-39.754,62.216 -24.779,74.469 0,74.469" style="fill:white;fill-rule:nonzero;"/>
        </g>
        <g transform="matrix(2.65342,0,0,2.65342,500.487,404.783)">
            <path d="M0,-0.137C0,-25.187 -11.844,-37.303 -35.805,-37.303C-59.63,-37.303 -74.604,-22.6 -74.604,0.408C-74.604,23.143 -61.808,37.166 -34.852,37.166C-19.06,37.166 -10.074,33.898 -2.995,30.087L-2.995,13.613L-12.661,13.613C-16.473,15.928 -22.055,17.97 -30.087,17.97C-38.528,17.97 -43.02,15.519 -44.246,6.534L-0.272,6.534C-0.272,5.581 0,3.267 0,-0.137M-27.772,-7.352L-44.382,-7.352C-43.429,-17.018 -40.025,-19.06 -35.805,-19.06C-30.768,-19.06 -28.181,-16.338 -27.772,-7.352" style="fill:white;fill-rule:nonzero;"/>
        </g>
        <g transform="matrix(2.65342,0,0,2.65342,176.361,430.07)">
            <path d="M0,-42.476C0,-46.56 3.404,-48.466 11.164,-48.466C18.107,-48.466 24.505,-46.152 27.909,-43.565L40.706,-43.565L40.706,-63.714C32.946,-67.798 23.008,-70.385 10.074,-70.385C-12.661,-70.385 -28.59,-60.31 -28.59,-39.617C-28.59,-19.332 -17.971,-12.797 -0.545,-8.985C9.53,-6.807 14.703,-6.126 14.703,-0.545C14.703,3.812 10.347,5.854 2.723,5.854C-5.31,5.854 -11.708,3.131 -15.248,-0.272L-28.045,-0.272L-28.045,20.285C-20.83,24.778 -10.074,27.909 4.084,27.909C31.04,27.909 45.199,16.065 45.199,-3.676C45.199,-21.783 37.847,-29.951 13.478,-34.852C4.22,-36.758 0,-37.847 0,-42.476" style="fill:white;fill-rule:nonzero;"/>
        </g>
        <g transform="matrix(2.65342,0,0,2.65342,-64.9699,-1465.71)">
            <rect x="371.043" y="713.167" width="127.683" height="27.75" style="fill:rgb(0,148,216);"/>
        </g>
        <g transform="matrix(2.65342,0,0,2.65342,940.546,437.601)">
            <path d="M0,19.479L1.392,19.479L1.392,1.781L1.504,1.781L8.292,19.479L9.379,19.479L16.195,1.781L16.334,1.781L16.334,19.479L17.838,19.479L17.838,-0L15.583,-0L8.988,17.225L8.933,17.225L2.311,-0L0,-0L0,19.479ZM20.965,19.479L22.217,19.479L24.388,13.385L32.819,13.385L35.018,19.479L36.324,19.479L36.324,18.867L29.564,-0L27.811,-0L20.965,18.867L20.965,19.479ZM28.59,1.642L28.645,1.642L32.402,12.161L24.805,12.161L28.59,1.642ZM43.242,19.479L43.242,1.225L49.587,1.225L49.587,-0L35.367,-0L35.367,1.225L41.739,1.225L41.739,19.479L43.242,19.479ZM59.599,19.479L59.599,1.225L65.943,1.225L65.943,-0L51.724,-0L51.724,1.225L58.096,1.225L58.096,19.479L59.599,19.479ZM68.945,19.479L80.939,19.479L80.939,18.255L70.419,18.255L70.419,10.046L78.071,10.046L78.071,8.821L70.419,8.821L70.419,1.253L80.549,1.253L80.549,-0L68.945,-0L68.945,19.479ZM95.845,19.479L97.124,19.479L97.124,18.895L92.478,10.268C94.676,9.628 96.012,8.098 96.012,5.288C96.012,1.392 93.284,-0 89.332,-0L84.13,-0L84.13,19.479L85.632,19.479L85.632,10.657L89.332,10.657C89.917,10.657 90.501,10.63 91.03,10.573L95.845,19.479ZM85.632,1.225L89.278,1.225C92.366,1.225 94.509,2.199 94.509,5.343C94.509,8.571 92.532,9.461 89.278,9.461L85.632,9.461L85.632,1.225ZM105.41,19.59C109.195,19.59 111.866,17.893 111.866,14.108C111.866,10.714 109.695,9.74 105.773,8.71C103.129,8.014 101.292,7.402 101.292,4.731C101.292,2.672 102.601,1.086 105.773,1.086C107.943,1.086 109.223,1.726 110.252,2.672L110.948,2.672L110.948,1.42C109.751,0.529 108.194,-0.111 105.744,-0.111C101.933,-0.111 99.873,2.032 99.873,4.842C99.873,8.014 101.876,9.128 105.355,10.046C108.165,10.797 110.419,11.354 110.419,14.22C110.419,17.169 108.361,18.394 105.383,18.394C102.627,18.394 101.098,17.475 100.068,16.446L99.401,16.446L99.401,17.754C100.681,18.756 102.517,19.59 105.41,19.59" style="fill:white;fill-rule:nonzero;"/>
        </g>
    </g>
</svg>
