<svg width="24" height="24" xmlns="http://www.w3.org/2000/svg">
 <title/>
 <desc/>

 <g>
  <title>background</title>
  <rect fill="none" id="canvas_background" height="26" width="26" y="-1" x="-1"/>
 </g>
 <g>
  <title>Layer 1</title>
  <path fill="#c92c33" id="Shape" d="m11.979769,0c-6.588873,0 -11.979769,5.390896 -11.979769,11.979769c0,6.588873 5.390896,11.979769 11.979769,11.979769c6.588873,0 11.979769,-5.390896 11.979769,-11.979769c0,-6.588873 -5.390896,-11.979769 -11.979769,-11.979769l0,0zm0,21.563583c-5.271101,0 -9.583815,-4.312717 -9.583815,-9.583815c0,-5.271099 4.312715,-9.583815 9.583815,-9.583815c5.271097,0 9.583815,4.312716 9.583815,9.583815c0,5.271097 -4.312717,9.583815 -9.583815,9.583815zm0.598988,-15.573699l-1.796965,0l0,7.18786l6.229481,3.833526l0.95838,-1.55737l-5.390896,-3.234537l0,-6.229479z"/>
 </g>
</svg>