<svg width="14" height="28.999999999999996" xmlns="http://www.w3.org/2000/svg">

 <g>
  <title>background</title>
  <rect fill="none" id="canvas_background" height="31" width="16" y="-1" x="-1"/>
 </g>
 <g>
  <title>Layer 1</title>
  <path fill="#ffffff" id="svg_1" d="m13.562309,9.483378l-4.502762,0l0,-2.953153c0,-1.109053 0.735049,-1.367615 1.252763,-1.367615c0.516538,0 3.177554,0 3.177554,0l0,-4.875588l-4.376131,-0.01708c-4.857918,0 -5.963436,3.636371 -5.963436,5.963436l0,3.25l-2.809441,0l0,5.02401l2.809441,0c0,6.447577 0,14.216241 0,14.216241l5.90925,0c0,0 0,-7.845232 0,-14.216241l3.987404,0l0.515358,-5.02401z"/>
 </g>
</svg>