<?xml version="1.0" encoding="UTF-8" standalone="no"?>
<!DOCTYPE svg PUBLIC "-//W3C//DTD SVG 1.1//EN" "http://www.w3.org/Graphics/SVG/1.1/DTD/svg11.dtd">
<svg width="100%" height="100%" viewBox="0 0 1600 800" version="1.1" xmlns="http://www.w3.org/2000/svg" xmlns:xlink="http://www.w3.org/1999/xlink" xml:space="preserve" xmlns:serif="http://www.serif.com/" style="fill-rule:evenodd;clip-rule:evenodd;stroke-linejoin:round;stroke-miterlimit:2;">
    <g transform="matrix(0.855757,0,0,0.855757,791,415.638)">
        <g id="FSM-Awards-Logo---White---With-Date.ai" serif:id="FSM Awards Logo - White - With Date.ai" transform="matrix(1,0,0,1,-1753.94,-1240.16)">
            <g id="Layer-1" serif:id="Layer 1" transform="matrix(4.16667,0,0,4.16667,0,0)">
                <g transform="matrix(1,0,0,1,305.906,336.202)">
                    <path d="M0,10.574L0,0L6.299,0L6.299,0.679L0.8,0.679L0.8,5.06L4.879,5.06L4.879,5.725L0.8,5.725L0.8,10.574L0,10.574Z" style="fill:white;fill-rule:nonzero;"/>
                </g>
                <g transform="matrix(1,0,0,1,0,105.102)">
                    <rect x="313.819" y="231.1" width="0.815" height="10.574" style="fill:white;"/>
                </g>
                <g transform="matrix(1,0,0,1,317.881,341.639)">
                    <path d="M0,-0.302L1.979,-0.302C3.747,-0.302 4.819,-0.785 4.819,-2.537C4.819,-4.244 3.656,-4.774 1.979,-4.774L0,-4.774L0,-0.302ZM2.931,0.302C2.644,0.333 2.327,0.347 2.009,0.347L0,0.347L0,5.136L-0.816,5.136L-0.816,-5.438L2.009,-5.438C4.154,-5.438 5.635,-4.683 5.635,-2.568C5.635,-1.042 4.91,-0.211 3.716,0.136L6.239,4.819L6.239,5.136L5.544,5.136L2.931,0.302Z" style="fill:white;fill-rule:nonzero;"/>
                </g>
                <g transform="matrix(1,0,0,1,325.869,346.775)">
                    <path d="M0,-10.574L6.299,-10.574L6.299,-9.894L0.8,-9.894L0.8,-5.786L4.955,-5.786L4.955,-5.121L0.8,-5.121L0.8,-0.665L6.511,-0.665L6.511,0L0,0L0,-10.574Z" style="fill:white;fill-rule:nonzero;"/>
                </g>
                <g transform="matrix(1,0,0,1,342.89,338.044)">
                    <path d="M0,6.889L-3.399,3.052C-4.562,3.535 -5.438,4.2 -5.438,5.71C-5.438,6.934 -4.623,8.143 -2.644,8.143C-1.435,8.143 -0.62,7.66 0,6.889M0.438,7.372C-0.257,8.203 -1.345,8.792 -2.734,8.792C-5.061,8.792 -6.269,7.448 -6.269,5.726C-6.269,4.034 -5.121,3.082 -3.807,2.583C-4.215,2.085 -4.623,1.466 -4.623,0.514C-4.623,-0.922 -3.535,-1.903 -1.918,-1.903C-0.921,-1.903 -0.272,-1.661 0.257,-1.223L0.257,-0.634L-0.121,-0.634C-0.544,-1.027 -1.073,-1.268 -1.903,-1.268C-3.082,-1.268 -3.837,-0.544 -3.837,0.529C-3.837,1.285 -3.414,1.934 -2.613,2.84L0.393,6.209C0.876,5.303 1.314,4.079 1.45,2.87L2.13,2.87L2.13,3.143C1.934,4.381 1.465,5.71 0.846,6.738L2.326,8.4L2.326,8.732L1.662,8.732L0.438,7.372Z" style="fill:white;fill-rule:nonzero;"/>
                </g>
                <g transform="matrix(1,0,0,1,349.306,337.138)">
                    <path d="M0,8.701L0,7.991L0.362,7.991C0.921,8.55 1.752,9.049 3.248,9.049C4.864,9.049 5.982,8.384 5.982,6.782C5.982,5.226 4.758,4.925 3.232,4.516C1.344,4.018 0.256,3.414 0.256,1.691C0.256,0.166 1.375,-0.997 3.444,-0.997C4.773,-0.997 5.619,-0.65 6.269,-0.166L6.269,0.513L5.891,0.513C5.333,0 4.637,-0.348 3.459,-0.348C1.737,-0.348 1.027,0.513 1.027,1.632C1.027,3.082 2.024,3.414 3.459,3.792C5.589,4.35 6.768,4.879 6.768,6.722C6.768,8.776 5.317,9.698 3.263,9.698C1.692,9.698 0.695,9.245 0,8.701" style="fill:white;fill-rule:nonzero;"/>
                </g>
                <g transform="matrix(1,0,0,1,357.733,346.775)">
                    <path d="M0,-10.574L6.299,-10.574L6.299,-9.894L0.8,-9.894L0.8,-5.786L4.955,-5.786L4.955,-5.121L0.8,-5.121L0.8,-0.665L6.511,-0.665L6.511,0L0,0L0,-10.574Z" style="fill:white;fill-rule:nonzero;"/>
                </g>
                <g transform="matrix(1,0,0,1,365.026,341.519)">
                    <path d="M0,-0.061C0,-3.536 2.13,-5.378 4.653,-5.378C6.33,-5.378 7.085,-4.956 7.87,-4.321L7.87,-3.671L7.493,-3.671C6.903,-4.26 6.163,-4.729 4.698,-4.729C2.508,-4.729 0.831,-3.143 0.831,-0.091C0.831,3.021 2.296,4.668 4.577,4.668C6.163,4.668 7.055,4.078 7.704,3.414L8.052,3.414L8.052,4.018C7.327,4.698 6.284,5.317 4.562,5.317C1.873,5.317 0,3.414 0,-0.061" style="fill:white;fill-rule:nonzero;"/>
                </g>
                <g transform="matrix(1,0,0,1,381.579,339.812)">
                    <path d="M0,3.414L0,-3.61L0.771,-3.61L0.771,3.384C0.771,6.042 -0.876,7.024 -3.066,7.024C-5.227,7.024 -6.979,6.058 -6.979,3.384L-6.979,-3.61L-6.178,-3.61L-6.178,3.414C-6.178,5.68 -4.743,6.359 -3.021,6.359C-1.359,6.359 0,5.726 0,3.414" style="fill:white;fill-rule:nonzero;"/>
                </g>
                <g transform="matrix(1,0,0,1,385.473,341.639)">
                    <path d="M0,-0.302L1.979,-0.302C3.747,-0.302 4.819,-0.785 4.819,-2.537C4.819,-4.244 3.656,-4.774 1.979,-4.774L0,-4.774L0,-0.302ZM2.931,0.302C2.644,0.333 2.326,0.347 2.009,0.347L0,0.347L0,5.136L-0.815,5.136L-0.815,-5.438L2.009,-5.438C4.154,-5.438 5.635,-4.683 5.635,-2.568C5.635,-1.042 4.91,-0.211 3.716,0.136L6.239,4.819L6.239,5.136L5.544,5.136L2.931,0.302Z" style="fill:white;fill-rule:nonzero;"/>
                </g>
                <g transform="matrix(1,0,0,1,0,105.102)">
                    <rect x="393.492" y="231.1" width="0.815" height="10.574" style="fill:white;"/>
                </g>
                <g transform="matrix(1,0,0,1,399.2,336.202)">
                    <path d="M0,10.574L0,0.664L-3.459,0.664L-3.459,0L4.26,0L4.26,0.664L0.816,0.664L0.816,10.574L0,10.574Z" style="fill:white;fill-rule:nonzero;"/>
                </g>
                <g transform="matrix(1,0,0,1,407.475,336.202)">
                    <path d="M0,10.574L0,6.148L-3.369,0.332L-3.369,0L-2.674,0L0.423,5.392L0.438,5.392L3.535,0L4.169,0L4.169,0.332L0.816,6.118L0.816,10.574L0,10.574Z" style="fill:white;fill-rule:nonzero;"/>
                </g>
                <g transform="matrix(1,0,0,1,416.505,346.775)">
                    <path d="M0,-10.574L1.253,-10.574L4.849,-1.223L4.879,-1.223L8.459,-10.574L9.683,-10.574L9.683,0L8.867,0L8.867,-9.607L8.792,-9.607L5.091,0L4.501,0L0.815,-9.607L0.755,-9.607L0.755,0L0,0L0,-10.574Z" style="fill:white;fill-rule:nonzero;"/>
                </g>
                <g transform="matrix(1,0,0,1,429.779,340.174)">
                    <path d="M0,2.629L4.124,2.629L2.084,-3.081L2.054,-3.081L0,2.629ZM-2.085,6.27L1.631,-3.973L2.583,-3.973L6.254,6.27L6.254,6.602L5.544,6.602L4.351,3.293L-0.227,3.293L-1.405,6.602L-2.085,6.602L-2.085,6.27Z" style="fill:white;fill-rule:nonzero;"/>
                </g>
                <g transform="matrix(1,0,0,1,438.916,336.202)">
                    <path d="M0,10.574L0,0.664L-3.459,0.664L-3.459,0L4.26,0L4.26,0.664L0.816,0.664L0.816,10.574L0,10.574Z" style="fill:white;fill-rule:nonzero;"/>
                </g>
                <g transform="matrix(1,0,0,1,447.221,336.202)">
                    <path d="M0,10.574L0,0.664L-3.459,0.664L-3.459,0L4.26,0L4.26,0.664L0.816,0.664L0.816,10.574L0,10.574Z" style="fill:white;fill-rule:nonzero;"/>
                </g>
                <g transform="matrix(1,0,0,1,452.883,346.775)">
                    <path d="M0,-10.574L6.299,-10.574L6.299,-9.894L0.8,-9.894L0.8,-5.786L4.955,-5.786L4.955,-5.121L0.8,-5.121L0.8,-0.665L6.511,-0.665L6.511,0L0,0L0,-10.574Z" style="fill:white;fill-rule:nonzero;"/>
                </g>
                <g transform="matrix(1,0,0,1,461.823,341.639)">
                    <path d="M0,-0.302L1.979,-0.302C3.747,-0.302 4.819,-0.785 4.819,-2.537C4.819,-4.244 3.656,-4.774 1.979,-4.774L0,-4.774L0,-0.302ZM2.931,0.302C2.644,0.333 2.326,0.347 2.009,0.347L0,0.347L0,5.136L-0.815,5.136L-0.815,-5.438L2.009,-5.438C4.154,-5.438 5.635,-4.683 5.635,-2.568C5.635,-1.042 4.91,-0.211 3.716,0.136L6.239,4.819L6.239,5.136L5.544,5.136L2.931,0.302Z" style="fill:white;fill-rule:nonzero;"/>
                </g>
                <g transform="matrix(1,0,0,1,468.86,337.138)">
                    <path d="M0,8.701L0,7.991L0.362,7.991C0.921,8.55 1.752,9.049 3.248,9.049C4.864,9.049 5.982,8.384 5.982,6.782C5.982,5.226 4.758,4.925 3.232,4.516C1.344,4.018 0.256,3.414 0.256,1.691C0.256,0.166 1.375,-0.997 3.444,-0.997C4.773,-0.997 5.619,-0.65 6.269,-0.166L6.269,0.513L5.891,0.513C5.333,0 4.637,-0.348 3.459,-0.348C1.737,-0.348 1.027,0.513 1.027,1.632C1.027,3.082 2.024,3.414 3.459,3.792C5.589,4.35 6.768,4.879 6.768,6.722C6.768,8.776 5.317,9.698 3.263,9.698C1.692,9.698 0.695,9.245 0,8.701" style="fill:white;fill-rule:nonzero;"/>
                </g>
                <g transform="matrix(1,0,0,1,481.937,340.174)">
                    <path d="M0,2.629L4.124,2.629L2.085,-3.081L2.055,-3.081L0,2.629ZM-2.084,6.27L1.632,-3.973L2.583,-3.973L6.254,6.27L6.254,6.602L5.544,6.602L4.351,3.293L-0.227,3.293L-1.405,6.602L-2.084,6.602L-2.084,6.27Z" style="fill:white;fill-rule:nonzero;"/>
                </g>
                <g transform="matrix(1,0,0,1,488.203,346.459)">
                    <path d="M0,-9.94L0,-10.257L0.74,-10.257L3.097,-0.967L3.142,-0.967L5.755,-10.257L6.45,-10.257L9.079,-0.967L9.124,-0.967L11.466,-10.257L12.161,-10.257L12.161,-9.94L9.517,0.317L8.641,0.317L6.103,-8.853L6.073,-8.853L3.52,0.317L2.644,0.317L0,-9.94Z" style="fill:white;fill-rule:nonzero;"/>
                </g>
                <g transform="matrix(1,0,0,1,502.46,340.174)">
                    <path d="M0,2.629L4.124,2.629L2.084,-3.081L2.054,-3.081L0,2.629ZM-2.085,6.27L1.631,-3.973L2.583,-3.973L6.254,6.27L6.254,6.602L5.544,6.602L4.351,3.293L-0.227,3.293L-1.405,6.602L-2.085,6.602L-2.085,6.27Z" style="fill:white;fill-rule:nonzero;"/>
                </g>
                <g transform="matrix(1,0,0,1,511.082,341.639)">
                    <path d="M0,-0.302L1.979,-0.302C3.747,-0.302 4.819,-0.785 4.819,-2.537C4.819,-4.244 3.656,-4.774 1.979,-4.774L0,-4.774L0,-0.302ZM2.931,0.302C2.644,0.333 2.326,0.347 2.009,0.347L0,0.347L0,5.136L-0.815,5.136L-0.815,-5.438L2.009,-5.438C4.154,-5.438 5.635,-4.683 5.635,-2.568C5.635,-1.042 4.91,-0.211 3.716,0.136L6.239,4.819L6.239,5.136L5.544,5.136L2.931,0.302Z" style="fill:white;fill-rule:nonzero;"/>
                </g>
                <g transform="matrix(1,0,0,1,521.88,336.867)">
                    <path d="M0,9.244C3.051,9.244 4.501,7.961 4.501,4.622C4.501,1.283 3.051,-0.001 0,-0.001L-2.009,-0.001L-2.009,9.244L0,9.244ZM-2.81,-0.665L0.015,-0.665C3.505,-0.665 5.333,0.846 5.333,4.606C5.333,8.353 3.505,9.909 0,9.909L-2.81,9.909L-2.81,-0.665Z" style="fill:white;fill-rule:nonzero;"/>
                </g>
                <g transform="matrix(1,0,0,1,527.965,337.138)">
                    <path d="M0,8.701L0,7.991L0.362,7.991C0.921,8.55 1.752,9.049 3.248,9.049C4.864,9.049 5.982,8.384 5.982,6.782C5.982,5.226 4.758,4.925 3.232,4.516C1.344,4.018 0.256,3.414 0.256,1.691C0.256,0.166 1.375,-0.997 3.444,-0.997C4.773,-0.997 5.619,-0.65 6.269,-0.166L6.269,0.513L5.891,0.513C5.333,0 4.637,-0.348 3.459,-0.348C1.737,-0.348 1.027,0.513 1.027,1.632C1.027,3.082 2.024,3.414 3.459,3.792C5.589,4.35 6.768,4.879 6.768,6.722C6.768,8.776 5.317,9.698 3.263,9.698C1.692,9.698 0.695,9.245 0,8.701" style="fill:white;fill-rule:nonzero;"/>
                </g>
                <g transform="matrix(1,0,0,1,454.172,256.721)">
                    <path d="M0,37.218L1.095,27.223C1.567,22.739 1.92,17.547 2.393,11.766C3.337,17.901 4.752,23.329 6.168,28.167L8.867,37.218L40.875,37.218L43.573,28.167C44.99,23.329 46.406,17.901 47.35,11.766C47.94,18.609 48.294,23.801 48.648,27.223L49.742,37.218L78.343,37.218L68.707,-23.752L37.438,-23.752L31.184,-3.22C29.531,2.443 26.936,10.585 25.402,21.795L24.93,21.795C23.632,10.703 21.036,2.797 19.384,-2.866L13.367,-23.752L-17.903,-23.752L-27.232,30.923C-27.316,19.228 -34.839,10.926 -45.985,8.461C-56.015,6.219 -61.679,5.629 -61.679,1.499C-61.679,-0.979 -59.319,-2.513 -55.071,-2.513C-49.761,-2.513 -43.627,-0.271 -37.726,4.095L-28.523,-17.97C-38.198,-23.162 -47.284,-25.64 -56.96,-25.64C-78.434,-25.64 -92.241,-12.66 -92.241,5.039C-92.241,17.311 -84.924,25.217 -70.529,28.285C-63.568,29.819 -59.319,30.291 -59.319,34.185C-59.319,36.899 -61.679,38.551 -66.045,38.551C-72.417,38.551 -79.025,35.365 -87.167,29.819L-96.843,53.418C-85.986,59.672 -74.777,62.858 -63.685,62.858C-44.185,62.858 -30.683,52.164 -27.805,37.218L0,37.218ZM76.752,48.997C74.524,48.5 73.267,48.368 73.267,47.451C73.267,46.901 73.791,46.559 74.734,46.559C75.914,46.559 77.277,47.058 78.588,48.028L80.633,43.126C78.483,41.973 76.464,41.422 74.315,41.422C69.544,41.422 66.477,44.306 66.477,48.237C66.477,50.963 68.102,52.72 71.301,53.401C72.847,53.742 73.791,53.847 73.791,54.712C73.791,55.315 73.267,55.682 72.296,55.682C70.881,55.682 69.413,54.974 67.604,53.742L65.455,58.985C67.867,60.374 70.357,61.082 72.82,61.082C77.723,61.082 80.921,58.041 80.921,54.03C80.921,51.409 79.243,49.548 76.752,48.997M58.271,51.225C58.271,48.762 56.909,47.608 54.182,47.608L53.894,47.608L53.894,54.869C56.882,54.817 58.271,53.768 58.271,51.225M65.113,51.225C65.113,54.319 63.724,57.019 61.234,58.723C58.796,60.4 55.913,60.584 52.164,60.584L47.21,60.584L47.21,41.841L52.662,41.841C55.913,41.841 58.351,42.156 60.08,43.021C63.304,44.646 65.113,47.661 65.113,51.225M38.875,48.525C38.875,47.373 38.193,46.664 36.882,46.664L35.833,46.664L35.833,50.335L36.882,50.335C38.166,50.335 38.875,49.679 38.875,48.525M41.653,52.956L46.659,60.584L39.11,60.584L35.833,54.397L35.833,60.584L29.228,60.584L29.228,41.841L37.694,41.841C42.702,41.841 45.27,44.148 45.27,48.159C45.27,50.833 43.829,52.694 41.653,52.956M19.974,53.768L19.398,51.645C19.136,50.649 18.742,49.339 18.637,47.53L18.507,47.53C18.402,49.339 18.008,50.649 17.746,51.645L17.17,53.768L19.974,53.768ZM22.412,41.841L28.965,60.584L21.731,60.584L21.127,58.224L16.042,58.224L15.466,60.584L8.231,60.584L14.915,41.841L22.412,41.841ZM4.076,41.841L2.609,50.098C2.477,50.911 2.242,52.117 2.19,53.795L2.032,53.795C1.98,52.327 1.718,51.278 1.586,50.596L-0.196,41.841L-4.941,41.841L-6.723,50.596C-6.854,51.278 -7.117,52.327 -7.169,53.795L-7.326,53.795C-7.379,52.117 -7.614,50.911 -7.745,50.098L-9.213,41.841L-15.977,41.841L-10.497,60.584L-4.626,60.584L-3.211,54.188C-3.027,53.349 -2.765,52.353 -2.686,51.095L-2.451,51.095C-2.371,52.353 -2.109,53.349 -1.926,54.188L-0.51,60.584L5.361,60.584L10.84,41.841L4.076,41.841ZM-22.384,53.768L-22.961,51.645C-23.223,50.649 -23.616,49.339 -23.721,47.53L-23.852,47.53C-23.957,49.339 -24.35,50.649 -24.612,51.645L-25.189,53.768L-22.384,53.768ZM-19.946,41.841L-13.394,60.584L-20.628,60.584L-21.231,58.224L-26.316,58.224L-26.893,60.584L-34.128,60.584L-27.443,41.841L-19.946,41.841ZM-94.364,30.527L-117.964,30.527L-117.964,60.616L-148.289,60.616L-148.289,-23.752L-91.885,-23.752L-91.885,-0.86L-117.964,-0.86L-117.964,8.934L-94.364,8.934L-94.364,30.527Z" style="fill:white;fill-rule:nonzero;"/>
                </g>
                <g transform="matrix(1,0,0,1,534.235,328.592)">
                    <path d="M0,-1L-227.855,-1C-228.13,-1 -228.352,-0.776 -228.352,-0.5C-228.352,-0.224 -228.13,0 -227.855,0L0,0C0.275,0 0.497,-0.224 0.497,-0.5C0.497,-0.776 0.275,-1 0,-1" style="fill:white;fill-rule:nonzero;"/>
                </g>
            </g>
        </g>
        <g id="FSM-Awards-Logo---White---With-Date.ai1" serif:id="FSM Awards Logo - White - With Date.ai">
        </g>
    </g>
</svg>
