<?xml version="1.0" encoding="UTF-8" standalone="no"?>
<!DOCTYPE svg PUBLIC "-//W3C//DTD SVG 1.1//EN" "http://www.w3.org/Graphics/SVG/1.1/DTD/svg11.dtd">
<svg width="100%" height="100%" viewBox="0 0 1600 800" version="1.1" xmlns="http://www.w3.org/2000/svg" xmlns:xlink="http://www.w3.org/1999/xlink" xml:space="preserve" xmlns:serif="http://www.serif.com/" style="fill-rule:evenodd;clip-rule:evenodd;stroke-linejoin:round;stroke-miterlimit:2;">
    <g id="she-awards" serif:id="she awards" transform="matrix(2.75196,0,0,2.75196,100.999,239.687)">
        <path d="M99.193,12.122L12.81,12.122C12.587,12.511 12.363,12.899 12.149,13.286L99.854,13.286C99.639,12.899 99.415,12.51 99.193,12.122ZM108.058,39.154L3.947,39.154C3.913,39.54 3.863,39.934 3.835,40.317L108.169,40.317C108.14,39.934 108.09,39.54 108.058,39.154ZM66.526,32.776L67.364,32.776C67.71,32.776 68.173,32.255 68.173,31.938L68.173,20.617C68.173,20.299 67.71,19.809 67.364,19.809L66.526,19.809L66.526,16.112L83.738,16.112L83.738,22.667L79.84,22.667L79.263,20.097L74.93,20.097L74.93,23.967L79.58,23.967L79.58,28.068L74.93,28.068L74.93,32.458L79.378,32.458L79.927,29.397L83.999,29.397L83.999,36.327L66.526,36.327L66.526,32.776ZM44.143,32.776L44.981,32.776C45.328,32.776 45.79,32.255 45.79,31.938L45.79,20.617C45.79,20.299 45.328,19.809 44.981,19.809L44.143,19.809L44.143,16.112L54.281,16.112L54.281,19.809L52.547,19.809L52.547,24.371L57.312,24.371L57.312,19.809L55.58,19.809L55.58,16.112L65.717,16.112L65.717,19.809L64.879,19.809C64.532,19.809 64.071,20.299 64.071,20.617L64.071,31.938C64.071,32.255 64.532,32.776 64.879,32.776L65.717,32.776L65.717,36.327L55.58,36.327L55.58,32.776L57.312,32.776L57.312,27.808L52.547,27.808L52.547,32.776L54.281,32.776L54.281,36.327L44.143,36.327L44.143,32.776ZM32.245,36.327L27.942,36.327L27.942,29.945L32.331,29.945L32.909,32.458C33.342,32.602 33.862,32.66 34.642,32.66C36.173,32.66 37.097,32.14 37.097,30.869C37.097,29.483 35.768,29.223 33.631,28.646C30.685,27.866 28.028,26.653 28.028,22.292C28.028,17.7 31.205,15.794 35.537,15.794C37.356,15.794 38.396,15.938 39.233,16.112L42.93,16.112L42.93,21.974L38.598,21.974L38.021,19.809C37.645,19.693 37.154,19.606 36.519,19.606C34.93,19.606 34.064,20.126 34.064,21.368C34.064,22.725 35.364,22.957 36.836,23.36C41.688,24.66 43.537,25.989 43.537,29.858C43.537,34.248 41.082,36.646 35.652,36.646C34.266,36.646 33.255,36.53 32.245,36.327ZM3.727,45.264L108.276,45.264C108.307,49.312 108.089,53.366 107.507,57.374C106.941,61.232 106.037,65.03 104.709,68.7C100.815,79.464 94.41,88.418 85.644,95.752C83.698,97.378 81.648,98.911 79.57,100.364C77.126,102.075 74.606,103.69 72.019,105.18C69.787,106.467 67.49,107.667 65.13,108.708C63.024,109.638 60.809,110.471 58.564,111.003C57.031,111.366 55.091,111.404 53.564,110.998C51.368,110.414 49.203,109.573 47.129,108.648C44.795,107.608 42.514,106.43 40.29,105.176C37.629,103.677 35.027,102.057 32.504,100.337C30.401,98.903 28.311,97.383 26.36,95.752C17.593,88.418 11.188,79.464 7.293,68.7C5.967,65.03 5.061,61.232 4.498,57.374C3.913,53.366 3.696,49.312 3.727,45.264ZM106.854,70.244C102.833,81.361 95.998,90.547 86.975,98.095C80.705,103.338 67.731,111.604 58.56,113.812C57.014,114.184 55.079,114.215 53.551,113.802C44.507,111.35 31.1,103.173 25.028,98.095C16.005,90.547 9.17,81.361 5.149,70.244C1.566,60.336 0.361,48.847 1.94,35.706C3.187,25.347 7.828,14.43 16.001,2.809C29.276,7.151 42.551,7.132 55.826,2.747L56.177,2.747C69.453,7.132 82.727,7.151 96.001,2.809C104.175,14.43 108.817,25.347 110.063,35.706C111.644,48.847 110.438,60.336 106.854,70.244ZM111.316,35.555C109.852,23.39 104,11.988 97.033,2.085L96.496,1.321L95.61,1.611C82.593,5.87 69.577,5.846 56.572,1.551L56.379,1.486L55.624,1.486L55.431,1.551C42.426,5.846 29.41,5.87 16.393,1.611L15.507,1.321L14.97,2.085C8.005,11.988 2.152,23.39 0.69,35.555C-0.73,47.368 -0.107,59.415 3.965,70.675C8.066,82.017 15.047,91.389 24.22,99.061C30.523,104.332 44.091,112.578 53.386,115.05C55.013,115.483 57.093,115.449 58.742,115.058C68.16,112.825 81.287,104.493 87.783,99.061C96.955,91.389 103.936,82.017 108.039,70.675C112.112,59.415 112.734,47.368 111.316,35.555Z" style="fill:url(#_Linear1);"/>
        <path d="M132.654,27.04L134.127,27.04C134.662,27.04 135.375,26.237 135.375,25.747L135.375,7.276L132.877,7.276L132.208,13.031L126.005,13.031L126.005,1.298L155.185,1.298L155.185,13.031L149.028,13.031L148.313,7.276L145.816,7.276L145.816,25.747C145.816,26.237 146.529,27.04 147.065,27.04L148.537,27.04L148.537,32.529L132.654,32.529L132.654,27.04Z" style="fill:white;fill-rule:nonzero;"/>
        <path d="M172.585,17.895C172.585,16.154 171.782,15.798 169.73,15.798C169.328,15.798 168.614,15.843 167.945,15.931L167.945,27.04L170.533,27.04L170.533,32.529L155.988,32.529L155.988,27.04L157.104,27.04C157.549,27.04 158.174,26.328 158.174,25.926L158.174,8.08C158.174,7.633 157.549,7.009 157.104,7.009L155.854,7.009L155.854,1.298L166.516,1.298C167.41,1.298 167.945,2.056 167.945,3.26L167.945,12.094C169.952,10.042 172.674,8.526 176.287,8.526C179.41,8.526 182.356,9.819 182.356,14.147L182.356,25.926C182.356,26.371 182.98,27.04 183.426,27.04L184.141,27.04L184.141,32.529L172.585,32.529L172.585,17.895Z" style="fill:white;fill-rule:nonzero;"/>
        <path d="M194.269,18.251L199.89,18.251C199.667,15.217 198.908,14.103 197.213,14.103C195.474,14.103 194.58,15.217 194.269,18.251ZM194.224,22.847C194.537,25.836 195.696,27.131 198.373,27.131C200.783,27.131 201.987,26.283 202.879,25.122L208.009,25.122L208.009,30.789C205.868,31.993 202.745,32.93 197.347,32.93C188.155,32.93 184.453,28.335 184.453,20.884C184.453,13.344 189.316,8.526 197.213,8.526C205.199,8.526 208.948,12.273 208.948,20.527C208.948,21.642 208.857,22.535 208.857,22.847L194.224,22.847Z" style="fill:white;fill-rule:nonzero;"/>
        <path d="M222.51,32.529L215.863,32.529L215.863,22.669L222.644,22.669L223.536,26.55C224.205,26.773 225.008,26.863 226.214,26.863C228.578,26.863 230.006,26.06 230.006,24.096C230.006,21.955 227.954,21.554 224.652,20.66C220.102,19.456 215.997,17.582 215.997,10.845C215.997,3.752 220.905,0.806 227.596,0.806C230.408,0.806 232.014,1.03 233.307,1.298L239.017,1.298L239.017,10.354L232.326,10.354L231.433,7.009C230.853,6.83 230.095,6.696 229.113,6.696C226.659,6.696 225.321,7.499 225.321,9.418C225.321,11.515 227.328,11.872 229.605,12.496C237.1,14.505 239.956,16.555 239.956,22.535C239.956,29.317 236.162,33.019 227.775,33.019C225.634,33.019 224.071,32.841 222.51,32.529Z" style="fill:white;fill-rule:nonzero;"/>
        <path d="M254.186,26.595L254.186,23.071C253.607,22.98 252.893,22.892 252.313,22.892C250.752,22.892 249.904,23.472 249.904,25.212C249.904,26.907 250.841,27.353 252.045,27.353C252.893,27.353 253.517,27.085 254.186,26.595ZM240.757,26.104C240.757,20.973 244.37,18.742 249.904,18.742C251.644,18.742 252.893,18.832 254.186,19.054L254.186,17.628C254.186,15.977 253.295,15.217 251.02,15.217C248.609,15.217 247.36,16.065 246.423,16.825L242.363,16.825L242.363,10.176C244.862,9.284 248.566,8.526 253.383,8.526C260.79,8.526 263.957,10.978 263.957,16.512L263.957,25.926C263.957,26.371 264.582,27.04 265.029,27.04L265.787,27.04L265.787,31.681C264.404,32.44 262.53,32.93 260.209,32.93C257.174,32.93 255.615,31.905 254.855,30.12C253.161,32.038 250.929,32.841 248.074,32.841C244.148,32.841 240.757,30.655 240.757,26.104Z" style="fill:white;fill-rule:nonzero;"/>
        <path d="M266.233,8.971L268.554,8.971L268.554,7.946C268.554,2.636 271.631,0.672 277.254,0.672C279.483,0.672 280.867,0.985 282.028,1.342L282.028,6.428L280.822,6.428C278.993,6.428 278.324,6.741 278.324,8.302L278.324,8.971L281.849,8.971L281.849,14.816L278.324,14.816L278.324,25.926C278.324,26.371 278.948,27.04 279.395,27.04L280.912,27.04L280.912,32.529L266.367,32.529L266.367,27.04L267.483,27.04C267.928,27.04 268.554,26.371 268.554,25.926L268.554,14.816L266.233,14.816L266.233,8.971Z" style="fill:white;fill-rule:nonzero;"/>
        <path d="M291.619,18.251L297.24,18.251C297.017,15.217 296.258,14.103 294.563,14.103C292.824,14.103 291.931,15.217 291.619,18.251ZM291.574,22.847C291.887,25.836 293.046,27.131 295.723,27.131C298.133,27.131 299.338,26.283 300.229,25.122L305.36,25.122L305.36,30.789C303.218,31.993 300.095,32.93 294.697,32.93C285.505,32.93 281.804,28.335 281.804,20.884C281.804,13.344 286.666,8.526 294.563,8.526C302.549,8.526 306.298,12.273 306.298,20.527C306.298,21.642 306.208,22.535 306.208,22.847L291.574,22.847Z" style="fill:white;fill-rule:nonzero;"/>
        <path d="M306.701,8.971L309.021,8.971L309.021,2.859L318.792,2.859L318.792,8.971L322.718,8.971L322.718,14.816L318.792,14.816L318.792,24.409C318.792,26.416 319.461,27.04 321.602,27.04L322.806,27.04L322.806,32.35C321.647,32.662 319.862,33.019 317.631,33.019C312.455,33.019 309.021,31.547 309.021,26.06L309.021,14.816L306.701,14.816L306.701,8.971Z" style="fill:white;fill-rule:nonzero;"/>
        <path d="M326.286,34.894C328.472,34.359 330.613,33.465 332.398,32.038L325.215,15.843C324.991,15.351 324.411,14.816 323.921,14.816L323.297,14.816L323.297,8.971L336.905,8.971L336.905,14.816L334.539,14.816L337.662,22.624L337.841,22.624L340.161,16.825C340.606,15.798 340.295,14.816 339.134,14.816L338.733,14.816L338.733,8.971L349.976,8.971L349.976,14.816L349.307,14.816C348.816,14.816 348.059,15.53 347.746,16.199L341.677,28.959C338.823,34.849 336.413,37.615 333.648,39.757L326.286,39.757L326.286,34.894Z" style="fill:white;fill-rule:nonzero;"/>
        <path d="M374.247,26.06L367.777,19.501C367.287,20.17 366.886,21.107 366.886,22.356C366.886,24.899 368.491,26.595 371.392,26.595C372.418,26.595 373.354,26.416 374.247,26.06ZM357.07,23.516C357.07,19.009 360.014,16.288 363.629,14.816C362.647,13.298 362.2,11.693 362.2,9.597C362.2,4.376 365.725,0.806 372.508,0.806C373.935,0.806 375.987,1.074 376.656,1.298L383.617,1.298L383.617,10.354L377.013,10.354L376.3,7.454C376.032,7.365 375.719,7.276 375.094,7.276C373.266,7.276 372.551,8.08 372.551,9.597C372.551,11.114 373.444,12.05 374.916,13.523L380.136,18.875C380.627,17.36 381.029,15.664 381.251,13.79L388.747,13.79L388.747,17.761C387.722,20.082 386.606,22.311 385.356,24.275L387.23,26.149C387.944,26.773 388.257,27.04 388.881,27.04L389.194,27.04L389.194,32.529L380.315,32.529L378.664,30.878C376.3,32.172 373.444,32.885 369.83,32.885C361.309,32.885 357.07,29.183 357.07,23.516Z" style="fill:white;fill-rule:nonzero;"/>
        <path d="M125.917,68.47L127.211,68.47C127.747,68.47 128.459,67.667 128.459,67.176L128.459,49.686C128.459,49.196 127.747,48.438 127.211,48.438L125.917,48.438L125.917,42.727L141.577,42.727L141.577,48.438L138.901,48.438L138.901,55.487L146.261,55.487L146.261,48.438L143.584,48.438L143.584,42.727L159.245,42.727L159.245,48.438L157.95,48.438C157.415,48.438 156.702,49.196 156.702,49.686L156.702,67.176C156.702,67.667 157.415,68.47 157.95,68.47L159.245,68.47L159.245,73.958L143.584,73.958L143.584,68.47L146.261,68.47L146.261,60.796L138.901,60.796L138.901,68.47L141.577,68.47L141.577,73.958L125.917,73.958L125.917,68.47Z" style="fill:white;fill-rule:nonzero;"/>
        <path d="M169.33,59.681L174.95,59.681C174.728,56.646 173.969,55.532 172.274,55.532C170.534,55.532 169.641,56.646 169.33,59.681ZM169.285,64.276C169.597,67.265 170.757,68.56 173.433,68.56C175.844,68.56 177.048,67.712 177.94,66.551L183.07,66.551L183.07,72.218C180.929,73.423 177.806,74.359 172.408,74.359C163.216,74.359 159.514,69.764 159.514,62.314C159.514,54.773 164.377,49.955 172.274,49.955C180.26,49.955 184.008,53.702 184.008,61.956C184.008,63.071 183.918,63.965 183.918,64.276L169.285,64.276Z" style="fill:white;fill-rule:nonzero;"/>
        <path d="M197.928,68.025L197.928,64.5C197.349,64.41 196.634,64.321 196.054,64.321C194.493,64.321 193.645,64.901 193.645,66.641C193.645,68.336 194.582,68.782 195.786,68.782C196.634,68.782 197.258,68.515 197.928,68.025ZM184.499,67.533C184.499,62.402 188.112,60.171 193.645,60.171C195.385,60.171 196.634,60.261 197.928,60.484L197.928,59.057C197.928,57.406 197.036,56.646 194.761,56.646C192.351,56.646 191.101,57.494 190.164,58.254L186.104,58.254L186.104,51.605C188.604,50.713 192.307,49.955 197.125,49.955C204.532,49.955 207.698,52.408 207.698,57.941L207.698,67.355C207.698,67.8 208.324,68.47 208.77,68.47L209.528,68.47L209.528,73.11C208.145,73.869 206.271,74.359 203.951,74.359C200.917,74.359 199.356,73.334 198.597,71.549C196.902,73.468 194.671,74.271 191.815,74.271C187.889,74.271 184.499,72.084 184.499,67.533Z" style="fill:white;fill-rule:nonzero;"/>
        <path d="M210.063,68.47L211.358,68.47C211.803,68.47 212.429,67.8 212.429,67.355L212.429,49.552C212.429,49.107 211.803,48.438 211.358,48.438L209.975,48.438L209.975,42.727L220.771,42.727C221.664,42.727 222.199,43.485 222.199,44.689L222.199,67.355C222.199,67.8 222.823,68.47 223.27,68.47L224.608,68.47L224.608,73.958L210.063,73.958L210.063,68.47Z" style="fill:white;fill-rule:nonzero;"/>
        <path d="M224.386,50.4L226.706,50.4L226.706,44.288L236.476,44.288L236.476,50.4L240.402,50.4L240.402,56.245L236.476,56.245L236.476,65.838C236.476,67.846 237.146,68.47 239.287,68.47L240.491,68.47L240.491,73.779C239.332,74.092 237.547,74.448 235.316,74.448C230.14,74.448 226.706,72.976 226.706,67.489L226.706,56.245L224.386,56.245L224.386,50.4Z" style="fill:white;fill-rule:nonzero;"/>
        <path d="M257.712,59.324C257.712,57.583 256.909,57.227 254.857,57.227C254.455,57.227 253.741,57.272 253.072,57.361L253.072,68.47L255.66,68.47L255.66,73.958L241.115,73.958L241.115,68.47L242.231,68.47C242.676,68.47 243.301,67.757 243.301,67.355L243.301,49.509C243.301,49.062 242.676,48.438 242.231,48.438L240.981,48.438L240.981,42.727L251.644,42.727C252.537,42.727 253.072,43.485 253.072,44.689L253.072,53.523C255.079,51.471 257.801,49.955 261.414,49.955C264.537,49.955 267.483,51.248 267.483,55.576L267.483,67.355C267.483,67.8 268.107,68.47 268.554,68.47L269.268,68.47L269.268,73.958L257.712,73.958L257.712,59.324Z" style="fill:white;fill-rule:nonzero;"/>
        <path d="M276.138,68.47L277.433,68.47C277.968,68.47 278.68,67.667 278.68,67.176L278.68,49.686C278.68,49.196 277.968,48.438 277.433,48.438L276.138,48.438L276.138,42.727L302.728,42.727L302.728,52.854L296.706,52.854L295.813,48.883L289.122,48.883L289.122,54.861L296.305,54.861L296.305,61.198L289.122,61.198L289.122,67.979L295.992,67.979L296.84,63.25L303.131,63.25L303.131,73.958L276.138,73.958L276.138,68.47Z" style="fill:white;fill-rule:nonzero;"/>
        <path d="M303.979,68.47L304.247,68.47C304.871,68.47 305.54,67.8 306.032,67.31L310.135,62.223L305.898,57.272C305.406,56.737 304.96,56.245 304.47,56.245L303.846,56.245L303.846,50.4L317.765,50.4L317.765,55.934L316.025,55.934L318.747,59.012L319.907,57.54C320.486,56.825 320.264,55.934 319.327,55.934L319.193,55.934L319.193,50.4L329.989,50.4L329.989,56.245L329.722,56.245C329.143,56.245 328.474,56.87 328.027,57.406L323.877,62.357L328.206,67.444C328.696,67.979 329.186,68.47 329.678,68.47L330.123,68.47L330.123,73.958L316.293,73.958L316.293,68.737L318.077,68.737L315.267,65.571L314.152,66.954C313.437,67.934 313.839,68.737 314.732,68.737L314.866,68.737L314.866,73.958L303.979,73.958L303.979,68.47Z" style="fill:white;fill-rule:nonzero;"/>
        <path d="M330.168,62.269C330.168,54.505 335.165,49.955 343.597,49.955C347.256,49.955 350.156,50.445 351.984,51.16L351.984,58.254L346.809,58.254C346.14,56.914 345.516,56.156 343.776,56.156C341.366,56.156 340.118,57.941 340.118,62.357C340.118,66.818 341.277,68.56 343.91,68.56C345.783,68.56 346.988,67.667 347.791,66.596L352.03,66.596L352.03,72.128C350.111,73.377 347.21,74.359 343.463,74.359C334.541,74.359 330.168,69.987 330.168,62.269Z" style="fill:white;fill-rule:nonzero;"/>
        <path d="M362.56,59.681L368.18,59.681C367.958,56.646 367.198,55.532 365.504,55.532C363.764,55.532 362.871,56.646 362.56,59.681ZM362.514,64.276C362.827,67.265 363.987,68.56 366.663,68.56C369.073,68.56 370.278,67.712 371.17,66.551L376.3,66.551L376.3,72.218C374.159,73.423 371.036,74.359 365.638,74.359C356.446,74.359 352.744,69.764 352.744,62.314C352.744,54.773 357.607,49.955 365.504,49.955C373.49,49.955 377.238,53.702 377.238,61.956C377.238,63.071 377.148,63.965 377.148,64.276L362.514,64.276Z" style="fill:white;fill-rule:nonzero;"/>
        <path d="M377.728,68.47L379.023,68.47C379.468,68.47 380.094,67.8 380.094,67.355L380.094,49.552C380.094,49.107 379.468,48.438 379.023,48.438L377.64,48.438L377.64,42.727L388.436,42.727C389.329,42.727 389.864,43.485 389.864,44.689L389.864,67.355C389.864,67.8 390.488,68.47 390.935,68.47L392.273,68.47L392.273,73.958L377.728,73.958L377.728,68.47Z" style="fill:white;fill-rule:nonzero;"/>
        <path d="M392.899,68.47L394.193,68.47C394.638,68.47 395.264,67.8 395.264,67.355L395.264,49.552C395.264,49.107 394.638,48.438 394.193,48.438L392.81,48.438L392.81,42.727L403.606,42.727C404.499,42.727 405.035,43.485 405.035,44.689L405.035,67.355C405.035,67.8 405.659,68.47 406.105,68.47L407.443,68.47L407.443,73.958L392.899,73.958L392.899,68.47Z" style="fill:white;fill-rule:nonzero;"/>
        <path d="M417.483,59.681L423.104,59.681C422.881,56.646 422.122,55.532 420.427,55.532C418.688,55.532 417.794,56.646 417.483,59.681ZM417.438,64.276C417.751,67.265 418.91,68.56 421.587,68.56C423.997,68.56 425.201,67.712 426.093,66.551L431.223,66.551L431.223,72.218C429.082,73.423 425.959,74.359 420.561,74.359C411.369,74.359 407.667,69.764 407.667,62.314C407.667,54.773 412.53,49.955 420.427,49.955C428.413,49.955 432.162,53.702 432.162,61.956C432.162,63.071 432.072,63.965 432.072,64.276L417.438,64.276Z" style="fill:white;fill-rule:nonzero;"/>
        <path d="M432.831,68.47L433.947,68.47C434.392,68.47 435.061,67.757 435.061,67.355L435.061,57.361C435.061,56.914 434.392,56.245 433.947,56.245L432.697,56.245L432.697,50.4L442.914,50.4C443.806,50.4 444.43,51.069 444.654,53.657C446.706,51.516 449.428,49.955 453.13,49.955C456.253,49.955 459.199,51.248 459.199,55.576L459.199,67.355C459.199,67.8 459.868,68.47 460.314,68.47L461.027,68.47L461.027,73.958L449.472,73.958L449.472,59.324C449.472,57.583 448.625,57.227 446.616,57.227C446.215,57.227 445.502,57.272 444.788,57.361L444.788,68.47L447.419,68.47L447.419,73.958L432.831,73.958L432.831,68.47Z" style="fill:white;fill-rule:nonzero;"/>
        <path d="M461.295,62.269C461.295,54.505 466.291,49.955 474.724,49.955C478.382,49.955 481.283,50.445 483.111,51.16L483.111,58.254L477.936,58.254C477.266,56.914 476.642,56.156 474.903,56.156C472.492,56.156 471.244,57.941 471.244,62.357C471.244,66.818 472.404,68.56 475.036,68.56C476.91,68.56 478.115,67.667 478.917,66.596L483.156,66.596L483.156,72.128C481.237,73.377 478.337,74.359 474.59,74.359C465.667,74.359 461.295,69.987 461.295,62.269Z" style="fill:white;fill-rule:nonzero;"/>
        <path d="M493.686,59.681L499.307,59.681C499.084,56.646 498.325,55.532 496.63,55.532C494.891,55.532 493.997,56.646 493.686,59.681ZM493.641,64.276C493.954,67.265 495.113,68.56 497.79,68.56C500.2,68.56 501.404,67.712 502.296,66.551L507.426,66.551L507.426,72.218C505.285,73.423 502.162,74.359 496.764,74.359C487.572,74.359 483.87,69.764 483.87,62.314C483.87,54.773 488.733,49.955 496.63,49.955C504.616,49.955 508.365,53.702 508.365,61.956C508.365,63.071 508.274,63.965 508.274,64.276L493.641,64.276Z" style="fill:white;fill-rule:nonzero;"/>
        <path d="M150.459,114.006L145.685,114.006L145.685,115.612L156.08,115.612L156.08,114.006L154.786,114.006C153.894,114.006 152.957,113.159 152.6,112.177L142.963,84.381L134.575,84.381L134.575,86.032L137.029,86.032C138.011,86.032 138.501,86.701 138.145,87.683L129.311,112.311C128.954,113.292 128.106,114.006 127.08,114.006L125.875,114.006L125.875,115.612L135.78,115.612L135.78,114.006L133.281,114.006C131.541,114.006 131.229,112.891 131.898,111.062L133.906,105.395L147.469,105.395L150.459,114.006ZM140.688,86.434L140.911,86.434L146.845,103.611L134.575,103.611L140.688,86.434Z" style="fill:rgb(255,194,13);fill-rule:nonzero;"/>
        <path d="M162.728,115.612L165.182,115.612L171.25,96.026L171.295,96.026L177.273,115.612L179.727,115.612L185.661,95.58C185.973,94.509 186.776,94.018 187.624,94.018L188.561,94.018L188.561,92.323L180.352,92.323L180.352,94.018L182.136,94.018C183.341,94.018 183.832,94.866 183.475,96.115L178.79,112.222L178.701,112.222L172.633,92.323L170.402,92.323L164.334,112.222L164.245,112.222L158.891,94.018L162.461,94.018L162.461,92.323L153.85,92.323L153.85,94.018L154.92,94.018C155.768,94.018 156.482,94.643 156.794,95.669L162.728,115.612Z" style="fill:rgb(255,194,13);fill-rule:nonzero;"/>
        <path d="M197.038,115.836C200.473,115.836 202.883,114.408 204.667,112.177L204.667,112.668C204.667,114.854 206.006,115.791 208.236,115.791C209.173,115.791 209.976,115.523 210.244,115.389L210.244,113.917C210.244,113.917 209.62,114.051 209.084,114.051C207.835,114.051 207.255,113.471 207.255,112.088L207.255,98.569C207.255,93.572 204.043,92.1 199.313,92.1C195.432,92.1 192.665,93.037 190.836,94.063L190.836,96.249L192.13,96.249C193.469,95.045 195.655,93.929 199.09,93.929C202.392,93.929 204.667,95.045 204.667,98.792L204.667,102.986C202.838,102.495 200.875,102.272 198.599,102.272C193.201,102.272 189.319,104.369 189.319,109.054C189.319,113.694 192.442,115.836 197.038,115.836ZM197.395,114.051C193.915,114.051 191.818,112.579 191.818,109.054C191.818,105.44 194.629,103.968 199.046,103.968C201.053,103.968 202.927,104.235 204.667,104.637L204.667,110.259C202.883,112.445 200.875,114.051 197.395,114.051Z" style="fill:rgb(255,194,13);fill-rule:nonzero;"/>
        <path d="M212.118,115.612L222.246,115.612L222.246,114.006L217.962,114.006L217.962,98.569C220.282,95.981 222.335,94.42 225.77,94.42C226.172,94.42 226.796,94.465 226.796,94.465L226.796,92.323C226.663,92.278 226.261,92.189 225.681,92.189C222.156,92.189 219.747,94.554 217.962,96.874L217.962,93.929C217.962,92.635 217.695,92.323 217.159,92.323L211.895,92.323L211.895,94.018L214.081,94.018C214.75,94.018 215.375,94.732 215.375,95.357L215.375,112.712C215.375,113.382 214.75,114.006 214.081,114.006L212.118,114.006L212.118,115.612Z" style="fill:rgb(255,194,13);fill-rule:nonzero;"/>
        <path d="M237.683,115.791C241.654,115.791 244.509,113.694 246.249,111.285L246.249,114.14C246.294,115.122 246.472,115.612 246.919,115.612L252.139,115.612L252.139,114.006L250.131,114.006C249.506,114.006 248.837,113.337 248.837,112.668L248.837,85.184C248.837,84.694 248.659,84.381 248.212,84.381L242.323,84.381L242.323,86.032L246.249,86.032L246.249,95.446C244.732,93.661 242.189,92.1 238.397,92.1C233.444,92.1 227.912,95.134 227.912,104.235C227.912,113.203 232.864,115.791 237.683,115.791ZM237.995,114.051C234.56,114.051 230.544,112.177 230.544,104.146C230.544,96.115 234.961,94.063 238.798,94.063C242.412,94.063 244.331,95.223 246.249,97.231L246.249,109.455C244.331,111.954 241.788,114.051 237.995,114.051Z" style="fill:rgb(255,194,13);fill-rule:nonzero;"/>
        <path d="M262.177,115.791C268.156,115.791 270.966,113.248 270.966,108.786C270.966,104.637 268.2,103.298 263.292,102.495C259.099,101.782 257.269,101.023 257.269,98.123C257.269,95.491 259.143,93.885 262.98,93.885C265.166,93.885 266.148,94.018 267.129,94.42C268.066,94.821 268.289,95.491 268.513,97.32L270.208,97.32L270.208,93.215C268.78,92.635 266.772,92.1 263.025,92.1C257.849,92.1 254.949,94.42 254.949,98.435C254.949,102.718 257.671,103.878 262.177,104.637C266.416,105.351 268.557,106.243 268.557,109.099C268.557,112.4 266.282,114.096 262.132,114.096C259.812,114.096 258.697,113.828 257.582,113.426C256.689,113.069 256.377,112.266 256.198,110.125L254.458,110.125L254.458,114.497C255.931,115.077 258.028,115.791 262.177,115.791Z" style="fill:rgb(255,194,13);fill-rule:nonzero;"/>
        <g transform="matrix(1,0,0,1,0,4.7239)">
            <path d="M21.338,61.296L25.895,61.296L23.759,54.626L23.711,54.626L21.338,61.296ZM15.665,66.517L16.211,66.517C16.663,66.517 16.948,66.232 17.114,65.781L21.148,54.65C21.291,54.223 21.1,53.914 20.72,53.914L19.463,53.914L19.463,51.873L26.536,51.873L31.187,65.852C31.306,66.232 31.662,66.517 31.995,66.517L32.588,66.517L32.588,68.487L25.421,68.487L25.421,66.517L27.58,66.517L26.56,63.36L20.603,63.36L20.246,64.38C19.772,65.709 19.891,66.517 21.006,66.517L21.979,66.517L21.979,68.487L15.665,68.487L15.665,66.517Z" style="fill:rgb(35,31,32);fill-rule:nonzero;"/>
        </g>
        <g transform="matrix(1,0,0,1,0,4.7239)">
            <path d="M40.808,60.394L38.339,68.487L35.373,68.487L32.573,58.78C32.43,58.399 32.145,58.115 31.813,58.115L31.362,58.115L31.362,56.026L36.868,56.026L36.868,58.115L35.775,58.115L37.414,64.333L37.461,64.333L39.882,56.026L42.54,56.026L44.961,64.333L45.008,64.333L46.266,59.683C46.574,58.59 46.456,58.115 45.484,58.115L45.127,58.115L45.127,56.026L50.324,56.026L50.324,58.115L49.922,58.115C49.542,58.115 49.162,58.33 49.019,58.851L46.195,68.487L43.228,68.487L40.855,60.394L40.808,60.394Z" style="fill:rgb(35,31,32);fill-rule:nonzero;"/>
        </g>
        <g transform="matrix(1,0,0,1,0,4.7239)">
            <path d="M57.763,65.709L57.763,63.052C57.218,62.955 56.601,62.909 55.936,62.909C54.536,62.909 53.682,63.479 53.682,64.738C53.682,65.993 54.417,66.587 55.581,66.587C56.458,66.587 57.17,66.257 57.763,65.709ZM50.312,64.879C50.312,62.268 52.353,61.081 55.224,61.081C56.269,61.081 56.981,61.175 57.763,61.367L57.763,60.061C57.763,58.803 57.076,58.209 55.604,58.209C54.109,58.209 53.35,58.78 52.732,59.325L51.142,59.325L51.142,56.786C52.305,56.263 53.872,55.836 56.292,55.836C59.52,55.836 61.229,56.88 61.229,59.728L61.229,65.924C61.229,66.208 61.537,66.517 61.823,66.517L62.487,66.517L62.487,68.178C62.012,68.463 61.3,68.653 60.399,68.653C58.951,68.653 58.214,68.082 57.907,67.085C56.981,68.225 55.818,68.63 54.299,68.63C51.973,68.63 50.312,67.348 50.312,64.879Z" style="fill:rgb(35,31,32);fill-rule:nonzero;"/>
        </g>
        <g transform="matrix(1,0,0,1,0,4.7239)">
            <path d="M62.921,66.517L63.752,66.517C64.037,66.517 64.346,66.185 64.346,65.924L64.346,58.757C64.346,58.496 64.037,58.115 63.752,58.115L62.827,58.115L62.827,56.026L67.075,56.026C67.478,56.026 67.739,56.384 67.786,57.831C68.617,56.811 69.59,55.908 71.228,55.908C71.489,55.908 71.75,55.954 71.988,56.026L71.988,58.59L71.394,58.59C69.59,58.59 68.498,58.969 67.81,59.35L67.81,66.517L69.543,66.517L69.543,68.487L62.921,68.487L62.921,66.517Z" style="fill:rgb(35,31,32);fill-rule:nonzero;"/>
        </g>
        <g transform="matrix(1,0,0,1,0,4.7239)">
            <path d="M80.94,65.591L80.94,58.757C80.323,58.471 79.468,58.209 78.638,58.209C77,58.209 75.528,59.158 75.528,62.316C75.528,65.733 76.929,66.587 78.353,66.587C79.445,66.587 80.251,66.185 80.94,65.591ZM72.017,62.41C72.017,57.71 74.96,55.836 77.38,55.836C79.113,55.836 80.133,56.478 80.94,57.45L80.94,53.914L79.326,53.914L79.326,51.873L83.811,51.873C84.215,51.873 84.406,52.183 84.406,52.68L84.406,65.876C84.406,66.136 84.714,66.517 84.999,66.517L85.853,66.517L85.853,68.487L81.629,68.487C81.272,68.487 81.059,67.964 80.987,67.085C80.18,68.011 78.923,68.675 77.19,68.675C74.698,68.675 72.017,67.183 72.017,62.41Z" style="fill:rgb(35,31,32);fill-rule:nonzero;"/>
        </g>
        <g transform="matrix(1,0,0,1,0,4.7239)">
            <path d="M86.359,67.964L86.359,65.165L88.353,65.165C88.637,66.042 89.753,66.587 90.845,66.587C92.173,66.587 92.98,66.018 92.98,65.116C92.98,64.19 92.434,63.812 90.441,63.526C87.758,63.148 86.501,62.222 86.501,59.777C86.501,57.308 88.4,55.885 91.58,55.885C93.526,55.885 94.855,56.097 95.852,56.429L95.852,59.184L93.93,59.184C93.526,58.447 92.766,57.972 91.461,57.972C90.18,57.972 89.468,58.496 89.468,59.278C89.468,60.037 89.919,60.488 92.031,60.797C95.045,61.247 96.279,62.078 96.279,64.595C96.279,67.04 94.642,68.63 90.868,68.63C88.614,68.63 87.38,68.297 86.359,67.964Z" style="fill:rgb(35,31,32);fill-rule:nonzero;"/>
        </g>
    </g>
    <defs>
        <linearGradient id="_Linear1" x1="0" y1="0" x2="1" y2="0" gradientUnits="userSpaceOnUse" gradientTransform="matrix(85.2218,-85.2218,85.2218,85.2218,13.3909,88.6585)"><stop offset="0" style="stop-color:rgb(251,202,37);stop-opacity:1"/><stop offset="0.2" style="stop-color:rgb(255,239,171);stop-opacity:1"/><stop offset="0.3" style="stop-color:rgb(250,239,186);stop-opacity:1"/><stop offset="0.6" style="stop-color:rgb(195,148,47);stop-opacity:1"/><stop offset="0.9" style="stop-color:rgb(243,223,151);stop-opacity:1"/><stop offset="1" style="stop-color:rgb(255,251,204);stop-opacity:1"/></linearGradient>
    </defs>
</svg>
