<?xml version="1.0" encoding="UTF-8" standalone="no"?>
<!DOCTYPE svg PUBLIC "-//W3C//DTD SVG 1.1//EN" "http://www.w3.org/Graphics/SVG/1.1/DTD/svg11.dtd">
<svg width="100%" height="100%" viewBox="0 0 1600 800" version="1.1" xmlns="http://www.w3.org/2000/svg" xmlns:xlink="http://www.w3.org/1999/xlink" xml:space="preserve" xmlns:serif="http://www.serif.com/" style="fill-rule:evenodd;clip-rule:evenodd;stroke-linejoin:round;stroke-miterlimit:2;">
    <g id="hss" transform="matrix(1,0,0,1,23.0593,0.767791)">
        <g transform="matrix(3.30554,0,0,3.30554,143.19,-1699.66)">
            <rect x="56.693" y="688.82" width="270.062" height="19.842" style="fill:rgb(36,32,32);"/>
        </g>
        <g transform="matrix(3.30554,0,0,3.30554,1172.81,594.026)">
            <path d="M0,9.701L0,7.572L1.137,7.572C1.585,8.052 2.385,8.468 3.554,8.468C4.706,8.468 5.298,8.068 5.298,7.364C5.298,6.403 4.402,6.307 3.154,5.971C1.105,5.443 0.016,4.626 0.016,2.513C0.016,0.225 1.761,-0.896 4.226,-0.896C5.634,-0.896 6.755,-0.608 7.555,-0.143L7.555,1.921L6.45,1.921C5.939,1.538 5.235,1.233 4.338,1.233C3.249,1.233 2.705,1.553 2.705,2.274C2.705,3.01 3.329,3.218 4.546,3.506C7.187,4.115 8.131,4.962 8.131,7.059C8.131,9.3 6.595,10.597 3.665,10.597C2.032,10.597 0.912,10.245 0,9.701ZM-10.687,-0.752L-7.406,-0.752L-3.74,5.731L-3.692,5.731L-3.692,-0.752L-1.163,-0.752L-1.163,10.453L-3.948,10.453L-8.126,3.106L-8.175,3.106L-8.175,10.453L-10.687,10.453L-10.687,-0.752ZM-15.036,4.899C-15.036,2.37 -16.028,1.265 -17.437,1.265C-18.845,1.265 -19.838,2.37 -19.838,4.899C-19.838,7.412 -18.845,8.5 -17.437,8.5C-16.028,8.5 -15.036,7.412 -15.036,4.899ZM-22.96,4.867C-22.96,1.169 -20.446,-0.896 -17.437,-0.896C-14.428,-0.896 -11.899,1.169 -11.899,4.867C-11.899,8.564 -14.396,10.597 -17.437,10.597C-20.478,10.597 -22.96,8.564 -22.96,4.867ZM-24.238,10.453L-27.327,10.453L-27.327,-0.752L-24.238,-0.752L-24.238,10.453ZM-34.558,10.453L-34.558,1.377L-37.439,1.377L-37.439,-0.752L-28.588,-0.752L-28.588,1.377L-31.485,1.377L-31.485,10.453L-34.558,10.453ZM-41.164,6.179L-41.164,-0.752L-38.619,-0.752L-38.619,6.195C-38.619,9.028 -40.012,10.58 -43.18,10.58C-46.35,10.58 -47.999,9.012 -47.999,6.195L-47.999,-0.752L-44.926,-0.752L-44.926,6.179C-44.926,7.86 -44.254,8.356 -42.989,8.356C-41.772,8.356 -41.164,7.86 -41.164,6.179ZM-56.224,10.453L-56.224,-0.752L-53.151,-0.752L-53.151,8.34L-48.749,8.34L-48.749,10.453L-56.224,10.453ZM-60.605,4.899C-60.605,2.37 -61.597,1.265 -63.006,1.265C-64.415,1.265 -65.407,2.37 -65.407,4.899C-65.407,7.412 -64.415,8.5 -63.006,8.5C-61.597,8.5 -60.605,7.412 -60.605,4.899ZM-68.528,4.867C-68.528,1.169 -66.015,-0.896 -63.006,-0.896C-59.997,-0.896 -57.468,1.169 -57.468,4.867C-57.468,8.564 -59.965,10.597 -63.006,10.597C-66.048,10.597 -68.528,8.564 -68.528,4.867ZM-77.408,9.701L-77.408,7.572L-76.271,7.572C-75.823,8.052 -75.023,8.468 -73.854,8.468C-72.702,8.468 -72.11,8.068 -72.11,7.364C-72.11,6.403 -73.007,6.307 -74.255,5.971C-76.303,5.443 -77.392,4.626 -77.392,2.513C-77.392,0.225 -75.647,-0.896 -73.182,-0.896C-71.774,-0.896 -70.653,-0.608 -69.853,-0.143L-69.853,1.921L-70.958,1.921C-71.47,1.538 -72.174,1.233 -73.07,1.233C-74.159,1.233 -74.703,1.553 -74.703,2.274C-74.703,3.01 -74.079,3.218 -72.862,3.506C-70.221,4.115 -69.277,4.962 -69.277,7.059C-69.277,9.3 -70.813,10.597 -73.743,10.597C-75.376,10.597 -76.496,10.245 -77.408,9.701ZM-89.071,-0.752L-81.356,-0.752L-81.356,1.393L-86.014,1.393L-86.014,3.778L-82.733,3.778L-82.733,5.795L-86.014,5.795L-86.014,8.371L-81.196,8.371L-81.196,10.453L-89.071,10.453L-89.071,-0.752ZM-100.4,4.914C-100.4,1.185 -98.207,-0.896 -94.525,-0.896C-93.069,-0.896 -92.156,-0.656 -91.164,-0.192L-91.164,2.017L-92.301,2.017C-92.797,1.633 -93.389,1.313 -94.493,1.313C-96.254,1.313 -97.23,2.274 -97.23,4.867C-97.23,7.476 -96.478,8.548 -94.893,8.548C-94.302,8.548 -93.933,8.484 -93.613,8.388L-93.613,6.339L-94.941,6.339L-94.941,4.483L-90.7,4.483L-90.7,9.748C-91.868,10.325 -93.309,10.597 -94.878,10.597C-98.527,10.597 -100.4,8.548 -100.4,4.914ZM-107.166,5.843L-104.845,5.843L-105.997,2.066L-106.029,2.066L-107.166,5.843ZM-110.975,9.733L-107.406,-0.752L-104.076,-0.752L-100.459,9.733L-100.459,10.453L-103.436,10.453L-104.22,7.924L-107.79,7.924L-108.542,10.453L-110.975,10.453L-110.975,9.733ZM-117.79,4.338L-116.813,4.338C-115.677,4.338 -115.18,3.827 -115.18,2.833C-115.18,1.841 -115.677,1.33 -116.813,1.33L-117.79,1.33L-117.79,4.338ZM-116.589,6.339L-117.758,6.339L-117.758,10.453L-120.831,10.453L-120.831,-0.752L-116.621,-0.752C-113.643,-0.752 -112.139,0.433 -112.139,2.673C-112.139,4.082 -112.763,5.075 -113.803,5.666L-111.579,9.733L-111.579,10.453L-114.428,10.453L-116.589,6.339ZM-125.18,4.899C-125.18,2.37 -126.172,1.265 -127.581,1.265C-128.99,1.265 -129.982,2.37 -129.982,4.899C-129.982,7.412 -128.99,8.5 -127.581,8.5C-126.172,8.5 -125.18,7.412 -125.18,4.899ZM-133.104,4.867C-133.104,1.169 -130.59,-0.896 -127.581,-0.896C-124.572,-0.896 -122.043,1.169 -122.043,4.867C-122.043,8.564 -124.54,10.597 -127.581,10.597C-130.622,10.597 -133.104,8.564 -133.104,4.867ZM-139.251,10.453L-139.251,1.377L-142.132,1.377L-142.132,-0.752L-133.281,-0.752L-133.281,1.377L-136.178,1.377L-136.178,10.453L-139.251,10.453ZM-150.644,9.701L-150.644,7.572L-149.507,7.572C-149.059,8.052 -148.259,8.468 -147.09,8.468C-145.938,8.468 -145.346,8.068 -145.346,7.364C-145.346,6.403 -146.242,6.307 -147.491,5.971C-149.539,5.443 -150.628,4.626 -150.628,2.513C-150.628,0.225 -148.883,-0.896 -146.418,-0.896C-145.01,-0.896 -143.889,-0.608 -143.089,-0.143L-143.089,1.921L-144.194,1.921C-144.705,1.538 -145.409,1.233 -146.306,1.233C-147.395,1.233 -147.939,1.553 -147.939,2.274C-147.939,3.01 -147.315,3.218 -146.098,3.506C-143.457,4.115 -142.513,4.962 -142.513,7.059C-142.513,9.3 -144.049,10.597 -146.979,10.597C-148.612,10.597 -149.732,10.245 -150.644,9.701ZM-159.038,8.148L-161.423,5.491C-161.791,5.827 -162.047,6.275 -162.047,6.915C-162.047,7.86 -161.471,8.564 -160.271,8.564C-159.806,8.564 -159.39,8.404 -159.038,8.148ZM-157.677,9.668C-158.51,10.261 -159.502,10.58 -160.735,10.58C-163.504,10.58 -164.912,9.268 -164.912,7.251C-164.912,5.699 -163.84,4.674 -162.608,4.098C-162.928,3.538 -163.119,2.946 -163.119,2.194C-163.119,0.385 -161.759,-0.896 -159.246,-0.896C-157.965,-0.896 -157.165,-0.608 -156.589,-0.192L-156.589,1.746L-157.726,1.746C-157.982,1.489 -158.382,1.233 -159.102,1.233C-159.758,1.233 -160.191,1.601 -160.191,2.209C-160.191,2.722 -159.934,3.074 -159.39,3.666L-157.358,5.971C-157.07,5.283 -156.813,4.466 -156.749,3.682L-154.476,3.682L-154.476,4.466C-154.733,5.651 -155.229,6.803 -155.805,7.747L-154.06,9.733L-154.06,10.453L-156.957,10.453L-157.677,9.668ZM-178.56,4.914C-178.56,1.185 -176.367,-0.896 -172.686,-0.896C-171.229,-0.896 -170.317,-0.656 -169.324,-0.192L-169.324,2.017L-170.46,2.017C-170.957,1.633 -171.549,1.313 -172.654,1.313C-174.414,1.313 -175.391,2.274 -175.391,4.867C-175.391,7.476 -174.638,8.548 -173.054,8.548C-172.461,8.548 -172.093,8.484 -171.773,8.388L-171.773,6.339L-173.102,6.339L-173.102,4.483L-168.86,4.483L-168.86,9.748C-170.029,10.325 -171.469,10.597 -173.037,10.597C-176.687,10.597 -178.56,8.548 -178.56,4.914ZM-189.312,-0.752L-186.031,-0.752L-182.365,5.731L-182.317,5.731L-182.317,-0.752L-179.787,-0.752L-179.787,10.453L-182.572,10.453L-186.75,3.106L-186.799,3.106L-186.799,10.453L-189.312,10.453L-189.312,-0.752ZM-191.071,10.453L-194.16,10.453L-194.16,-0.752L-191.071,-0.752L-191.071,10.453ZM-202.959,10.453L-202.959,-0.752L-199.886,-0.752L-199.886,8.34L-195.484,8.34L-195.484,10.453L-202.959,10.453ZM-210.27,8.388C-208.269,8.388 -207.324,7.427 -207.324,4.867C-207.324,2.305 -208.237,1.377 -210.27,1.377L-211.022,1.377L-211.022,8.388L-210.27,8.388ZM-214.095,-0.752L-210.126,-0.752C-206.252,-0.752 -204.188,1.041 -204.188,4.787C-204.188,8.564 -206.237,10.453 -210.222,10.453L-214.095,10.453L-214.095,-0.752ZM-225.326,-0.752L-222.045,-0.752L-218.38,5.731L-218.332,5.731L-218.332,-0.752L-215.803,-0.752L-215.803,10.453L-218.588,10.453L-222.766,3.106L-222.814,3.106L-222.814,10.453L-225.326,10.453L-225.326,-0.752ZM-233.133,5.843L-230.813,5.843L-231.965,2.066L-231.997,2.066L-233.133,5.843ZM-236.943,9.733L-233.373,-0.752L-230.044,-0.752L-226.427,9.733L-226.427,10.453L-229.404,10.453L-230.188,7.924L-233.758,7.924L-234.51,10.453L-236.943,10.453L-236.943,9.733ZM-247.647,10.453L-247.647,-0.752L-244.574,-0.752L-244.574,3.666L-241.132,3.666L-241.132,-0.752L-238.059,-0.752L-238.059,10.453L-241.132,10.453L-241.132,5.827L-244.574,5.827L-244.574,10.453L-247.647,10.453" style="fill:white;fill-rule:nonzero;"/>
        </g>
        <g transform="matrix(3.30554,0,0,3.30554,1070.77,227.28)">
            <path d="M0,76.009L0,75.992L1.016,75.992L1.015,75.947L2.029,75.971C7.923,75.971 11.963,74.287 11.963,70.583C11.963,66.879 9.102,65.869 -2.348,64.691C-21.71,62.502 -32.99,55.599 -32.99,35.563C-32.99,15.023 -17.164,5.594 7.754,5.594C24.086,5.594 34.188,7.446 42.774,10.14L42.774,33.375L23.58,33.375C20.887,29.502 16.341,27.145 9.438,27.145C2.029,27.145 -0.496,28.829 -0.496,31.859C-0.496,34.89 2.198,35.9 12.805,37.247C34.861,39.941 46.142,45.16 46.142,65.869C46.142,86.578 33.683,97.69 4.05,97.69C-8.7,97.69 -27.563,96.3 -41.74,94.969C-33.597,89.67 -29.873,81.308 -29.817,70.122C-23.042,73.868 -13.279,75.936 0,76.009ZM-77.608,97.69C-87.03,97.69 -103.018,97.033 -117.176,96.041L-117.176,96.175L-160.783,96.175L-160.783,40.951C-160.783,34.384 -163.813,33.038 -171.558,33.038C-173.073,33.038 -175.767,33.206 -178.292,33.543L-178.292,75.466L-168.527,75.466L-168.527,96.175L-223.415,96.175L-223.415,75.466L-219.206,75.466C-217.522,75.466 -215.165,72.772 -215.165,71.257L-215.165,3.91C-215.165,2.227 -217.522,-0.13 -219.206,-0.13L-223.92,-0.13L-223.92,-21.681L-183.68,-21.681C-180.313,-21.681 -178.292,-18.819 -178.292,-14.273L-178.292,19.064C-170.716,11.319 -160.446,5.594 -146.808,5.594C-135.023,5.594 -123.911,10.477 -123.911,26.808L-123.911,69.327C-116.422,73.46 -85.759,75.971 -79.629,75.971C-73.736,75.971 -69.695,74.287 -69.695,70.583C-69.695,66.879 -72.558,65.869 -84.006,64.691C-103.368,62.502 -114.649,55.599 -114.649,35.563C-114.649,15.023 -98.822,5.594 -73.904,5.594C-57.573,5.594 -47.471,7.446 -38.885,10.14L-38.885,33.375L-58.078,33.375C-60.771,29.502 -65.317,27.145 -72.221,27.145C-79.629,27.145 -82.154,28.829 -82.154,31.859C-82.154,34.89 -79.46,35.9 -68.853,37.247C-46.798,39.941 -35.517,45.16 -35.517,65.869C-35.517,86.578 -47.976,97.69 -77.608,97.69" style="fill:url(#_Linear1);"/>
        </g>
    </g>
    <defs>
        <linearGradient id="_Linear1" x1="0" y1="0" x2="1" y2="0" gradientUnits="userSpaceOnUse" gradientTransform="matrix(176.112,-176.112,176.112,176.112,-189.693,129.896)"><stop offset="0" style="stop-color:rgb(237,33,39);stop-opacity:1"/><stop offset="1" style="stop-color:rgb(139,23,26);stop-opacity:1"/></linearGradient>
    </defs>
</svg>
