<?xml version="1.0" encoding="UTF-8" standalone="no"?>
<!DOCTYPE svg PUBLIC "-//W3C//DTD SVG 1.1//EN" "http://www.w3.org/Graphics/SVG/1.1/DTD/svg11.dtd">
<svg width="100%" height="100%" viewBox="0 0 1442 285" version="1.1" xmlns="http://www.w3.org/2000/svg" xmlns:xlink="http://www.w3.org/1999/xlink" xml:space="preserve" xmlns:serif="http://www.serif.com/" style="fill-rule:evenodd;clip-rule:evenodd;stroke-linejoin:round;stroke-miterlimit:2;">
    <g transform="matrix(1,0,0,1,0,-64.4051)">
        <g transform="matrix(0.631533,0,0,0.631533,721,206.5)">
            <g transform="matrix(1,0,0,1,-1141.67,-225)">
                <g transform="matrix(4.16667,0,0,4.16667,0,0)">
                    <path d="M44.27,0.284L0,25.749L0,59.037L13.621,66.877L13.621,41.411L34.054,53.167L47.678,45.331L20.376,29.667L44.27,15.956L57.894,8.121L44.27,0.284Z" style="fill:rgb(210,34,41);fill-rule:nonzero;"/>
                    <path d="M51.08,19.873L74.914,33.58L88.54,25.746L64.702,12.037L51.08,19.873ZM74.918,33.583L74.918,74.71L51.081,88.42L51.081,51.206L37.459,59.039L37.459,88.416L13.593,74.728L0,66.872L0,82.539L44.27,108L88.542,82.543L88.54,25.746L74.918,33.583Z" style="fill:white;fill-rule:nonzero;"/>
                    <path d="M524.884,44.432L524.884,46.689L534.806,46.689L534.806,75.813L537.19,75.813L537.19,46.689L547.111,46.689L547.111,44.432L524.884,44.432ZM518.838,44.432L518.838,72.024L518.284,72.024L503.297,44.432L499.507,44.432L499.507,75.813L501.934,75.813L501.934,48.222L502.829,48.222L517.815,75.813L521.265,75.813L521.265,44.432L518.838,44.432ZM474.173,44.432L474.173,75.813L494.143,75.813L494.143,73.557L476.599,73.557L476.599,60.358L491.971,60.358L491.971,58.143L476.599,58.143L476.599,46.689L494.143,46.689L494.143,44.432L474.173,44.432ZM467.871,44.432L457.779,73.515L456.842,73.515L446.751,44.432L444.282,44.432L455.31,75.813L459.312,75.813L470.383,44.432L467.871,44.432ZM422.183,44.432L422.183,75.813L442.152,75.813L442.152,73.557L424.61,73.557L424.61,60.358L439.982,60.358L439.982,58.143L424.61,58.143L424.61,46.689L442.152,46.689L442.152,44.432L422.183,44.432ZM379.688,44.432L379.688,75.813L407.067,75.813L407.067,67.425L391.824,67.425L391.824,63.508L405.279,63.508L405.279,56.738L391.824,56.738L391.824,52.821L407.067,52.821L407.067,44.432L379.688,44.432ZM353.204,44.432L348.478,48.478L348.478,59.804L353.204,63.806L365.211,63.849L365.211,67.595L349.798,67.595L349.798,75.813L372.28,75.813L377.006,71.769L377.006,60.059L372.28,56.056L360.23,56.014L360.23,52.565L375.473,52.565L375.473,44.432L353.204,44.432ZM333.66,44.432L333.66,69.299L327.997,69.299L327.997,44.432L315.862,44.432L315.862,71.769L320.589,75.813L341.069,75.813L345.796,71.769L345.796,44.432L333.66,44.432ZM287.206,44.432L282.479,48.478L282.479,71.769L287.206,75.813L308.197,75.813L312.924,71.769L312.924,48.478L308.197,44.432L287.206,44.432ZM294.615,50.947L300.789,50.947L300.789,69.299L294.615,69.299L294.615,50.947ZM267.406,44.432L267.406,55.461L261.359,55.461L261.359,44.432L249.224,44.432L249.224,75.813L261.359,75.813L261.359,63.806L267.406,63.806L267.406,75.813L279.541,75.813L279.541,44.432L267.406,44.432ZM218.695,44.432L218.695,75.813L246.074,75.813L246.074,67.425L230.83,67.425L230.83,63.508L244.285,63.508L244.285,56.738L230.83,56.738L230.83,52.821L246.074,52.821L246.074,44.432L218.695,44.432ZM185.61,44.432L185.61,75.813L197.746,75.813L197.746,66.106L201.834,66.106L205.027,75.813L216.949,75.813L212.819,64.402L215.544,62.103L215.544,48.478L210.817,44.432L185.61,44.432ZM197.746,50.947L203.877,50.947L203.877,59.591L197.746,59.591L197.746,50.947ZM155.975,44.432L149.034,75.813L161.723,75.813L162.447,71.173L170.452,71.173L171.176,75.813L183.864,75.813L176.967,44.432L155.975,44.432ZM165.555,51.628L167.344,51.628L169.217,63.465L163.682,63.465L165.555,51.628ZM137.963,44.432L136.303,67.894L134.514,67.894L132.854,44.432L122.89,44.432L121.23,67.894L119.484,67.894L117.823,44.432L105.603,44.432L105.603,55.545L111.99,75.813L124.977,75.813L127.915,68.532L130.768,75.813L143.797,75.813L150.141,55.545L150.141,44.432L137.963,44.432Z" style="fill:white;fill-rule:nonzero;"/>
                    <path d="M117.738,38.243L117.738,15.25L126.04,15.25L126.04,6.862L97.299,6.862L97.299,15.25L105.603,15.25L105.603,38.243L117.738,38.243ZM153.292,38.243L158.018,34.198L158.018,10.907L153.292,6.862L132.299,6.862L127.574,10.907L127.574,34.198L132.299,38.243L153.292,38.243ZM139.708,13.376L145.883,13.376L145.883,31.728L139.708,31.728L139.708,13.376ZM171.857,38.243L171.857,21.977L176.284,36.284L180.926,36.284L185.27,22.063L185.27,38.243L196.169,38.243L196.169,6.862L184.461,6.862L178.585,22.148L172.708,6.862L160.957,6.862L160.957,38.243L171.857,38.243ZM224.826,38.243L229.552,34.198L229.552,10.907L224.826,6.862L203.833,6.862L199.108,10.907L199.108,34.198L203.833,38.243L224.826,38.243ZM211.242,13.376L217.417,13.376L217.417,31.728L211.242,31.728L211.242,13.376ZM244.625,38.243L244.625,28.535L248.712,28.535L251.906,38.243L263.828,38.243L259.698,26.832L262.423,24.532L262.423,10.907L257.696,6.862L232.49,6.862L232.49,38.243L244.625,38.243ZM244.625,13.376L250.757,13.376L250.757,22.02L244.625,22.02L244.625,13.376ZM277.71,38.243L277.71,28.535L281.797,28.535L284.991,38.243L296.913,38.243L292.783,26.832L295.508,24.532L295.508,10.907L290.781,6.862L265.574,6.862L265.574,38.243L277.71,38.243ZM277.71,13.376L283.841,13.376L283.841,22.02L277.71,22.02L277.71,13.376ZM323.909,38.243L328.634,34.198L328.634,10.907L323.909,6.862L302.917,6.862L298.19,10.907L298.19,34.198L302.917,38.243L323.909,38.243ZM310.326,13.376L316.499,13.376L316.499,31.728L310.326,31.728L310.326,13.376ZM350.947,38.243L353.884,30.962L356.737,38.243L369.767,38.243L376.111,17.975L376.111,6.862L363.934,6.862L362.272,30.323L360.484,30.323L358.823,6.862L348.861,6.862L347.199,30.323L345.453,30.323L343.793,6.862L331.573,6.862L331.573,17.975L337.96,38.243L350.947,38.243ZM385.861,19.848L391.695,6.862L381.348,6.862L379.219,19.848L385.861,19.848ZM417.924,38.243L422.65,34.198L422.65,22.488L417.924,18.486L405.874,18.443L405.874,14.994L421.117,14.994L421.117,6.862L398.848,6.862L394.122,10.907L394.122,22.233L398.848,26.235L410.855,26.278L410.855,30.025L395.441,30.025L395.441,38.243L417.924,38.243Z" style="fill:rgb(210,34,41);fill-rule:nonzero;"/>
                    <path d="M108.902,93.96L113.795,93.96L115.439,92.214L115.439,88.134L114.12,86.794L108.902,86.794L107.563,88.134L107.583,92.62L108.902,93.96ZM108.375,100.719L106.304,98.629L107.055,97.878L108.841,99.685L114.12,99.685L115.439,98.345L115.439,93.412L113.937,94.995L108.415,94.995L106.426,93.006L106.426,87.769L108.415,85.759L114.607,85.759L116.596,87.769L116.596,98.71L114.607,100.719L108.375,100.719Z" style="fill:white;fill-rule:nonzero;"/>
                    <path d="M125.386,100.719L123.396,98.71L123.396,95.3L124.533,95.3L124.553,98.345L125.873,99.685L129.304,99.685L130.623,98.345L130.623,85.759L131.78,85.759L131.78,98.71L129.791,100.719L125.386,100.719Z" style="fill:white;fill-rule:nonzero;"/>
                    <path d="M136.896,100.719L134.906,98.71L134.906,85.759L136.043,85.759L136.043,98.345L137.363,99.685L143.189,99.685L144.508,98.345L144.508,85.759L145.666,85.759L145.666,98.71L143.676,100.719L136.896,100.719Z" style="fill:white;fill-rule:nonzero;"/>
                    <path d="M148.791,100.719L148.791,85.759L150.598,85.759L157.744,98.913L158.007,98.913L158.007,85.759L159.165,85.759L159.165,100.719L157.52,100.719L150.375,87.565L149.948,87.565L149.948,100.719L148.791,100.719Z" style="fill:white;fill-rule:nonzero;"/>
                    <path d="M162.514,100.719L162.514,85.759L172.035,85.759L172.035,86.835L163.671,86.835L163.671,92.295L171,92.295L171,93.351L163.671,93.351L163.671,99.644L172.035,99.644L172.035,100.719L162.514,100.719Z" style="fill:white;fill-rule:nonzero;"/>
                    <path d="M178.53,100.719L178.53,99.035L186.894,90.204L186.894,88.134L185.554,86.794L181.027,86.794L179.261,88.661L178.489,87.931L180.56,85.759L186.041,85.759L188.03,87.769L188.03,90.651L179.789,99.38L179.789,99.644L188.355,99.644L188.355,100.719L178.53,100.719Z" style="fill:white;fill-rule:nonzero;"/>
                    <path d="M193.268,99.685L198.627,99.685L199.947,98.345L199.947,88.134L198.627,86.794L193.268,86.794L191.948,88.134L191.948,98.345L193.268,99.685ZM192.801,100.719L190.812,98.71L190.812,87.769L192.801,85.759L199.114,85.759L201.084,87.769L201.084,98.71L199.114,100.719L192.801,100.719Z" style="fill:white;fill-rule:nonzero;"/>
                    <path d="M203.621,100.719L203.621,99.035L211.984,90.204L211.984,88.134L210.644,86.794L206.117,86.794L204.351,88.661L203.58,87.931L205.65,85.759L211.131,85.759L213.121,87.769L213.121,90.651L204.879,99.38L204.879,99.644L213.446,99.644L213.446,100.719L203.621,100.719Z" style="fill:white;fill-rule:nonzero;"/>
                    <path d="M215.74,100.719L215.74,99.035L224.103,90.204L224.103,88.134L222.763,86.794L218.236,86.794L216.47,88.661L215.699,87.931L217.77,85.759L223.251,85.759L225.24,87.769L225.24,90.651L216.998,99.38L216.998,99.644L225.565,99.644L225.565,100.719L215.74,100.719Z" style="fill:white;fill-rule:nonzero;"/>
                    <path d="M261.129,100.719L259.139,98.71L259.139,87.769L261.129,85.759L267.584,85.759L269.655,87.85L268.944,88.601L267.158,86.794L261.596,86.794L260.276,88.134L260.276,98.345L261.596,99.685L267.28,99.685L269.106,97.837L269.837,98.568L267.706,100.719L261.129,100.719Z" style="fill:white;fill-rule:nonzero;"/>
                    <path d="M273.268,99.685L279.967,99.685L281.287,98.345L281.287,94.873L279.825,93.351L273.268,93.351L273.268,99.685ZM273.268,92.295L279.541,92.295L280.414,90.976L280.414,88.134L279.094,86.794L273.268,86.794L273.268,92.295ZM272.111,100.719L272.111,85.759L279.561,85.759L281.55,87.769L281.55,91.26L280.617,92.681L282.444,94.589L282.444,98.71L280.455,100.719L272.111,100.719Z" style="fill:white;fill-rule:nonzero;"/>
                    <path d="M284.941,100.719L284.941,99.644L292.249,99.644L293.568,98.304L293.568,94.853L292.249,93.514L286.362,93.514L284.373,91.523L284.373,87.769L286.362,85.759L293.974,85.759L293.974,86.835L286.849,86.835L285.529,88.175L285.529,91.138L286.849,92.478L292.736,92.478L294.725,94.487L294.725,98.71L292.736,100.719L284.941,100.719Z" style="fill:white;fill-rule:nonzero;"/>
                    <path d="M303.454,95.522L309.929,95.522L306.905,86.855L306.478,86.855L303.454,95.522ZM300.469,100.719L305.727,85.759L307.656,85.759L312.914,100.719L311.715,100.719L310.275,96.578L303.109,96.578L301.668,100.719L300.469,100.719Z" style="fill:white;fill-rule:nonzero;"/>
                    <path d="M315.877,93.311L321.907,93.311L323.226,91.971L323.226,88.134L321.907,86.794L315.877,86.794L315.877,93.311ZM314.72,100.719L314.72,85.759L322.374,85.759L324.363,87.769L324.363,92.336L322.374,94.346L321.947,94.346L324.952,100.719L323.713,100.719L320.729,94.346L315.877,94.346L315.877,100.719L314.72,100.719Z" style="fill:white;fill-rule:nonzero;"/>
                    <path d="M327.692,100.719L327.692,85.759L337.212,85.759L337.212,86.835L328.849,86.835L328.849,92.295L336.177,92.295L336.177,93.351L328.849,93.351L328.849,99.644L337.212,99.644L337.212,100.719L327.692,100.719Z" style="fill:white;fill-rule:nonzero;"/>
                    <path d="M339.75,100.719L339.75,85.759L341.556,85.759L348.702,98.913L348.966,98.913L348.966,85.759L350.123,85.759L350.123,100.719L348.479,100.719L341.334,87.565L340.907,87.565L340.907,100.719L339.75,100.719Z" style="fill:white;fill-rule:nonzero;"/>
                    <path d="M354.914,95.522L361.389,95.522L358.365,86.855L357.938,86.855L354.914,95.522ZM351.929,100.719L357.187,85.759L359.116,85.759L364.374,100.719L363.175,100.719L361.735,96.578L354.569,96.578L353.127,100.719L351.929,100.719Z" style="fill:white;fill-rule:nonzero;"/>
                    <path d="M398.963,100.719L396.974,98.71L396.974,87.769L398.963,85.759L405.418,85.759L407.489,87.85L406.779,88.601L404.993,86.794L399.43,86.794L398.111,88.134L398.111,98.345L399.43,99.685L405.114,99.685L406.941,97.837L407.671,98.568L405.541,100.719L398.963,100.719Z" style="fill:white;fill-rule:nonzero;"/>
                    <path d="M412.077,99.685L417.943,99.685L419.263,98.345L419.263,88.134L417.943,86.794L412.077,86.794L410.757,88.134L410.757,98.345L412.077,99.685ZM411.61,100.719L409.621,98.71L409.621,87.769L411.61,85.759L418.41,85.759L420.4,87.769L420.4,98.71L418.41,100.719L411.61,100.719Z" style="fill:white;fill-rule:nonzero;"/>
                    <path d="M427.098,100.719L421.84,85.759L423.018,85.759L427.83,99.623L428.276,99.623L433.086,85.759L434.285,85.759L429.006,100.719L427.098,100.719Z" style="fill:white;fill-rule:nonzero;"/>
                    <path d="M436.071,100.719L436.071,85.759L445.591,85.759L445.591,86.835L437.228,86.835L437.228,92.295L444.556,92.295L444.556,93.351L437.228,93.351L437.228,99.644L445.591,99.644L445.591,100.719L436.071,100.719Z" style="fill:white;fill-rule:nonzero;"/>
                    <path d="M448.129,100.719L448.129,85.759L449.936,85.759L457.082,98.913L457.346,98.913L457.346,85.759L458.502,85.759L458.502,100.719L456.859,100.719L449.713,87.565L449.287,87.565L449.287,100.719L448.129,100.719Z" style="fill:white;fill-rule:nonzero;"/>
                    <path d="M464.938,100.719L464.938,86.835L460.208,86.835L460.208,85.759L470.804,85.759L470.804,86.835L466.075,86.835L466.075,100.719L464.938,100.719Z" style="fill:white;fill-rule:nonzero;"/>
                    <path d="M473.667,93.311L479.696,93.311L481.015,91.971L481.015,88.134L479.696,86.794L473.667,86.794L473.667,93.311ZM472.509,100.719L472.509,85.759L480.163,85.759L482.152,87.769L482.152,92.336L480.163,94.346L479.736,94.346L482.741,100.719L481.502,100.719L478.518,94.346L473.667,94.346L473.667,100.719L472.509,100.719Z" style="fill:white;fill-rule:nonzero;"/>
                    <path d="M488.932,100.719L488.932,94.224L483.714,85.759L484.994,85.759L489.358,92.863L489.663,92.863L494.006,85.759L495.306,85.759L490.089,94.224L490.089,100.719L488.932,100.719Z" style="fill:white;fill-rule:nonzero;"/>
                    <path d="M237.757,93.208L242.818,88.147L247.878,93.208L242.818,98.269L237.757,93.208Z" style="fill:rgb(210,34,41);fill-rule:nonzero;"/>
                    <path d="M374.767,93.208L379.828,88.147L384.889,93.208L379.828,98.269L374.767,93.208Z" style="fill:rgb(210,34,41);fill-rule:nonzero;"/>
                </g>
            </g>
        </g>
    </g>
</svg>
