<svg width="24" height="24" xmlns="http://www.w3.org/2000/svg">

 <g>
  <title>background</title>
  <rect fill="none" id="canvas_background" height="26" width="26" y="-1" x="-1"/>
 </g>
 <g>
  <title>Layer 1</title>
  <path fill="#c92c33" id="svg_1" d="m23.72229,18.783655q0,0.450094 -0.166698,1.175236t-0.350075,1.141901q-0.350069,0.833502 -2.033743,1.767027q-1.566984,0.85017 -3.100622,0.85017q-0.450092,0 -0.875181,-0.058346t-0.958527,-0.208378t-0.791829,-0.241714t-0.925179,-0.341732t-0.816834,-0.300062q-1.633663,-0.583454 -2.917256,-1.383615q-2.133763,-1.316933 -4.409224,-3.592392t-3.592392,-4.409224q-0.800163,-1.283591 -1.383613,-2.917254q-0.05001,-0.150031 -0.300062,-0.816833t-0.341736,-0.925187t-0.241714,-0.791826t-0.208375,-0.958528t-0.058346,-0.875176q0,-1.533644 0.85017,-3.100628q0.933524,-1.683674 1.767024,-2.033745q0.416751,-0.18337 1.141898,-0.35007t1.175236,-0.166701q0.233382,0 0.350071,0.05001q0.30006,0.10002 0.883512,1.266922q0.183371,0.316731 0.500101,0.900183t0.583452,1.058547t0.516768,0.891848q0.050012,0.066681 0.291726,0.41675t0.358405,0.591787t0.116693,0.475096q0,0.333399 -0.475099,0.833501t-1.033541,0.916851t-1.033541,0.883512t-0.475097,0.766822q0,0.150031 0.083352,0.375077t0.141693,0.341736t0.23338,0.400082t0.191707,0.316728q1.266922,2.283792 2.900587,3.917458t3.917458,2.900586q0.03334,0.016672 0.31673,0.19171t0.400082,0.233377t0.341736,0.141693t0.375071,0.083353q0.300067,0 0.766828,-0.475096t0.88351,-1.033543t0.916855,-1.03354t0.833502,-0.475095q0.233377,0 0.475094,0.11669t0.591787,0.358405t0.416754,0.291719q0.416748,0.250054 0.891844,0.516774t1.058546,0.58345t0.900183,0.500101q1.166899,0.583452 1.266922,0.883512q0.050009,0.116692 0.050009,0.350069z"/>
 </g>
</svg>