<svg width="30.000000000000004" height="25" xmlns="http://www.w3.org/2000/svg">

 <g>
  <title>background</title>
  <rect fill="none" id="canvas_background" height="27" width="32" y="-1" x="-1"/>
 </g>
 <g>
  <title>Layer 1</title>
  <path fill="#ffffff" id="svg_1" d="m29.691822,3.300199c-1.08807,0.483654 -2.259052,0.809894 -3.487711,0.955891c1.254494,-0.751014 2.216394,-1.940621 2.670008,-3.359738c-1.173388,0.69634 -2.472342,1.201623 -3.85601,1.474391c-1.107296,-1.179994 -2.685627,-1.91779 -4.432186,-1.91779c-3.35313,0 -6.071801,2.718673 -6.071801,6.072401c0,0.475242 0.053472,0.938468 0.157412,1.383669c-5.046817,-0.253543 -9.521661,-2.670607 -12.516706,-6.344569c-0.522706,0.896411 -0.82191,1.93942 -0.82191,3.053323c0,2.106445 1.071848,3.965357 2.701249,5.054028c-0.994944,-0.031842 -1.931609,-0.305212 -2.750515,-0.760026c-0.000601,0.025234 -0.000601,0.051068 -0.000601,0.076904c0,2.941573 2.093227,5.395288 4.871379,5.954042c-0.509488,0.138186 -1.046012,0.212687 -1.59996,0.212687c-0.391729,0 -0.772043,-0.03785 -1.142744,-0.109346c0.773245,2.412258 3.015473,4.16843 5.672262,4.217094c-2.078208,1.628799 -4.695944,2.59971 -7.541387,2.59971c-0.489661,0 -0.973315,-0.028837 -1.448557,-0.085316c2.688031,1.723732 5.879541,2.728287 9.308373,2.728287c11.169688,0 17.276938,-9.252498 17.276938,-17.276938c0,-0.263155 -0.005409,-0.52571 -0.016825,-0.786462c1.186003,-0.854354 2.215796,-1.924399 3.029293,-3.142243z"/>
 </g>
</svg>